<svg xmlns="http://www.w3.org/2000/svg" width="1376" height="584" viewBox="0 0 1376 584" fill="none">
<g clip-path="url(#clip0_2494_202)">
<path d="M738.541 465.299C732.31 472.394 733.021 483.194 740.121 489.413C747.221 495.64 758.029 494.929 764.253 487.834C770.484 480.739 769.773 469.939 762.673 463.72C755.572 457.5 744.765 458.204 738.541 465.299Z" fill="currentColor"/>
<path d="M738.541 465.299C732.31 472.394 733.021 483.194 740.121 489.413C747.221 495.64 758.029 494.929 764.253 487.834C770.484 480.739 769.773 469.939 762.673 463.72C755.572 457.5 744.765 458.204 738.541 465.299Z" stroke="#21412C" stroke-width="1.29" stroke-miterlimit="10"/>
<path d="M711.84 468.098C704.036 476.989 704.92 490.528 713.817 498.327C722.715 506.126 736.264 505.243 744.068 496.351C751.88 487.46 750.988 473.921 742.091 466.122C733.193 458.323 719.644 459.207 711.84 468.098Z" fill="currentColor"/>
<path d="M711.84 468.098C704.036 476.989 704.92 490.528 713.817 498.327C722.715 506.126 736.264 505.243 744.068 496.351C751.88 487.46 750.988 473.921 742.091 466.122C733.193 458.323 719.644 459.207 711.84 468.098Z" stroke="#21412C" stroke-width="1.29" stroke-miterlimit="10"/>
<path d="M685.139 470.89C675.755 481.585 676.818 497.856 687.521 507.233C698.224 516.611 714.506 515.548 723.891 504.853C733.275 494.158 732.212 477.887 721.509 468.51C710.806 459.132 694.524 460.195 685.139 470.89Z" fill="currentColor"/>
<path d="M685.139 470.89C675.755 481.585 676.818 497.856 687.521 507.233C698.224 516.611 714.506 515.548 723.891 504.853C733.275 494.158 732.212 477.887 721.509 468.51C710.806 459.132 694.524 460.195 685.139 470.89Z" stroke="#21412C" stroke-width="1.29" stroke-miterlimit="10"/>
<path d="M658.439 473.681C647.475 486.173 648.718 505.183 661.218 516.14C673.718 527.097 692.742 525.854 703.707 513.363C714.672 500.872 713.428 481.862 700.928 470.905C688.428 459.948 669.404 461.19 658.439 473.681Z" fill="currentColor"/>
<path d="M658.439 473.681C647.475 486.173 648.718 505.183 661.218 516.14C673.718 527.097 692.742 525.854 703.707 513.363C714.672 500.872 713.428 481.862 700.928 470.905C688.428 459.948 669.404 461.19 658.439 473.681Z" stroke="#21412C" stroke-width="1.29" stroke-miterlimit="10"/>
<path d="M631.739 476.48C619.194 490.775 620.617 512.517 634.922 525.054C649.22 537.59 670.985 536.168 683.53 521.873C696.075 507.578 694.652 485.836 680.347 473.3C666.049 460.763 644.284 462.185 631.739 476.48Z" fill="currentColor"/>
<path d="M631.739 476.48C619.194 490.775 620.617 512.517 634.922 525.054C649.22 537.59 670.985 536.168 683.53 521.873C696.075 507.578 694.652 485.836 680.347 473.3C666.049 460.763 644.284 462.185 631.739 476.48Z" stroke="#21412C" stroke-width="1.29" stroke-miterlimit="10"/>
<path d="M605.038 479.272C590.912 495.363 592.515 519.844 608.618 533.96C624.721 548.075 649.219 546.474 663.345 530.382C677.47 514.291 675.868 489.81 659.765 475.695C643.662 461.579 619.163 463.181 605.038 479.272Z" fill="currentColor"/>
<path d="M605.038 479.272C590.912 495.363 592.515 519.844 608.618 533.96C624.721 548.075 649.219 546.474 663.345 530.382C677.47 514.291 675.868 489.81 659.765 475.695C643.662 461.579 619.163 463.181 605.038 479.272Z" stroke="#21412C" stroke-width="1.29" stroke-miterlimit="10"/>
<path d="M578.337 482.064C562.632 499.951 564.414 527.172 582.322 542.866C600.222 558.561 627.469 556.78 643.168 538.885C658.873 520.997 657.091 493.777 639.191 478.082C621.29 462.388 594.043 464.169 578.345 482.064" fill="currentColor"/>
<path d="M578.337 482.064C562.632 499.951 564.414 527.172 582.322 542.866C600.222 558.561 627.469 556.78 643.168 538.885C658.873 520.997 657.091 493.777 639.191 478.082C621.29 462.388 594.043 464.169 578.345 482.064H578.337Z" stroke="#21412C" stroke-width="1.29" stroke-miterlimit="10"/>
<path d="M551.644 484.863C534.358 504.547 536.32 534.514 556.026 551.78C575.731 569.046 605.712 567.093 622.991 547.402C640.277 527.711 638.314 497.751 618.609 480.484C598.904 463.218 568.923 465.172 551.644 484.863Z" fill="currentColor"/>
<path d="M551.644 484.863C534.358 504.547 536.32 534.514 556.026 551.78C575.731 569.046 605.712 567.093 622.991 547.402C640.277 527.711 638.314 497.751 618.609 480.484C598.904 463.218 568.923 465.172 551.644 484.863Z" stroke="#21412C" stroke-width="1.29" stroke-miterlimit="10"/>
<path d="M524.944 487.654C506.085 509.142 508.219 541.841 529.722 560.686C551.225 579.532 583.947 577.399 602.806 555.911C621.665 534.424 619.531 501.725 598.028 482.879C576.525 464.034 543.803 466.167 524.944 487.654Z" fill="currentColor"/>
<path d="M524.944 487.654C506.085 509.142 508.219 541.841 529.722 560.686C551.225 579.532 583.947 577.399 602.806 555.911C621.665 534.424 619.531 501.725 598.028 482.879C576.525 464.034 543.803 466.167 524.944 487.654Z" stroke="#21412C" stroke-width="1.29" stroke-miterlimit="10"/>
<path d="M498.243 490.446C477.804 513.73 480.126 549.168 503.426 569.593C526.726 590.017 562.19 587.705 582.629 564.414C603.068 541.13 600.746 505.692 577.446 485.267C554.146 464.842 518.682 467.155 498.243 490.446Z" fill="currentColor"/>
<path d="M498.243 490.446C477.804 513.73 480.126 549.168 503.426 569.593C526.726 590.017 562.19 587.705 582.629 564.414C603.068 541.13 600.746 505.692 577.446 485.267C554.146 464.842 518.682 467.155 498.243 490.446Z" stroke="#21412C" stroke-width="1.29" stroke-miterlimit="10"/>
<path d="M497.15 463.66C475.257 488.597 477.744 526.558 502.699 548.435C527.655 570.311 565.642 567.826 587.535 542.889C609.427 517.951 606.94 479.99 581.985 458.114C557.029 436.237 519.049 438.722 497.15 463.66Z" fill="currentColor"/>
<path d="M497.15 463.66C475.257 488.597 477.744 526.558 502.699 548.435C527.655 570.311 565.642 567.826 587.535 542.889C609.427 517.951 606.94 479.99 581.985 458.114C557.029 436.237 519.049 438.722 497.15 463.66Z" stroke="#21412C" stroke-width="1.29" stroke-miterlimit="10"/>
<path d="M496.056 436.866C472.711 463.465 475.362 503.933 501.973 527.261C528.591 550.59 569.088 547.941 592.433 521.349C615.778 494.75 613.127 454.282 586.516 430.953C559.898 407.625 519.401 410.274 496.056 436.866Z" fill="currentColor"/>
<path d="M496.056 436.866C472.711 463.465 475.362 503.933 501.973 527.261C528.591 550.59 569.088 547.941 592.433 521.349C615.778 494.75 613.127 454.282 586.516 430.953C559.898 407.625 519.401 410.274 496.056 436.866Z" stroke="#21412C" stroke-width="1.29" stroke-miterlimit="10"/>
<path d="M494.955 410.08C470.157 438.333 472.973 481.323 501.239 506.103C529.512 530.884 572.533 528.07 597.331 499.824C622.129 471.571 619.313 428.581 591.047 403.8C562.774 379.02 519.753 381.834 494.955 410.08Z" fill="currentColor"/>
<path d="M494.955 410.08C470.157 438.333 472.973 481.323 501.239 506.103C529.512 530.884 572.533 528.07 597.331 499.824C622.129 471.571 619.313 428.581 591.047 403.8C562.774 379.02 519.753 381.834 494.955 410.08Z" stroke="#21412C" stroke-width="1.29" stroke-miterlimit="10"/>
<path d="M493.862 383.293C467.611 413.201 470.592 458.705 500.52 484.945C530.449 511.178 575.993 508.199 602.245 478.292C628.496 448.384 625.515 402.872 595.586 376.64C565.658 350.407 520.121 353.386 493.862 383.293Z" fill="currentColor"/>
<path d="M599.016 481.721C627.166 453.592 627.166 407.986 599.016 379.857C570.867 351.728 525.228 351.728 497.079 379.857C468.93 407.986 468.93 453.592 497.079 481.721C525.229 509.85 570.867 509.85 599.016 481.721Z" stroke="#21412C" stroke-width="1.29" stroke-miterlimit="10"/>
<path d="M492.768 356.499C465.064 388.061 468.209 436.088 499.793 463.772C531.377 491.456 579.438 488.313 607.142 456.752C634.847 425.19 631.701 377.164 600.117 349.479C568.533 321.795 520.472 324.938 492.768 356.499Z" fill="currentColor"/>
<path d="M558.715 482.171C600.449 477.331 630.354 439.6 625.511 397.896C620.667 356.192 582.909 326.308 541.176 331.148C499.442 335.988 469.537 373.719 474.38 415.423C479.224 457.127 516.982 487.011 558.715 482.171Z" stroke="#21412C" stroke-width="1.29" stroke-miterlimit="10"/>
<path d="M491.675 329.713C462.517 362.928 465.828 413.477 499.067 442.614C532.306 471.75 582.891 468.442 612.048 435.227C641.205 402.012 637.895 351.462 604.656 322.326C571.417 293.19 520.832 296.498 491.675 329.713Z" fill="currentColor"/>
<path d="M491.675 329.713C462.517 362.928 465.828 413.477 499.067 442.614C532.306 471.75 582.891 468.442 612.048 435.227C641.205 402.012 637.895 351.462 604.656 322.326C571.417 293.19 520.832 296.498 491.675 329.713Z" stroke="#21412C" stroke-width="1.29" stroke-miterlimit="10"/>
<path d="M490.581 302.919C459.971 337.789 463.446 390.852 498.341 421.448C533.235 452.037 586.344 448.564 616.954 413.695C647.564 378.825 644.089 325.761 609.195 295.173C574.301 264.585 521.191 268.057 490.581 302.927" fill="currentColor"/>
<path d="M490.581 302.919C459.971 337.789 463.446 390.852 498.341 421.448C533.235 452.037 586.344 448.564 616.954 413.695C647.564 378.825 644.089 325.761 609.195 295.173C574.301 264.585 521.191 268.057 490.581 302.927V302.919Z" stroke="#21412C" stroke-width="1.29" stroke-miterlimit="10"/>
<path d="M489.488 276.133C457.425 312.656 461.065 368.242 497.614 400.283C534.164 432.323 589.789 428.686 621.852 392.162C653.916 355.639 650.276 300.053 613.726 268.012C577.177 235.972 521.551 239.609 489.488 276.133Z" fill="currentColor"/>
<path d="M489.488 276.133C457.425 312.656 461.065 368.242 497.614 400.283C534.164 432.323 589.789 428.686 621.852 392.162C653.916 355.639 650.276 300.053 613.726 268.012C577.177 235.972 521.551 239.609 489.488 276.133Z" stroke="#21412C" stroke-width="1.29" stroke-miterlimit="10"/>
<path d="M488.395 249.339C454.878 287.524 458.683 345.625 496.888 379.117C535.092 412.609 593.242 408.807 626.758 370.63C660.274 332.445 656.47 274.344 618.265 240.852C580.06 207.36 521.911 211.162 488.395 249.339Z" fill="currentColor"/>
<path d="M557.576 401.944C608.4 401.944 649.601 360.772 649.601 309.984C649.601 259.196 608.4 218.025 557.576 218.025C506.752 218.025 465.551 259.196 465.551 309.984C465.551 360.772 506.752 401.944 557.576 401.944Z" stroke="#21412C" stroke-width="1.29" stroke-miterlimit="10"/>
<path d="M492.551 228.862C460.511 263.903 464.016 317.109 500.378 347.705C536.733 378.301 592.179 374.694 624.219 339.652C656.26 304.611 652.755 251.405 616.393 220.809C580.038 190.213 524.592 193.82 492.551 228.862Z" fill="currentColor"/>
<path d="M492.551 228.862C460.511 263.903 464.016 317.109 500.378 347.705C536.733 378.301 592.179 374.694 624.219 339.652C656.26 304.611 652.755 251.405 616.393 220.809C580.038 190.213 524.592 193.82 492.551 228.862Z" stroke="#21412C" stroke-width="1.29" stroke-miterlimit="10"/>
<path d="M496.715 208.377C466.158 240.276 469.363 288.594 503.868 316.286C538.373 343.986 591.122 340.573 621.68 308.675C652.238 276.777 649.032 228.458 614.528 200.766C580.023 173.066 527.273 176.479 496.715 208.377Z" fill="currentColor"/>
<path d="M496.715 208.377C466.158 240.276 469.363 288.594 503.868 316.286C538.373 343.986 591.122 340.573 621.68 308.675C652.238 276.777 649.032 228.458 614.528 200.766C580.023 173.066 527.273 176.479 496.715 208.377Z" stroke="#21412C" stroke-width="1.29" stroke-miterlimit="10"/>
<path d="M500.879 187.9C471.805 216.663 474.703 260.079 507.365 284.882C540.02 309.685 590.074 306.467 619.148 277.705C648.223 248.942 645.325 205.526 612.662 180.723C580 155.92 529.954 159.138 500.879 187.9Z" fill="currentColor"/>
<path d="M500.879 187.9C471.805 216.663 474.703 260.079 507.365 284.882C540.02 309.685 590.074 306.467 619.148 277.705C648.223 248.942 645.325 205.526 612.662 180.723C580 155.92 529.954 159.138 500.879 187.9Z" stroke="#21412C" stroke-width="1.29" stroke-miterlimit="10"/>
<path d="M505.036 167.423C477.437 193.042 480.036 231.571 510.848 253.47C541.653 275.369 589.003 272.353 616.602 246.734C644.201 221.116 641.595 182.586 610.79 160.687C579.985 138.788 532.636 141.804 505.036 167.423Z" fill="currentColor"/>
<path d="M505.036 167.423C477.437 193.042 480.036 231.571 510.848 253.47C541.653 275.369 589.003 272.353 616.602 246.734C644.201 221.116 641.595 182.586 610.79 160.687C579.985 138.788 532.636 141.804 505.036 167.423Z" stroke="#21412C" stroke-width="1.29" stroke-miterlimit="10"/>
<path d="M509.201 146.939C483.084 169.422 485.384 203.049 514.339 222.051C543.294 241.054 587.947 238.232 614.063 215.757C640.18 193.274 637.88 159.647 608.926 140.644C579.971 121.642 535.317 124.463 509.201 146.939Z" fill="currentColor"/>
<path d="M509.201 146.939C483.084 169.422 485.384 203.049 514.339 222.051C543.294 241.054 587.947 238.232 614.063 215.757C640.18 193.274 637.88 159.647 608.926 140.644C579.971 121.642 535.317 124.463 509.201 146.939Z" stroke="#21412C" stroke-width="1.29" stroke-miterlimit="10"/>
<path d="M513.357 126.462C488.716 145.801 490.716 174.541 517.828 190.647C544.933 206.753 586.883 204.134 611.524 184.787C636.165 165.44 634.165 136.708 607.053 120.601C579.948 104.495 537.998 107.115 513.357 126.462Z" fill="currentColor"/>
<path d="M513.357 126.462C488.716 145.801 490.716 174.541 517.828 190.647C544.933 206.753 586.883 204.134 611.524 184.787C636.165 165.44 634.165 136.708 607.053 120.601C579.948 104.495 537.998 107.115 513.357 126.462Z" stroke="#21412C" stroke-width="1.29" stroke-miterlimit="10"/>
<path d="M517.522 105.977C494.364 122.181 496.064 146.018 521.319 159.228C546.574 172.438 585.827 170.013 608.985 153.809C632.143 137.606 630.443 113.768 605.188 100.558C579.933 87.3486 540.68 89.7735 517.522 105.977Z" fill="currentColor"/>
<path d="M517.522 105.977C494.364 122.181 496.064 146.018 521.319 159.228C546.574 172.438 585.827 170.013 608.985 153.809C632.143 137.606 630.443 113.768 605.188 100.558C579.933 87.3486 540.68 89.7735 517.522 105.977Z" stroke="#21412C" stroke-width="1.29" stroke-miterlimit="10"/>
<path d="M521.686 85.4999C500.003 98.5601 501.404 117.51 524.809 127.816C548.214 138.122 584.763 135.899 606.446 122.832C628.129 109.772 626.728 90.8213 603.323 80.5154C579.918 70.202 543.368 72.4323 521.686 85.4999Z" fill="currentColor"/>
<path d="M521.686 85.4999C500.003 98.5601 501.404 117.51 524.809 127.816C548.214 138.122 584.763 135.899 606.446 122.832C628.129 109.772 626.728 90.8213 603.323 80.5154C579.918 70.202 543.368 72.4323 521.686 85.4999Z" stroke="#21412C" stroke-width="1.29" stroke-miterlimit="10"/>
<path d="M525.842 65.0154C505.643 74.9396 506.744 88.9876 528.299 96.4046C549.854 103.814 583.707 101.786 603.907 91.8616C624.107 81.9374 623.006 67.8894 601.45 60.4724C579.895 53.0555 546.042 55.0912 525.842 65.0154Z" fill="currentColor"/>
<path d="M525.842 65.0154C505.643 74.9396 506.744 88.9876 528.299 96.4046C549.854 103.814 583.707 101.786 603.907 91.8616C624.107 81.9374 623.006 67.8894 601.45 60.4724C579.895 53.0555 546.042 55.0912 525.842 65.0154Z" stroke="#21412C" stroke-width="1.29" stroke-miterlimit="10"/>
<path d="M300.292 346.373C300.644 352.652 295.843 358.026 289.559 358.378C283.275 358.73 277.898 353.932 277.546 347.653C277.194 341.374 281.994 336 288.278 335.648C294.562 335.296 299.94 340.094 300.292 346.373Z" fill="currentColor"/>
<path d="M300.292 346.373C300.644 352.652 295.843 358.026 289.559 358.378C283.275 358.73 277.898 353.932 277.546 347.653C277.194 341.374 281.994 336 288.278 335.648C294.562 335.296 299.94 340.094 300.292 346.373Z" stroke="#21412C" stroke-width="1.29" stroke-miterlimit="10"/>
<path d="M293.559 367.09C294.053 375.906 287.305 383.458 278.482 383.952C269.659 384.446 262.102 377.702 261.608 368.886C261.114 360.069 267.862 352.518 276.685 352.024C285.508 351.53 293.065 358.273 293.559 367.09Z" fill="currentColor"/>
<path d="M293.559 367.09C294.053 375.906 287.305 383.458 278.482 383.952C269.659 384.446 262.102 377.702 261.608 368.886C261.114 360.069 267.862 352.518 276.685 352.024C285.508 351.53 293.065 358.273 293.559 367.09Z" stroke="#21412C" stroke-width="1.29" stroke-miterlimit="10"/>
<path d="M286.833 387.799C287.477 399.152 278.782 408.875 267.42 409.518C256.058 410.154 246.329 401.473 245.692 390.119C245.048 378.765 253.744 369.043 265.105 368.399C276.467 367.763 286.196 376.445 286.84 387.799" fill="currentColor"/>
<path d="M286.833 387.799C287.477 399.152 278.782 408.875 267.42 409.518C256.058 410.154 246.329 401.473 245.692 390.119C245.048 378.765 253.744 369.043 265.105 368.399C276.467 367.763 286.196 376.445 286.84 387.799H286.833Z" stroke="#21412C" stroke-width="1.29" stroke-miterlimit="10"/>
<path d="M280.1 408.515C280.886 422.406 270.251 434.299 256.35 435.085C242.449 435.871 230.548 425.243 229.762 411.352C228.975 397.461 239.611 385.568 253.511 384.783C267.412 383.997 279.313 394.625 280.1 408.515Z" fill="currentColor"/>
<path d="M280.1 408.515C280.886 422.406 270.251 434.299 256.35 435.085C242.449 435.871 230.548 425.243 229.762 411.352C228.975 397.461 239.611 385.568 253.511 384.783C267.412 383.997 279.313 394.625 280.1 408.515Z" stroke="#21412C" stroke-width="1.29" stroke-miterlimit="10"/>
<path d="M273.374 429.232C274.303 445.66 261.728 459.73 245.281 460.659C228.841 461.587 214.76 449.013 213.831 432.585C212.903 416.157 225.485 402.086 241.925 401.158C258.365 400.23 272.445 412.804 273.367 429.232" fill="currentColor"/>
<path d="M273.374 429.232C274.303 445.66 261.728 459.73 245.281 460.659C228.841 461.587 214.76 449.013 213.831 432.585C212.903 416.157 225.485 402.086 241.925 401.158C258.365 400.23 272.445 412.804 273.367 429.232H273.374Z" stroke="#21412C" stroke-width="1.29" stroke-miterlimit="10"/>
<path d="M266.641 449.941C267.712 468.906 253.189 485.147 234.21 486.218C215.232 487.288 198.979 472.776 197.908 453.81C196.837 434.845 211.36 418.604 230.338 417.534C249.317 416.464 265.57 430.976 266.641 449.941Z" fill="currentColor"/>
<path d="M266.641 449.941C267.712 468.906 253.189 485.147 234.21 486.218C215.232 487.288 198.979 472.776 197.908 453.81C196.837 434.845 211.36 418.604 230.338 417.534C249.317 416.464 265.57 430.976 266.641 449.941Z" stroke="#21412C" stroke-width="1.29" stroke-miterlimit="10"/>
<path d="M259.915 470.658C261.128 492.16 244.666 510.579 223.148 511.791C201.631 513.004 183.199 496.553 181.985 475.051C180.772 453.549 197.234 435.13 218.752 433.917C240.27 432.705 258.702 449.155 259.915 470.658Z" fill="currentColor"/>
<path d="M240.664 506.51C259.263 495.623 265.508 471.731 254.614 453.145C243.719 434.56 219.81 428.318 201.211 439.205C182.612 450.092 176.366 473.984 187.261 492.57C198.155 511.156 222.065 517.397 240.664 506.51Z" stroke="#21412C" stroke-width="1.29" stroke-miterlimit="10"/>
<path d="M263.645 361.933C264.409 375.554 276.085 385.973 289.716 385.209C303.348 384.438 313.773 372.778 313.009 359.156C312.245 345.535 300.569 335.117 286.938 335.88C273.307 336.644 262.881 348.312 263.645 361.933Z" fill="currentColor"/>
<path d="M263.645 361.933C264.409 375.554 276.085 385.973 289.716 385.209C303.348 384.438 313.773 372.778 313.009 359.156C312.245 345.535 300.569 335.117 286.938 335.88C273.307 336.644 262.881 348.312 263.645 361.933Z" stroke="#21412C" stroke-width="1.29" stroke-miterlimit="10"/>
<path d="M273.449 382.103C274.348 398.052 288.016 410.252 303.969 409.354C319.93 408.456 332.138 394.797 331.239 378.855C330.34 362.906 316.672 350.707 300.719 351.605C284.758 352.503 272.55 366.162 273.449 382.103Z" fill="currentColor"/>
<path d="M273.449 382.103C274.348 398.052 288.016 410.252 303.969 409.354C319.93 408.456 332.138 394.797 331.239 378.855C330.34 362.906 316.672 350.707 300.719 351.605C284.758 352.503 272.55 366.162 273.449 382.103Z" stroke="#21412C" stroke-width="1.29" stroke-miterlimit="10"/>
<path d="M283.253 402.273C284.286 420.55 299.94 434.523 318.229 433.498C336.512 432.465 350.502 416.823 349.476 398.546C348.443 380.27 332.789 366.296 314.5 367.322C296.21 368.355 282.227 383.997 283.253 402.273Z" fill="currentColor"/>
<path d="M283.253 402.273C284.286 420.55 299.94 434.523 318.229 433.498C336.512 432.465 350.502 416.823 349.476 398.546C348.443 380.27 332.789 366.296 314.5 367.322C296.21 368.355 282.227 383.997 283.253 402.273Z" stroke="#21412C" stroke-width="1.29" stroke-miterlimit="10"/>
<path d="M293.057 422.436C294.218 443.033 311.871 458.795 332.482 457.635C353.094 456.475 368.867 438.834 367.706 418.237C366.545 397.641 348.892 381.879 328.281 383.039C307.669 384.199 291.896 401.839 293.057 422.436Z" fill="currentColor"/>
<path d="M293.057 422.436C294.218 443.033 311.871 458.795 332.482 457.635C353.094 456.475 368.867 438.834 367.706 418.237C366.545 397.641 348.892 381.879 328.281 383.039C307.669 384.199 291.896 401.839 293.057 422.436Z" stroke="#21412C" stroke-width="1.29" stroke-miterlimit="10"/>
<path d="M302.861 442.606C304.156 465.531 323.802 483.067 346.742 481.779C369.683 480.485 387.231 460.853 385.943 437.929C384.648 415.004 365.002 397.469 342.061 398.756C319.121 400.051 301.572 419.682 302.861 442.606Z" fill="currentColor"/>
<path d="M302.861 442.606C304.156 465.531 323.802 483.067 346.742 481.779C369.683 480.485 387.231 460.853 385.943 437.929C384.648 415.004 365.002 397.469 342.061 398.756C319.121 400.051 301.572 419.682 302.861 442.606Z" stroke="#21412C" stroke-width="1.29" stroke-miterlimit="10"/>
<path d="M312.665 462.769C314.088 488.021 335.725 507.338 360.995 505.916C386.265 504.494 405.596 482.872 404.173 457.62C402.75 432.368 381.113 413.051 355.842 414.473C330.572 415.895 311.242 437.517 312.665 462.769Z" fill="currentColor"/>
<path d="M312.665 462.769C314.088 488.021 335.725 507.338 360.995 505.916C386.265 504.494 405.596 482.872 404.173 457.62C402.75 432.368 381.113 413.051 355.842 414.473C330.572 415.895 311.242 437.517 312.665 462.769Z" stroke="#21412C" stroke-width="1.29" stroke-miterlimit="10"/>
<path d="M322.469 482.939C324.027 510.519 347.657 531.617 375.256 530.061C402.855 528.504 423.961 504.891 422.411 477.311C420.853 449.731 397.223 428.641 369.624 430.19C342.024 431.747 320.919 455.36 322.469 482.939Z" fill="currentColor"/>
<path d="M322.469 482.939C324.027 510.519 347.657 531.617 375.256 530.061C402.855 528.504 423.961 504.891 422.411 477.311C420.853 449.731 397.223 428.641 369.624 430.19C342.024 431.747 320.919 455.36 322.469 482.939Z" stroke="#21412C" stroke-width="1.29" stroke-miterlimit="10"/>
<path d="M359.52 469.67C352.764 477.364 353.528 489.076 361.235 495.827C368.934 502.578 380.656 501.815 387.411 494.113C394.167 486.412 393.403 474.707 385.696 467.956C377.997 461.205 366.275 461.968 359.52 469.67Z" fill="currentColor"/>
<path d="M359.52 469.67C352.764 477.364 353.528 489.076 361.235 495.827C368.934 502.578 380.656 501.815 387.411 494.113C394.167 486.412 393.403 474.707 385.696 467.956C377.997 461.205 366.275 461.968 359.52 469.67Z" stroke="#21412C" stroke-width="1.29" stroke-miterlimit="10"/>
<path d="M368.65 444.238C360.179 453.885 361.145 468.569 370.799 477.027C380.453 485.491 395.141 484.526 403.611 474.879C412.082 465.231 411.116 450.555 401.462 442.09C391.808 433.625 377.113 434.591 368.65 444.238Z" fill="currentColor"/>
<path d="M368.65 444.238C360.179 453.885 361.145 468.569 370.799 477.027C380.453 485.491 395.141 484.526 403.611 474.879C412.082 465.231 411.116 450.555 401.462 442.09C391.808 433.625 377.113 434.591 368.65 444.238Z" stroke="#21412C" stroke-width="1.29" stroke-miterlimit="10"/>
<path d="M377.78 418.799C367.601 430.399 368.755 448.047 380.364 458.219C391.973 468.39 409.633 467.237 419.812 455.637C429.99 444.036 428.837 426.388 417.228 416.217C405.619 406.046 387.958 407.198 377.78 418.799Z" fill="currentColor"/>
<path d="M377.78 418.799C367.601 430.399 368.755 448.047 380.364 458.219C391.973 468.39 409.633 467.237 419.812 455.637C429.99 444.036 428.837 426.388 417.228 416.217C405.619 406.046 387.958 407.198 377.78 418.799Z" stroke="#21412C" stroke-width="1.29" stroke-miterlimit="10"/>
<path d="M386.917 393.367C375.023 406.914 376.372 427.533 389.935 439.418C403.492 451.303 424.126 449.956 436.019 436.402C447.913 422.855 446.565 402.236 433.001 390.351C419.445 378.466 398.811 379.813 386.917 393.367Z" fill="currentColor"/>
<path d="M386.917 393.367C375.023 406.914 376.372 427.533 389.935 439.418C403.492 451.303 424.126 449.956 436.019 436.402C447.913 422.855 446.565 402.236 433.001 390.351C419.445 378.466 398.811 379.813 386.917 393.367Z" stroke="#21412C" stroke-width="1.29" stroke-miterlimit="10"/>
<path d="M396.047 367.935C382.438 383.435 383.981 407.026 399.492 420.617C415.003 434.216 438.611 432.675 452.219 417.175C465.828 401.675 464.285 378.084 448.766 364.485C433.255 350.886 409.648 352.428 396.039 367.935" fill="currentColor"/>
<path d="M396.047 367.935C382.438 383.435 383.981 407.026 399.492 420.617C415.003 434.216 438.611 432.675 452.219 417.175C465.828 401.675 464.285 378.084 448.766 364.485C433.255 350.886 409.648 352.428 396.039 367.935H396.047Z" stroke="#21412C" stroke-width="1.29" stroke-miterlimit="10"/>
<path d="M405.177 342.504C389.86 359.957 391.598 386.511 409.056 401.824C426.522 417.13 453.095 415.393 468.419 397.947C483.736 380.494 481.998 353.94 464.54 338.627C447.074 323.321 420.501 325.058 405.177 342.504Z" fill="currentColor"/>
<path d="M405.177 342.504C389.86 359.957 391.598 386.511 409.056 401.824C426.522 417.13 453.095 415.393 468.419 397.947C483.736 380.494 481.998 353.94 464.54 338.627C447.074 323.321 420.501 325.058 405.177 342.504Z" stroke="#21412C" stroke-width="1.29" stroke-miterlimit="10"/>
<path d="M414.307 317.072C397.275 336.471 399.207 366.004 418.628 383.024C438.041 400.043 467.595 398.112 484.627 378.713C501.658 359.313 499.726 329.78 480.305 312.761C460.892 295.742 431.338 297.673 414.307 317.08" fill="currentColor"/>
<path d="M414.307 317.072C397.275 336.471 399.207 366.004 418.628 383.024C438.041 400.043 467.595 398.112 484.627 378.713C501.658 359.313 499.726 329.78 480.305 312.761C460.892 295.742 431.338 297.673 414.307 317.08V317.072Z" stroke="#21412C" stroke-width="1.29" stroke-miterlimit="10"/>
<path d="M423.444 291.64C404.698 312.993 406.825 345.49 428.193 364.223C449.561 382.956 482.081 380.831 500.827 359.478C519.574 338.125 517.447 305.629 496.079 286.895C474.711 268.162 442.191 270.288 423.444 291.64Z" fill="currentColor"/>
<path d="M423.444 291.64C404.698 312.993 406.825 345.49 428.193 364.223C449.561 382.956 482.081 380.831 500.827 359.478C519.574 338.125 517.447 305.629 496.079 286.895C474.711 268.162 442.191 270.288 423.444 291.64Z" stroke="#21412C" stroke-width="1.29" stroke-miterlimit="10"/>
<path d="M432.574 266.209C412.112 289.515 414.434 324.983 437.757 345.423C461.08 365.87 496.566 363.542 517.027 340.243C537.489 316.937 535.167 281.469 511.845 261.029C488.522 240.582 453.028 242.91 432.574 266.209Z" fill="currentColor"/>
<path d="M479.289 359.162C510.214 356.692 533.279 329.638 530.807 298.735C528.336 267.833 501.262 244.784 470.338 247.254C439.413 249.724 416.348 276.778 418.82 307.68C421.292 338.583 448.365 361.632 479.289 359.162Z" stroke="#21412C" stroke-width="1.29" stroke-miterlimit="10"/>
<path d="M441.704 240.777C419.535 266.037 422.051 304.468 447.321 326.622C472.599 348.776 511.058 346.261 533.228 321.009C555.397 295.749 552.88 257.317 527.61 235.164C502.333 213.01 463.873 215.525 441.704 240.777Z" fill="currentColor"/>
<path d="M441.704 240.777C419.535 266.037 422.051 304.468 447.321 326.622C472.599 348.776 511.058 346.261 533.228 321.009C555.397 295.749 552.88 257.317 527.61 235.164C502.333 213.01 463.873 215.525 441.704 240.777Z" stroke="#21412C" stroke-width="1.29" stroke-miterlimit="10"/>
<path d="M419.512 227.141C398.601 254.818 404.031 291.865 431.653 309.88C459.274 327.894 498.618 320.058 519.536 292.381C540.447 264.704 535.017 227.657 507.395 209.642C479.774 191.628 440.43 199.464 419.512 227.141Z" fill="currentColor"/>
<path d="M419.512 227.141C398.601 254.818 404.031 291.865 431.653 309.88C459.274 327.894 498.618 320.058 519.536 292.381C540.447 264.704 535.017 227.657 507.395 209.642C479.774 191.628 440.43 199.464 419.512 227.141Z" stroke="#21412C" stroke-width="1.29" stroke-miterlimit="10"/>
<path d="M397.32 213.497C377.66 243.599 386.018 279.254 415.984 293.13C445.951 307.006 486.177 293.848 505.838 263.746C525.498 233.644 517.14 197.989 487.174 184.113C457.207 170.237 416.981 183.395 397.32 213.497Z" fill="currentColor"/>
<path d="M397.32 213.497C377.66 243.599 386.018 279.254 415.984 293.13C445.951 307.006 486.177 293.848 505.838 263.746C525.498 233.644 517.14 197.989 487.174 184.113C457.207 170.237 416.981 183.395 397.32 213.497Z" stroke="#21412C" stroke-width="1.29" stroke-miterlimit="10"/>
<path d="M375.136 199.853C356.734 232.38 368.013 266.643 400.324 276.38C432.634 286.117 473.752 267.646 492.147 235.119C510.549 202.592 499.269 168.329 466.959 158.592C434.649 148.855 393.53 167.326 375.136 199.853Z" fill="currentColor"/>
<path d="M375.136 199.853C356.734 232.38 368.013 266.643 400.324 276.38C432.634 286.117 473.752 267.646 492.147 235.119C510.549 202.592 499.269 168.329 466.959 158.592C434.649 148.855 393.53 167.326 375.136 199.853Z" stroke="#21412C" stroke-width="1.29" stroke-miterlimit="10"/>
<path d="M352.944 186.216C335.8 221.168 349.993 254.032 384.655 259.63C419.317 265.228 461.312 241.436 478.456 206.484C495.6 171.532 481.407 138.661 446.745 133.063C412.082 127.464 370.088 151.257 352.944 186.209" fill="currentColor"/>
<path d="M352.944 186.216C335.8 221.168 349.993 254.032 384.655 259.63C419.317 265.228 461.312 241.436 478.456 206.484C495.6 171.532 481.407 138.661 446.745 133.063C412.082 127.464 370.088 151.257 352.944 186.209V186.216Z" stroke="#21412C" stroke-width="1.29" stroke-miterlimit="10"/>
<path d="M330.752 172.572C314.866 209.942 331.98 241.421 368.987 242.88C405.993 244.339 448.871 215.226 464.764 177.849C480.65 140.48 463.536 109.001 426.53 107.541C389.523 106.082 346.645 135.196 330.759 172.572" fill="currentColor"/>
<path d="M330.752 172.572C314.866 209.942 331.98 241.421 368.987 242.88C405.993 244.339 448.871 215.226 464.764 177.849C480.65 140.48 463.536 109.001 426.53 107.541C389.523 106.082 346.645 135.196 330.759 172.572H330.752Z" stroke="#21412C" stroke-width="1.29" stroke-miterlimit="10"/>
<path d="M308.56 158.936C293.926 198.73 313.968 228.817 353.318 226.138C392.669 223.458 436.431 189.023 451.066 149.229C465.701 109.435 445.658 79.3479 406.308 82.0273C366.957 84.7066 323.195 119.142 308.56 158.936Z" fill="currentColor"/>
<path d="M308.56 158.936C293.926 198.73 313.968 228.817 353.318 226.138C392.669 223.458 436.431 189.023 451.066 149.229C465.701 109.435 445.658 79.3479 406.308 82.0273C366.957 84.7066 323.195 119.142 308.56 158.936Z" stroke="#21412C" stroke-width="1.29" stroke-miterlimit="10"/>
<path d="M286.369 145.292C272.992 187.511 295.948 216.206 337.65 209.388C379.345 202.57 423.991 162.813 437.367 120.594C450.744 78.3749 427.788 49.68 386.086 56.4982C344.391 63.3165 299.745 103.073 286.369 145.292Z" fill="currentColor"/>
<path d="M286.369 145.292C272.992 187.511 295.948 216.206 337.65 209.388C379.345 202.57 423.991 162.813 437.367 120.594C450.744 78.3749 427.788 49.68 386.086 56.4982C344.391 63.3165 299.745 103.073 286.369 145.292Z" stroke="#21412C" stroke-width="1.29" stroke-miterlimit="10"/>
<path d="M264.177 131.648C252.058 176.292 277.935 203.595 321.982 192.638C366.028 181.681 411.558 136.603 423.676 91.9589C435.794 47.315 409.918 20.0122 365.871 30.9693C321.824 41.9263 276.295 87.0043 264.177 131.648Z" fill="currentColor"/>
<path d="M264.177 131.648C252.058 176.292 277.935 203.595 321.982 192.638C366.028 181.681 411.558 136.603 423.676 91.9589C435.794 47.315 409.918 20.0122 365.871 30.9693C321.824 41.9263 276.295 87.0043 264.177 131.648Z" stroke="#21412C" stroke-width="1.29" stroke-miterlimit="10"/>
<path d="M241.985 118.012C231.117 165.081 259.923 190.991 306.313 175.896C352.704 160.8 399.118 110.4 409.978 63.3389C420.845 16.2701 392.04 -9.6406 345.649 5.45525C299.258 20.5511 252.845 70.9505 241.985 118.012Z" fill="currentColor"/>
<path d="M241.985 118.012C231.117 165.081 259.923 190.991 306.313 175.896C352.704 160.8 399.118 110.4 409.978 63.3389C420.845 16.2701 392.04 -9.6406 345.649 5.45525C299.258 20.5511 252.845 70.9505 241.985 118.012Z" stroke="#21412C" stroke-width="1.29" stroke-miterlimit="10"/>
<path d="M226.631 459.364C233.289 465.411 233.776 475.71 227.717 482.363C221.665 489.017 211.36 489.503 204.701 483.448C198.043 477.401 197.556 467.103 203.615 460.449C209.667 453.795 219.973 453.309 226.631 459.364Z" fill="currentColor"/>
<path d="M226.631 459.364C233.289 465.411 233.776 475.71 227.717 482.363C221.665 489.017 211.36 489.503 204.701 483.448C198.043 477.401 197.556 467.103 203.615 460.449C209.667 453.795 219.973 453.309 226.631 459.364Z" stroke="#21412C" stroke-width="1.29" stroke-miterlimit="10"/>
<path d="M216.146 438.063C224.489 445.645 225.096 458.555 217.509 466.893C209.922 475.231 197.002 475.837 188.659 468.255C180.315 460.674 179.701 447.763 187.296 439.426C194.883 431.088 207.802 430.474 216.146 438.063Z" fill="currentColor"/>
<path d="M216.146 438.063C224.489 445.645 225.096 458.555 217.509 466.893C209.922 475.231 197.002 475.837 188.659 468.255C180.315 460.674 179.701 447.763 187.296 439.426C194.883 431.088 207.802 430.474 216.146 438.063Z" stroke="#21412C" stroke-width="1.29" stroke-miterlimit="10"/>
<path d="M205.667 416.771C215.696 425.886 216.43 441.409 207.308 451.43C198.185 461.452 182.652 462.185 172.623 453.069C162.594 443.954 161.86 428.431 170.983 418.41C180.105 408.388 195.639 407.655 205.667 416.771Z" fill="currentColor"/>
<path d="M205.667 416.771C215.696 425.886 216.43 441.409 207.308 451.43C198.185 461.452 182.652 462.185 172.623 453.069C162.594 443.954 161.86 428.431 170.983 418.41C180.105 408.388 195.639 407.655 205.667 416.771Z" stroke="#21412C" stroke-width="1.29" stroke-miterlimit="10"/>
<path d="M195.19 395.478C206.911 406.128 207.765 424.255 197.107 435.968C186.449 447.673 168.309 448.534 156.588 437.884C144.867 427.234 144.013 409.107 154.671 397.394C165.328 385.681 183.468 384.828 195.19 395.478Z" fill="currentColor"/>
<path d="M195.19 395.478C206.911 406.128 207.765 424.255 197.107 435.968C186.449 447.673 168.309 448.534 156.588 437.884C144.867 427.234 144.013 409.107 154.671 397.394C165.328 385.681 183.468 384.828 195.19 395.478Z" stroke="#21412C" stroke-width="1.29" stroke-miterlimit="10"/>
<path d="M184.704 374.185C198.11 386.369 199.092 407.108 186.898 420.505C174.705 433.902 153.951 434.883 140.545 422.698C127.139 410.514 126.157 389.775 138.351 376.378C150.544 362.981 171.298 362 184.704 374.185Z" fill="currentColor"/>
<path d="M184.704 374.185C198.11 386.369 199.092 407.108 186.898 420.505C174.705 433.902 153.952 434.883 140.545 422.698C127.139 410.514 126.157 389.775 138.351 376.378C150.544 362.981 171.298 362 184.704 374.185Z" stroke="#21412C" stroke-width="1.29" stroke-miterlimit="10"/>
<path d="M174.226 352.884C189.318 366.603 190.426 389.954 176.698 405.035C162.969 420.116 139.601 421.224 124.51 407.497C109.418 393.779 108.31 370.428 122.046 355.347C135.774 340.266 159.142 339.158 174.233 352.877" fill="currentColor"/>
<path d="M174.226 352.884C189.318 366.603 190.426 389.954 176.698 405.035C162.969 420.116 139.601 421.224 124.51 407.497C109.418 393.779 108.31 370.428 122.046 355.347C135.774 340.266 159.142 339.158 174.233 352.877L174.226 352.884Z" stroke="#21412C" stroke-width="1.29" stroke-miterlimit="10"/>
<path d="M163.748 331.592C180.525 346.845 181.761 372.808 166.489 389.573C151.225 406.337 125.244 407.565 108.467 392.312C91.6903 377.059 90.462 351.096 105.726 334.331C120.99 317.559 146.971 316.331 163.748 331.592Z" fill="currentColor"/>
<path d="M163.748 331.592C180.525 346.845 181.761 372.808 166.489 389.573C151.225 406.337 125.244 407.565 108.467 392.312C91.6903 377.059 90.462 351.096 105.726 334.331C120.99 317.559 146.971 316.331 163.748 331.592Z" stroke="#21412C" stroke-width="1.29" stroke-miterlimit="10"/>
<path d="M153.262 310.299C171.732 327.086 173.08 355.654 156.281 374.11C139.482 392.566 110.886 393.913 92.4241 377.126C73.9621 360.339 72.6065 331.771 89.4058 313.315C106.205 294.859 134.793 293.511 153.262 310.299Z" fill="currentColor"/>
<path d="M153.262 310.299C171.732 327.086 173.08 355.654 156.281 374.11C139.482 392.566 110.886 393.913 92.4241 377.126C73.9621 360.339 72.6065 331.771 89.4058 313.315C106.205 294.859 134.793 293.511 153.262 310.299Z" stroke="#21412C" stroke-width="1.29" stroke-miterlimit="10"/>
<path d="M142.785 288.998C162.939 307.32 164.415 338.5 146.08 358.64C127.746 378.78 96.5437 380.255 76.3891 361.933C56.2344 343.611 54.759 312.432 73.0936 292.292C91.4283 272.151 122.63 270.677 142.785 288.998Z" fill="currentColor"/>
<path d="M113.175 374.63C140.35 372.655 160.777 349.04 158.801 321.885C156.824 294.729 133.193 274.317 106.018 276.292C78.843 278.267 58.4158 301.882 60.3923 329.037C62.3688 356.193 86.0006 376.605 113.175 374.63Z" stroke="#21412C" stroke-width="1.29" stroke-miterlimit="10"/>
<path d="M132.306 267.706C154.146 287.561 155.749 321.353 135.879 343.177C116.009 365.002 82.1932 366.603 60.3534 346.747C38.5135 326.891 36.9108 293.1 56.7808 271.276C76.6508 249.451 110.467 247.85 132.306 267.706Z" fill="currentColor"/>
<path d="M132.306 267.706C154.146 287.561 155.749 321.353 135.879 343.177C116.009 365.002 82.1932 366.603 60.3534 346.747C38.5135 326.891 36.9108 293.1 56.7808 271.276C76.6508 249.451 110.467 247.85 132.306 267.706Z" stroke="#21412C" stroke-width="1.29" stroke-miterlimit="10"/>
<path d="M134.741 244.04C158.131 263.088 159.636 295.727 138.111 316.937C116.586 338.148 80.1785 339.907 56.7958 320.859C33.4057 301.812 31.9002 269.172 53.4255 247.962C74.9507 226.751 111.358 225 134.741 244.048" fill="currentColor"/>
<path d="M134.741 244.04C158.131 263.088 159.636 295.727 138.111 316.937C116.586 338.148 80.1785 339.907 56.7958 320.859C33.4057 301.812 31.9002 269.172 53.4255 247.962C74.9507 226.751 111.358 225 134.741 244.048V244.04Z" stroke="#21412C" stroke-width="1.29" stroke-miterlimit="10"/>
<path d="M137.182 220.375C162.115 238.614 163.538 270.093 140.358 290.69C117.177 311.287 78.1787 313.195 53.2531 294.956C28.3201 276.717 26.897 245.238 50.0775 224.641C73.2505 204.044 112.257 202.135 137.182 220.375Z" fill="currentColor"/>
<path d="M137.182 220.375C162.115 238.614 163.538 270.093 140.358 290.69C117.177 311.287 78.1787 313.195 53.2531 294.956C28.3201 276.717 26.897 245.238 50.0775 224.641C73.2505 204.044 112.257 202.135 137.182 220.375Z" stroke="#21412C" stroke-width="1.29" stroke-miterlimit="10"/>
<path d="M139.617 196.709C166.093 214.14 167.426 244.467 142.597 264.45C117.769 284.433 76.1718 286.499 49.7034 269.068C23.2275 251.637 21.8944 221.31 46.7225 201.327C71.5507 181.344 113.148 179.278 139.624 196.709" fill="currentColor"/>
<path d="M139.617 196.709C166.093 214.14 167.426 244.467 142.597 264.45C117.769 284.433 76.1718 286.499 49.7034 269.068C23.2275 251.637 21.8944 221.31 46.7225 201.327C71.5507 181.344 113.148 179.278 139.624 196.709H139.617Z" stroke="#21412C" stroke-width="1.29" stroke-miterlimit="10"/>
<path d="M142.058 173.036C170.077 189.659 171.32 218.833 144.837 238.195C118.354 257.564 74.1721 259.787 46.1533 243.164C18.1345 226.542 16.8913 197.368 43.3747 178.006C69.858 158.644 114.039 156.421 142.058 173.036Z" fill="currentColor"/>
<path d="M142.058 173.036C170.077 189.659 171.32 218.833 144.837 238.195C118.354 257.564 74.1721 259.787 46.1533 243.164C18.1345 226.542 16.8913 197.368 43.3747 178.006C69.858 158.644 114.039 156.421 142.058 173.036Z" stroke="#21412C" stroke-width="1.29" stroke-miterlimit="10"/>
<path d="M144.492 149.371C174.054 165.185 175.215 193.207 147.076 211.955C118.937 230.703 72.1645 233.083 42.5954 217.269C13.0338 201.454 11.8729 173.433 40.0115 154.685C68.1501 135.937 114.923 133.557 144.485 149.371" fill="currentColor"/>
<path d="M144.492 149.371C174.054 165.185 175.215 193.207 147.076 211.955C118.937 230.703 72.1645 233.083 42.5954 217.269C13.0338 201.454 11.8729 173.433 40.0115 154.685C68.1501 135.937 114.923 133.557 144.485 149.371H144.492Z" stroke="#21412C" stroke-width="1.29" stroke-miterlimit="10"/>
<path d="M146.934 125.706C178.038 140.712 179.109 167.573 149.316 185.707C119.522 203.842 70.1576 206.379 39.0456 191.373C7.94108 176.367 6.87006 149.506 36.6639 131.371C66.4577 113.237 115.822 110.7 146.934 125.706Z" fill="currentColor"/>
<path d="M146.934 125.706C178.038 140.712 179.109 167.573 149.316 185.707C119.522 203.842 70.1576 206.379 39.0456 191.373C7.94108 176.367 6.87006 149.506 36.6639 131.371C66.4577 113.237 115.822 110.7 146.934 125.706Z" stroke="#21412C" stroke-width="1.29" stroke-miterlimit="10"/>
<path d="M149.368 102.04C182.023 116.238 182.996 141.947 151.555 159.467C120.113 176.988 68.1502 179.683 35.4953 165.485C2.84046 151.287 1.86681 125.578 33.3083 108.058C64.7499 90.5369 116.713 87.8426 149.368 102.04Z" fill="currentColor"/>
<path d="M149.368 102.04C182.023 116.238 182.996 141.947 151.555 159.467C120.113 176.988 68.1502 179.683 35.4953 165.485C2.84046 151.287 1.86681 125.578 33.3083 108.058C64.7499 90.5369 116.713 87.8426 149.368 102.04Z" stroke="#21412C" stroke-width="1.29" stroke-miterlimit="10"/>
<path d="M151.81 78.3749C186.007 91.7643 186.899 116.32 153.794 133.22C120.698 150.119 66.143 152.971 31.9453 139.582C-2.25247 126.192 -3.14374 101.636 29.9605 84.7365C63.0573 67.837 117.612 64.9854 151.81 78.3749Z" fill="currentColor"/>
<path d="M151.81 78.3749C186.007 91.7643 186.899 116.32 153.794 133.22C120.698 150.119 66.143 152.971 31.9453 139.582C-2.25247 126.192 -3.14374 101.636 29.9605 84.7365C63.0573 67.837 117.612 64.9854 151.81 78.3749Z" stroke="#21412C" stroke-width="1.29" stroke-miterlimit="10"/>
<path d="M154.251 54.702C189.992 67.2831 190.793 90.6866 156.041 106.972C121.289 123.258 64.1432 126.267 28.4026 113.686C-7.33798 101.105 -8.13937 77.7013 26.6126 61.4154C61.3646 45.1296 118.511 42.1209 154.251 54.702Z" fill="currentColor"/>
<path d="M154.251 54.702C189.992 67.2831 190.793 90.6866 156.041 106.972C121.289 123.258 64.1432 126.267 28.4026 113.686C-7.33798 101.105 -8.13937 77.7013 26.6126 61.4154C61.3646 45.1296 118.511 42.1209 154.251 54.702Z" stroke="#21412C" stroke-width="1.29" stroke-miterlimit="10"/>
<path d="M794.489 326.046C799.155 333.508 796.893 343.335 789.426 347.997C781.966 352.66 772.125 350.4 767.459 342.938C762.792 335.476 765.054 325.649 772.522 320.986C779.981 316.324 789.823 318.584 794.489 326.046Z" fill="currentColor"/>
<path d="M794.489 326.046C799.155 333.508 796.893 343.335 789.426 347.997C781.966 352.66 772.125 350.4 767.459 342.938C762.792 335.476 765.054 325.649 772.522 320.986C779.981 316.324 789.823 318.584 794.489 326.046Z" stroke="#21412C" stroke-width="1.29" stroke-miterlimit="10"/>
<path d="M820.845 315.403C826.694 324.751 823.856 337.07 814.501 342.915C805.146 348.761 792.818 345.924 786.969 336.576C781.12 327.228 783.958 314.909 793.313 309.064C802.667 303.219 814.995 306.055 820.845 315.403Z" fill="currentColor"/>
<path d="M820.845 315.403C826.694 324.751 823.856 337.07 814.501 342.915C805.146 348.761 792.818 345.924 786.969 336.576C781.12 327.228 783.958 314.909 793.313 309.064C802.667 303.219 814.995 306.055 820.845 315.403Z" stroke="#21412C" stroke-width="1.29" stroke-miterlimit="10"/>
<path d="M847.193 304.768C854.226 316.009 850.81 330.821 839.561 337.848C828.311 344.876 813.49 341.463 806.457 330.222C799.424 318.981 802.839 304.169 814.089 297.141C825.338 290.114 840.16 293.526 847.193 304.768Z" fill="currentColor"/>
<path d="M847.193 304.768C854.226 316.009 850.81 330.821 839.561 337.849C828.311 344.876 813.49 341.463 806.457 330.222C799.424 318.981 802.839 304.169 814.089 297.141C825.338 290.114 840.16 293.526 847.193 304.768Z" stroke="#21412C" stroke-width="1.29" stroke-miterlimit="10"/>
<path d="M873.55 294.125C881.766 307.253 877.774 324.556 864.637 332.774C851.493 340.984 834.184 336.995 825.96 323.868C817.744 310.74 821.736 293.437 834.873 285.219C848.017 277.009 865.326 280.998 873.55 294.125Z" fill="currentColor"/>
<path d="M873.55 294.125C881.766 307.253 877.774 324.556 864.637 332.774C851.493 340.984 834.184 336.995 825.96 323.868C817.744 310.74 821.736 293.437 834.873 285.219C848.017 277.009 865.326 280.998 873.55 294.125Z" stroke="#21412C" stroke-width="1.29" stroke-miterlimit="10"/>
<path d="M899.898 283.482C909.297 298.503 904.736 318.299 889.704 327.692C874.673 337.085 854.862 332.527 845.463 317.506C836.063 302.485 840.625 282.689 855.656 273.296C870.688 263.903 890.498 268.461 899.898 283.482Z" fill="currentColor"/>
<path d="M899.898 283.482C909.297 298.503 904.736 318.299 889.704 327.692C874.673 337.085 854.862 332.527 845.463 317.506C836.063 302.485 840.625 282.689 855.656 273.296C870.688 263.903 890.498 268.461 899.898 283.482Z" stroke="#21412C" stroke-width="1.29" stroke-miterlimit="10"/>
<path d="M926.254 272.84C936.837 289.754 931.699 312.043 914.772 322.618C897.846 333.193 875.541 328.059 864.958 311.144C854.376 294.23 859.514 271.942 876.44 261.366C893.367 250.791 915.663 255.925 926.254 272.84Z" fill="currentColor"/>
<path d="M926.254 272.84C936.837 289.754 931.699 312.043 914.772 322.618C897.846 333.193 875.541 328.059 864.958 311.144C854.376 294.23 859.514 271.942 876.44 261.366C893.367 250.791 915.663 255.925 926.254 272.84Z" stroke="#21412C" stroke-width="1.29" stroke-miterlimit="10"/>
<path d="M952.61 262.197C964.376 280.998 958.661 305.778 939.847 317.536C921.033 329.294 896.235 323.583 884.469 304.783C872.703 285.982 878.417 261.202 897.231 249.444C916.045 237.686 940.844 243.396 952.61 262.197Z" fill="currentColor"/>
<path d="M952.61 262.197C964.376 280.998 958.661 305.778 939.847 317.536C921.033 329.294 896.235 323.583 884.469 304.783C872.703 285.982 878.417 261.202 897.231 249.444C916.045 237.686 940.844 243.396 952.61 262.197Z" stroke="#21412C" stroke-width="1.29" stroke-miterlimit="10"/>
<path d="M978.959 251.562C991.908 272.256 985.625 299.529 964.908 312.469C944.199 325.41 916.907 319.13 903.958 298.429C891.008 277.734 897.292 250.462 918.008 237.521C938.717 224.581 966.009 230.86 978.959 251.562Z" fill="currentColor"/>
<path d="M978.959 251.562C991.908 272.256 985.625 299.529 964.908 312.469C944.199 325.41 916.907 319.13 903.958 298.429C891.008 277.734 897.292 250.462 918.008 237.521C938.717 224.581 966.009 230.86 978.959 251.562Z" stroke="#21412C" stroke-width="1.29" stroke-miterlimit="10"/>
<path d="M1005.31 240.919C1019.45 263.507 1012.59 293.264 989.983 307.395C967.38 321.525 937.601 314.662 923.46 292.074C909.327 269.487 916.188 239.729 938.792 225.599C961.395 211.476 991.174 218.332 1005.31 240.919" fill="currentColor"/>
<path d="M1005.31 240.919C1019.45 263.507 1012.59 293.264 989.983 307.395C967.38 321.525 937.601 314.662 923.46 292.074C909.327 269.487 916.188 239.729 938.792 225.599C961.395 211.476 991.174 218.332 1005.31 240.919H1005.31Z" stroke="#21412C" stroke-width="1.29" stroke-miterlimit="10"/>
<path d="M1031.66 230.277C1046.98 254.758 1039.54 287.008 1015.05 302.313C990.561 317.618 958.28 310.186 942.964 285.713C927.648 261.232 935.085 228.982 959.576 213.676C984.067 198.371 1016.35 205.803 1031.66 230.277Z" fill="currentColor"/>
<path d="M1002.72 307.995C1030.33 299.497 1045.81 270.243 1037.31 242.654C1028.81 215.065 999.531 199.588 971.923 208.086C944.314 216.584 928.827 245.839 937.331 273.428C945.835 301.017 975.11 316.493 1002.72 307.995Z" stroke="#21412C" stroke-width="1.29" stroke-miterlimit="10"/>
<path d="M1028.85 213.078C1044.16 237.559 1036.73 269.809 1012.24 285.114C987.744 300.419 955.464 292.988 940.147 268.514C924.831 244.033 932.268 211.783 956.76 196.477C981.251 181.172 1013.53 188.604 1028.85 213.078Z" fill="currentColor"/>
<path d="M999.891 290.802C1027.5 282.304 1042.99 253.049 1034.48 225.46C1025.98 197.871 996.704 182.395 969.095 190.893C941.487 199.391 925.999 228.646 934.503 256.235C943.008 283.824 972.283 299.3 999.891 290.802Z" stroke="#21412C" stroke-width="1.29" stroke-miterlimit="10"/>
<path d="M1026.02 195.879C1041.34 220.36 1033.9 252.61 1009.41 267.915C984.921 283.221 952.641 275.789 937.324 251.315C922.008 226.834 929.445 194.584 953.936 179.278C978.427 163.973 1010.71 171.405 1026.02 195.879Z" fill="currentColor"/>
<path d="M997.07 273.601C1024.68 265.103 1040.17 235.849 1031.66 208.26C1023.16 180.671 993.883 165.195 966.274 173.693C938.666 182.191 923.178 211.445 931.682 239.034C940.186 266.623 969.462 282.099 997.07 273.601Z" stroke="#21412C" stroke-width="1.29" stroke-miterlimit="10"/>
<path d="M1023.21 178.687C1038.52 203.168 1031.09 235.418 1006.6 250.724C982.097 266.029 949.824 258.597 934.508 234.123C919.191 209.642 926.629 177.392 951.12 162.087C975.611 146.782 1007.89 154.213 1023.21 178.687Z" fill="currentColor"/>
<path d="M1023.21 178.687C1038.52 203.168 1031.09 235.418 1006.6 250.724C982.097 266.029 949.824 258.597 934.508 234.123C919.191 209.642 926.629 177.392 951.12 162.087C975.611 146.782 1007.89 154.213 1023.21 178.687Z" stroke="#21412C" stroke-width="1.29" stroke-miterlimit="10"/>
<path d="M1020.38 161.488C1035.7 185.969 1028.26 218.219 1003.77 233.525C979.273 248.83 947 241.398 931.684 216.924C916.367 192.451 923.805 160.193 948.296 144.888C972.787 129.583 1005.07 137.014 1020.38 161.488Z" fill="currentColor"/>
<path d="M1020.38 161.488C1035.7 185.969 1028.26 218.219 1003.77 233.525C979.273 248.83 947 241.398 931.684 216.924C916.367 192.451 923.805 160.193 948.296 144.888C972.787 129.583 1005.07 137.014 1020.38 161.488Z" stroke="#21412C" stroke-width="1.29" stroke-miterlimit="10"/>
<path d="M1017.57 144.289C1032.88 168.77 1025.45 201.02 1000.96 216.326C976.457 231.631 944.185 224.199 928.868 199.726C913.552 175.252 920.989 142.994 945.48 127.689C969.971 112.384 1002.25 119.816 1017.57 144.289Z" fill="currentColor"/>
<path d="M1017.57 144.289C1032.88 168.77 1025.45 201.02 1000.96 216.326C976.457 231.631 944.185 224.199 928.868 199.726C913.552 175.252 920.989 142.994 945.48 127.689C969.971 112.384 1002.25 119.816 1017.57 144.289Z" stroke="#21412C" stroke-width="1.29" stroke-miterlimit="10"/>
<path d="M1014.74 127.09C1030.06 151.571 1022.62 183.821 998.133 199.127C973.634 214.432 941.361 207 926.045 182.527C910.729 158.053 918.166 125.795 942.657 110.49C967.148 95.1847 999.428 102.617 1014.74 127.09Z" fill="currentColor"/>
<path d="M985.799 204.81C1013.41 196.312 1028.89 167.058 1020.39 139.469C1011.89 111.88 982.611 96.4032 955.003 104.901C927.394 113.399 911.907 142.654 920.411 170.243C928.915 197.832 958.19 213.308 985.799 204.81Z" stroke="#21412C" stroke-width="1.29" stroke-miterlimit="10"/>
<path d="M1011.93 109.899C1027.24 134.38 1019.81 166.63 995.316 181.935C970.825 197.241 938.545 189.809 923.229 165.335C907.912 140.854 915.349 108.604 939.841 93.2986C964.332 77.9932 996.612 85.4251 1011.93 109.899Z" fill="currentColor"/>
<path d="M982.977 187.615C1010.59 179.117 1026.07 149.862 1017.57 122.273C1009.07 94.6844 979.79 79.2081 952.181 87.7061C924.573 96.2041 909.085 125.458 917.589 153.047C926.094 180.637 955.369 196.113 982.977 187.615Z" stroke="#21412C" stroke-width="1.29" stroke-miterlimit="10"/>
<path d="M1009.1 92.6999C1024.42 117.181 1016.98 149.431 992.492 164.736C968.001 180.042 935.721 172.61 920.404 148.136C905.088 123.655 912.525 91.4051 937.016 76.0997C961.508 60.7943 993.788 68.2262 1009.1 92.6999Z" fill="currentColor"/>
<path d="M980.155 170.414C1007.76 161.916 1023.25 132.662 1014.75 105.073C1006.24 77.4839 976.968 62.0076 949.359 70.5057C921.75 79.0037 906.263 108.258 914.767 135.847C923.271 163.436 952.546 178.912 980.155 170.414Z" stroke="#21412C" stroke-width="1.29" stroke-miterlimit="10"/>
<path d="M1006.28 75.5009C1021.6 99.9821 1014.16 132.232 989.669 147.537C965.178 162.843 932.897 155.411 917.581 130.937C902.265 106.456 909.702 74.2061 934.193 58.9007C958.684 43.5953 990.965 51.0272 1006.28 75.5009Z" fill="currentColor"/>
<path d="M977.341 153.212C1004.95 144.714 1020.44 115.459 1011.93 87.8703C1003.43 60.2813 974.153 44.805 946.545 53.303C918.936 61.8011 903.449 91.0554 911.953 118.644C920.457 146.233 949.732 161.71 977.341 153.212Z" stroke="#21412C" stroke-width="1.29" stroke-miterlimit="10"/>
<path d="M982.284 75.5309C996.739 98.7172 990.485 129.807 968.323 144.978C946.154 160.148 916.472 153.645 902.017 130.458C887.562 107.272 893.816 76.182 915.978 61.0113C938.147 45.8406 967.829 52.3445 982.291 75.5309" fill="currentColor"/>
<path d="M982.284 75.5309C996.739 98.7172 990.485 129.807 968.323 144.978C946.154 160.148 916.472 153.645 902.017 130.458C887.562 107.272 893.816 76.182 915.978 61.0113C938.147 45.8406 967.829 52.3445 982.291 75.5309H982.284Z" stroke="#21412C" stroke-width="1.29" stroke-miterlimit="10"/>
<path d="M958.287 75.5608C971.88 97.4599 966.817 127.39 946.977 142.418C927.137 157.447 900.04 151.871 886.446 129.979C872.852 108.08 877.915 78.1503 897.755 63.1218C917.595 48.0933 944.693 53.6692 958.287 75.5608Z" fill="currentColor"/>
<path d="M958.287 75.5608C971.88 97.4599 966.817 127.39 946.977 142.418C927.137 157.447 900.04 151.871 886.446 129.979C872.852 108.08 877.915 78.1503 897.755 63.1218C917.595 48.0933 944.693 53.6692 958.287 75.5608Z" stroke="#21412C" stroke-width="1.29" stroke-miterlimit="10"/>
<path d="M934.291 75.5907C947.016 96.195 943.144 124.972 925.633 139.859C908.122 154.745 883.609 150.105 870.884 129.5C858.159 108.896 862.031 80.1187 879.542 65.2324C897.052 50.3461 921.566 54.9864 934.291 75.5907Z" fill="currentColor"/>
<path d="M934.291 75.5907C947.016 96.195 943.144 124.972 925.633 139.859C908.122 154.745 883.609 150.105 870.884 129.5C858.159 108.896 862.031 80.1187 879.542 65.2324C897.052 50.3461 921.566 54.9864 934.291 75.5907Z" stroke="#21412C" stroke-width="1.29" stroke-miterlimit="10"/>
<path d="M910.293 75.6207C922.157 94.9377 919.468 122.547 904.287 137.291C889.105 152.036 867.183 148.331 855.312 129.014C843.448 109.697 846.137 82.0871 861.318 67.343C876.5 52.5989 898.43 56.3037 910.293 75.6207Z" fill="currentColor"/>
<path d="M910.293 75.6207C922.157 94.9377 919.468 122.547 904.287 137.291C889.105 152.036 867.183 148.331 855.312 129.014C843.448 109.697 846.137 82.0871 861.318 67.343C876.5 52.5989 898.43 56.3037 910.293 75.6207Z" stroke="#21412C" stroke-width="1.29" stroke-miterlimit="10"/>
<path d="M886.297 75.6506C897.3 93.6803 895.794 120.13 882.942 134.732C870.09 149.334 850.751 146.557 839.749 128.535C828.747 110.505 830.252 84.0555 843.105 69.4536C855.957 54.8517 875.295 57.6284 886.297 75.6506Z" fill="currentColor"/>
<path d="M886.297 75.6506C897.3 93.6803 895.794 120.13 882.942 134.732C870.09 149.334 850.751 146.557 839.749 128.535C828.747 110.505 830.252 84.0555 843.105 69.4536C855.957 54.8517 875.295 57.6284 886.297 75.6506Z" stroke="#21412C" stroke-width="1.29" stroke-miterlimit="10"/>
<path d="M862.3 75.6806C872.441 92.4155 872.126 117.712 861.596 132.172C851.065 146.632 834.318 144.791 824.185 128.048C814.044 111.313 814.358 86.0164 824.889 71.5567C835.412 57.097 852.166 58.9382 862.3 75.6806Z" fill="currentColor"/>
<path d="M862.3 75.6806C872.441 92.4155 872.126 117.712 861.596 132.172C851.065 146.632 834.318 144.791 824.185 128.048C814.044 111.313 814.358 86.0164 824.889 71.5567C835.412 57.097 852.166 58.9382 862.3 75.6806Z" stroke="#21412C" stroke-width="1.29" stroke-miterlimit="10"/>
<path d="M838.303 75.7105C847.575 91.1581 848.451 115.288 840.25 129.613C832.056 143.937 817.893 143.024 808.614 127.577C799.342 112.129 798.465 87.9998 806.667 73.6748C814.86 59.3498 829.023 60.2629 838.303 75.7105Z" fill="currentColor"/>
<path d="M838.303 75.7105C847.575 91.1581 848.451 115.288 840.25 129.613C832.056 143.937 817.893 143.024 808.614 127.577C799.342 112.129 798.465 87.9998 806.667 73.6748C814.86 59.3498 829.023 60.2629 838.303 75.7105Z" stroke="#21412C" stroke-width="1.29" stroke-miterlimit="10"/>
<path d="M814.299 75.7404C822.71 89.9007 824.77 112.87 818.905 127.053C813.034 141.236 801.462 141.251 793.051 127.09C784.64 112.93 782.581 89.9606 788.445 75.7778C794.317 61.595 805.888 61.5801 814.299 75.7404Z" fill="currentColor"/>
<path d="M814.299 75.7404C822.71 89.9007 824.77 112.87 818.905 127.053C813.034 141.236 801.462 141.251 793.051 127.09C784.64 112.93 782.581 89.9606 788.445 75.7778C794.317 61.595 805.888 61.5801 814.299 75.7404Z" stroke="#21412C" stroke-width="1.29" stroke-miterlimit="10"/>
<path d="M770.229 77.8959C773.772 63.8553 782.759 62.9048 790.309 75.7704C797.859 88.6359 801.102 110.453 797.566 124.493C794.024 138.534 785.036 139.484 777.494 126.619C769.945 113.753 766.702 91.9365 770.237 77.8959" fill="currentColor"/>
<path d="M770.229 77.8959C773.772 63.8553 782.759 62.9048 790.309 75.7704C797.859 88.6359 801.102 110.453 797.566 124.493C794.024 138.534 785.036 139.484 777.494 126.619C769.945 113.753 766.702 91.9365 770.237 77.8959H770.229Z" stroke="#21412C" stroke-width="1.29" stroke-miterlimit="10"/>
<path d="M827.383 485.634C832.154 493.26 829.84 503.304 822.208 508.072C814.583 512.839 804.525 510.527 799.754 502.9C794.983 495.281 797.297 485.23 804.929 480.462C812.554 475.695 822.612 478.007 827.383 485.634Z" fill="currentColor"/>
<path d="M827.383 485.634C832.154 493.26 829.84 503.304 822.208 508.072C814.583 512.839 804.525 510.527 799.754 502.9C794.983 495.281 797.297 485.23 804.929 480.462C812.554 475.695 822.612 478.007 827.383 485.634Z" stroke="#21412C" stroke-width="1.29" stroke-miterlimit="10"/>
<path d="M823.054 462.298C829.031 471.855 826.133 484.444 816.568 490.424C807.004 496.404 794.406 493.5 788.422 483.942C782.446 474.385 785.344 461.796 794.908 455.816C804.473 449.844 817.07 452.74 823.054 462.298Z" fill="currentColor"/>
<path d="M823.054 462.298C829.031 471.855 826.133 484.444 816.568 490.424C807.004 496.404 794.406 493.5 788.422 483.942C782.446 474.385 785.344 461.796 794.908 455.816C804.473 449.844 817.07 452.74 823.054 462.298Z" stroke="#21412C" stroke-width="1.29" stroke-miterlimit="10"/>
<path d="M818.725 438.969C825.915 450.457 822.425 465.598 810.928 472.783C799.432 479.968 784.28 476.48 777.09 464.992C769.9 453.504 773.39 438.363 784.887 431.178C796.383 423.993 811.535 427.481 818.725 438.969Z" fill="currentColor"/>
<path d="M818.725 438.969C825.915 450.457 822.425 465.598 810.928 472.783C799.432 479.968 784.28 476.48 777.09 464.992C769.9 453.504 773.39 438.363 784.887 431.178C796.383 423.993 811.535 427.481 818.725 438.969Z" stroke="#21412C" stroke-width="1.29" stroke-miterlimit="10"/>
<path d="M814.396 415.633C822.792 429.052 818.718 446.738 805.289 455.135C791.86 463.525 774.162 459.454 765.758 446.034C757.362 432.615 761.437 414.929 774.866 406.532C788.295 398.142 805.993 402.214 814.396 415.633Z" fill="currentColor"/>
<path d="M814.396 415.633C822.792 429.052 818.718 446.738 805.289 455.135C791.86 463.525 774.162 459.454 765.758 446.034C757.362 432.615 761.437 414.929 774.866 406.532C788.295 398.142 805.993 402.214 814.396 415.633Z" stroke="#21412C" stroke-width="1.29" stroke-miterlimit="10"/>
<path d="M810.067 392.297C819.676 407.647 815.01 427.885 799.641 437.487C784.272 447.09 764.028 442.427 754.419 427.069C744.81 411.711 749.476 391.481 764.844 381.879C780.213 372.276 800.458 376.939 810.067 392.297Z" fill="currentColor"/>
<path d="M810.067 392.297C819.676 407.647 815.01 427.885 799.641 437.487C784.272 447.09 764.028 442.427 754.419 427.069C744.81 411.711 749.476 391.481 764.844 381.879C780.213 372.276 800.458 376.939 810.067 392.297Z" stroke="#21412C" stroke-width="1.29" stroke-miterlimit="10"/>
<path d="M805.738 368.968C816.553 386.257 811.303 409.032 794.002 419.847C776.701 430.661 753.91 425.407 743.087 408.119C732.272 390.83 737.522 368.055 754.823 357.24C772.124 346.426 794.915 351.68 805.738 368.968Z" fill="currentColor"/>
<path d="M805.738 368.968C816.553 386.257 811.303 409.032 794.002 419.847C776.701 430.661 753.91 425.407 743.087 408.119C732.272 390.83 737.522 368.055 754.823 357.24C772.124 346.426 794.915 351.68 805.738 368.968Z" stroke="#21412C" stroke-width="1.29" stroke-miterlimit="10"/>
<path d="M801.409 345.632C813.438 364.852 807.596 390.179 788.362 402.199C769.129 414.218 743.784 408.381 731.756 389.161C719.727 369.941 725.569 344.614 744.803 332.595C764.036 320.575 789.381 326.413 801.409 345.632Z" fill="currentColor"/>
<path d="M801.409 345.632C813.438 364.852 807.596 390.179 788.362 402.199C769.129 414.218 743.784 408.381 731.756 389.161C719.727 369.941 725.569 344.614 744.803 332.595C764.036 320.575 789.381 326.413 801.409 345.632Z" stroke="#21412C" stroke-width="1.29" stroke-miterlimit="10"/>
<path d="M797.08 322.304C810.322 343.454 803.889 371.326 782.723 384.558C761.557 397.783 733.666 391.361 720.424 370.211C707.19 349.06 713.616 321.188 734.782 307.956C755.947 294.724 783.839 301.153 797.08 322.304Z" fill="currentColor"/>
<path d="M797.08 322.304C810.322 343.454 803.889 371.326 782.723 384.558C761.557 397.783 733.666 391.361 720.424 370.211C707.19 349.06 713.616 321.188 734.782 307.956C755.947 294.724 783.839 301.153 797.08 322.304Z" stroke="#21412C" stroke-width="1.29" stroke-miterlimit="10"/>
<path d="M792.751 298.968C807.198 322.049 800.181 352.473 777.083 366.91C753.985 381.347 723.539 374.335 709.092 351.253C694.644 328.164 701.662 297.748 724.76 283.31C747.858 268.873 778.303 275.886 792.751 298.968Z" fill="currentColor"/>
<path d="M785.805 359.972C805.072 340.72 805.071 309.505 785.805 290.253C766.539 271 735.302 271 716.036 290.253C696.77 309.505 696.77 340.72 716.036 359.972C735.302 379.225 766.539 379.225 785.805 359.972Z" stroke="#21412C" stroke-width="1.29" stroke-miterlimit="10"/>
<path d="M788.422 275.631C804.083 300.652 796.473 333.612 771.443 349.262C746.405 364.904 713.421 357.308 697.76 332.295C682.107 307.275 689.709 274.314 714.739 258.665C739.777 243.022 772.761 250.619 788.422 275.631Z" fill="currentColor"/>
<path d="M788.422 275.631C804.083 300.652 796.473 333.612 771.443 349.262C746.405 364.904 713.421 357.308 697.76 332.295C682.107 307.275 689.709 274.314 714.739 258.665C739.777 243.022 772.761 250.619 788.422 275.631Z" stroke="#21412C" stroke-width="1.29" stroke-miterlimit="10"/>
<path d="M797.17 253.508C814.531 278.169 807.154 309.992 780.693 324.601C754.232 339.211 718.709 331.06 701.34 306.407C683.979 281.746 691.357 249.923 717.818 235.313C744.279 220.704 779.802 228.854 797.17 253.508Z" fill="currentColor"/>
<path d="M797.17 253.508C814.531 278.169 807.154 309.992 780.693 324.601C754.232 339.211 718.709 331.06 701.34 306.407C683.979 281.746 691.357 249.923 717.818 235.313C744.279 220.704 779.802 228.854 797.17 253.508Z" stroke="#21412C" stroke-width="1.29" stroke-miterlimit="10"/>
<path d="M805.926 231.377C824.994 255.671 817.842 286.364 789.958 299.933C762.074 313.502 724.004 304.805 704.943 280.504C685.882 256.202 693.027 225.516 720.911 211.947C748.795 198.378 786.857 207.075 805.926 231.377Z" fill="currentColor"/>
<path d="M805.926 231.377C824.994 255.671 817.842 286.364 789.958 299.933C762.074 313.502 724.004 304.805 704.943 280.504C685.882 256.202 693.027 225.516 720.911 211.947C748.795 198.378 786.857 207.075 805.926 231.377Z" stroke="#21412C" stroke-width="1.29" stroke-miterlimit="10"/>
<path d="M814.673 209.253C835.449 233.188 828.521 262.743 799.214 275.272C769.9 287.801 729.298 278.55 708.53 254.615C687.753 230.681 694.681 201.125 723.988 188.596C753.303 176.068 793.904 185.318 814.673 209.246" fill="currentColor"/>
<path d="M814.673 209.253C835.449 233.188 828.521 262.743 799.214 275.272C769.9 287.801 729.298 278.55 708.53 254.615C687.753 230.681 694.681 201.125 723.988 188.596C753.303 176.068 793.904 185.318 814.673 209.246V209.253Z" stroke="#21412C" stroke-width="1.29" stroke-miterlimit="10"/>
<path d="M823.421 187.129C845.898 210.705 839.202 239.123 808.464 250.611C777.727 262.1 734.586 252.303 712.11 228.727C689.634 205.152 696.329 176.734 727.067 165.245C757.804 153.757 800.945 163.554 823.421 187.129Z" fill="currentColor"/>
<path d="M823.421 187.129C845.898 210.705 839.202 239.123 808.464 250.611C777.727 262.1 734.586 252.303 712.11 228.727C689.634 205.152 696.329 176.734 727.067 165.245C757.804 153.757 800.945 163.554 823.421 187.129Z" stroke="#21412C" stroke-width="1.29" stroke-miterlimit="10"/>
<path d="M832.176 164.998C856.36 188.207 849.889 215.495 817.729 225.951C785.568 236.399 739.889 226.055 715.705 202.839C691.521 179.623 697.992 152.342 730.152 141.887C762.313 131.439 807.992 141.782 832.176 164.998Z" fill="currentColor"/>
<path d="M832.176 164.998C856.36 188.207 849.889 215.495 817.729 225.951C785.568 236.399 739.889 226.055 715.705 202.839C691.521 179.623 697.992 152.342 730.152 141.887C762.313 131.439 807.992 141.782 832.176 164.998Z" stroke="#21412C" stroke-width="1.29" stroke-miterlimit="10"/>
<path d="M840.925 142.875C866.816 165.724 860.57 191.874 826.986 201.29C793.403 210.697 745.184 199.808 719.293 176.951C693.401 154.094 699.647 127.943 733.231 118.536C766.822 109.128 815.033 120.025 840.925 142.875Z" fill="currentColor"/>
<path d="M840.925 142.875C866.816 165.724 860.57 191.874 826.986 201.29C793.403 210.697 745.184 199.808 719.293 176.951C693.401 154.094 699.647 127.943 733.231 118.536C766.822 109.128 815.033 120.025 840.925 142.875Z" stroke="#21412C" stroke-width="1.29" stroke-miterlimit="10"/>
<path d="M849.68 120.744C877.272 143.234 871.258 168.246 836.244 176.621C801.23 184.989 750.48 173.545 722.881 151.055C695.289 128.565 701.303 103.545 736.31 95.1771C771.324 86.8097 822.073 98.2532 849.673 120.744" fill="currentColor"/>
<path d="M849.68 120.744C877.272 143.234 871.258 168.246 836.244 176.621C801.23 184.989 750.48 173.545 722.881 151.055C695.289 128.565 701.303 103.545 736.31 95.1771C771.324 86.8097 822.073 98.2532 849.673 120.744H849.68Z" stroke="#21412C" stroke-width="1.29" stroke-miterlimit="10"/>
<path d="M858.428 98.62C887.728 120.751 881.938 144.633 845.501 151.961C809.064 159.288 755.775 147.298 726.468 125.167C697.168 103.036 702.958 79.1533 739.395 71.8261C775.832 64.4915 829.129 76.4889 858.428 98.62Z" fill="currentColor"/>
<path d="M858.428 98.62C887.728 120.751 881.938 144.633 845.501 151.961C809.064 159.288 755.775 147.298 726.468 125.167C697.168 103.036 702.958 79.1533 739.395 71.8261C775.832 64.4915 829.129 76.4889 858.428 98.62Z" stroke="#21412C" stroke-width="1.29" stroke-miterlimit="10"/>
<path d="M867.176 76.4963C898.183 98.2607 892.618 121.013 854.758 127.3C816.898 133.594 761.063 121.05 730.063 99.2786C699.056 77.5142 704.621 54.7619 742.481 48.475C780.341 42.1807 836.177 54.7319 867.176 76.4963Z" fill="currentColor"/>
<path d="M867.176 76.4963C898.183 98.2607 892.618 121.013 854.758 127.3C816.898 133.594 761.063 121.05 730.063 99.2786C699.056 77.5142 704.621 54.7619 742.481 48.475C780.341 42.1807 836.177 54.7319 867.176 76.4963Z" stroke="#21412C" stroke-width="1.29" stroke-miterlimit="10"/>
<path d="M1140.48 275.22C1145.25 282.839 1142.94 292.89 1135.31 297.658C1127.68 302.425 1117.62 300.113 1112.85 292.486C1108.08 284.867 1110.4 274.816 1118.03 270.048C1125.65 265.281 1135.71 267.593 1140.48 275.22Z" fill="currentColor"/>
<path d="M1140.48 275.22C1145.25 282.839 1142.94 292.89 1135.31 297.658C1127.68 302.425 1117.62 300.113 1112.85 292.486C1108.08 284.867 1110.4 274.816 1118.03 270.048C1125.65 265.281 1135.71 267.593 1140.48 275.22Z" stroke="#21412C" stroke-width="1.29" stroke-miterlimit="10"/>
<path d="M1165.5 271.47C1171.85 281.626 1168.76 295.001 1158.61 301.348C1148.45 307.694 1135.06 304.611 1128.71 294.462C1122.36 284.313 1125.44 270.931 1135.6 264.585C1145.76 258.238 1159.14 261.321 1165.5 271.47Z" fill="currentColor"/>
<path d="M1165.5 271.47C1171.85 281.626 1168.76 295.001 1158.61 301.348C1148.45 307.694 1135.06 304.611 1128.71 294.462C1122.36 284.313 1125.44 270.931 1135.6 264.585C1145.76 258.238 1159.14 261.321 1165.5 271.47Z" stroke="#21412C" stroke-width="1.29" stroke-miterlimit="10"/>
<path d="M1190.51 267.721C1198.45 280.399 1194.59 297.111 1181.91 305.037C1169.22 312.971 1152.49 309.116 1144.56 296.438C1136.62 283.759 1140.48 267.047 1153.17 259.121C1165.86 251.188 1182.58 255.042 1190.51 267.721Z" fill="currentColor"/>
<path d="M1190.51 267.721C1198.45 280.399 1194.59 297.111 1181.91 305.037C1169.22 312.971 1152.49 309.116 1144.56 296.438C1136.62 283.759 1140.48 267.047 1153.17 259.121C1165.86 251.188 1182.58 255.042 1190.51 267.721Z" stroke="#21412C" stroke-width="1.29" stroke-miterlimit="10"/>
<path d="M1215.53 263.971C1225.05 279.179 1220.42 299.222 1205.2 308.734C1189.98 318.247 1169.92 313.629 1160.4 298.421C1150.88 283.213 1155.5 263.17 1170.72 253.657C1185.94 244.145 1206 248.763 1215.52 263.971" fill="currentColor"/>
<path d="M1215.53 263.971C1225.05 279.179 1220.42 299.222 1205.2 308.734C1189.98 318.247 1169.92 313.629 1160.4 298.421C1150.88 283.213 1155.5 263.17 1170.72 253.657C1185.94 244.145 1206 248.763 1215.52 263.971H1215.53Z" stroke="#21412C" stroke-width="1.29" stroke-miterlimit="10"/>
<path d="M1240.54 260.221C1251.64 277.959 1246.25 301.332 1228.5 312.424C1210.75 323.516 1187.36 318.127 1176.26 300.389C1165.16 282.652 1170.55 259.278 1188.3 248.186C1206.05 237.095 1229.44 242.483 1240.54 260.221Z" fill="currentColor"/>
<path d="M1240.54 260.221C1251.64 277.959 1246.25 301.332 1228.5 312.424C1210.75 323.516 1187.36 318.127 1176.26 300.389C1165.16 282.652 1170.55 259.278 1188.3 248.186C1206.05 237.095 1229.44 242.483 1240.54 260.221Z" stroke="#21412C" stroke-width="1.29" stroke-miterlimit="10"/>
<path d="M1265.56 256.472C1278.25 276.739 1272.09 303.443 1251.81 316.121C1231.52 328.8 1204.8 322.64 1192.11 302.373C1179.43 282.105 1185.59 255.401 1205.87 242.723C1226.15 230.052 1252.88 236.204 1265.56 256.472Z" fill="currentColor"/>
<path d="M1265.56 256.472C1278.25 276.739 1272.09 303.443 1251.81 316.121C1231.52 328.8 1204.8 322.64 1192.11 302.373C1179.43 282.105 1185.59 255.401 1205.87 242.723C1226.15 230.052 1252.88 236.204 1265.56 256.472Z" stroke="#21412C" stroke-width="1.29" stroke-miterlimit="10"/>
<path d="M1290.58 252.722C1304.85 275.519 1297.92 305.554 1275.11 319.811C1252.29 334.069 1222.24 327.146 1207.97 304.349C1193.7 281.552 1200.63 251.517 1223.44 237.259C1246.26 223.002 1276.31 229.925 1290.58 252.722Z" fill="currentColor"/>
<path d="M1290.58 252.722C1304.85 275.519 1297.92 305.554 1275.11 319.811C1252.29 334.069 1222.24 327.146 1207.97 304.349C1193.7 281.552 1200.63 251.517 1223.44 237.259C1246.26 223.002 1276.31 229.925 1290.58 252.722Z" stroke="#21412C" stroke-width="1.29" stroke-miterlimit="10"/>
<path d="M1315.6 248.972C1331.44 274.299 1323.75 307.664 1298.41 323.509C1273.06 339.345 1239.67 331.659 1223.82 306.332C1207.97 281.005 1215.66 247.633 1241.01 231.796C1266.35 215.959 1299.75 223.645 1315.6 248.972Z" fill="currentColor"/>
<path d="M1300.83 321.862C1325.28 304.681 1331.17 270.942 1313.97 246.505C1296.78 222.068 1263.02 216.186 1238.56 233.367C1214.11 250.548 1208.22 284.286 1225.42 308.724C1242.61 333.161 1276.37 339.043 1300.83 321.862Z" stroke="#21412C" stroke-width="1.29" stroke-miterlimit="10"/>
<path d="M1340.61 245.223C1358.05 273.079 1349.58 309.782 1321.71 327.198C1293.83 344.622 1257.1 336.157 1239.67 308.308C1222.24 280.451 1230.71 243.748 1258.58 226.332C1286.45 208.909 1323.18 217.374 1340.61 245.223Z" fill="currentColor"/>
<path d="M1340.61 245.223C1358.05 273.079 1349.58 309.782 1321.71 327.198C1293.83 344.622 1257.1 336.157 1239.67 308.308C1222.24 280.451 1230.71 243.748 1258.58 226.332C1286.45 208.909 1323.18 217.374 1340.61 245.223Z" stroke="#21412C" stroke-width="1.29" stroke-miterlimit="10"/>
<path d="M1365.63 241.473C1384.64 271.859 1375.41 311.893 1345 330.896C1314.59 349.898 1274.53 340.67 1255.51 310.284C1236.5 279.897 1245.73 239.864 1276.14 220.861C1306.55 201.859 1346.61 211.087 1365.63 241.473Z" fill="currentColor"/>
<path d="M1365.63 241.473C1384.64 271.859 1375.41 311.893 1345 330.896C1314.59 349.898 1274.53 340.67 1255.51 310.284C1236.5 279.897 1245.73 239.864 1276.14 220.861C1306.55 201.859 1346.61 211.087 1365.63 241.473Z" stroke="#21412C" stroke-width="1.29" stroke-miterlimit="10"/>
<path d="M1361.6 223.294C1380.24 253.081 1371.18 292.329 1341.38 310.957C1311.57 329.586 1272.29 320.537 1253.65 290.75C1235.01 260.962 1244.06 221.714 1273.87 203.086C1303.68 184.458 1342.96 193.506 1361.6 223.294Z" fill="currentColor"/>
<path d="M1361.6 223.294C1380.24 253.081 1371.18 292.329 1341.38 310.957C1311.57 329.586 1272.29 320.537 1253.65 290.75C1235.01 260.962 1244.06 221.714 1273.87 203.086C1303.68 184.458 1342.96 193.506 1361.6 223.294Z" stroke="#21412C" stroke-width="1.29" stroke-miterlimit="10"/>
<path d="M1357.56 205.122C1375.83 234.31 1366.96 272.78 1337.74 291.034C1308.53 309.288 1270.04 300.427 1251.77 271.231C1233.5 242.042 1242.37 203.572 1271.59 185.318C1300.8 167.064 1339.29 175.925 1357.56 205.122Z" fill="currentColor"/>
<path d="M1357.56 205.122C1375.83 234.31 1366.96 272.78 1337.74 291.034C1308.53 309.288 1270.04 300.427 1251.77 271.231C1233.5 242.042 1242.37 203.572 1271.59 185.318C1300.8 167.064 1339.29 175.925 1357.56 205.122Z" stroke="#21412C" stroke-width="1.29" stroke-miterlimit="10"/>
<path d="M1353.52 186.95C1371.42 215.547 1362.73 253.223 1334.11 271.103C1305.49 288.983 1267.79 280.302 1249.9 251.704C1232 223.107 1240.69 185.431 1269.31 167.551C1297.93 149.67 1335.63 158.352 1353.52 186.95Z" fill="currentColor"/>
<path d="M1353.52 186.95C1371.42 215.547 1362.73 253.223 1334.11 271.103C1305.49 288.983 1267.79 280.302 1249.9 251.704C1232 223.107 1240.69 185.431 1269.31 167.551C1297.93 149.67 1335.63 158.352 1353.52 186.95Z" stroke="#21412C" stroke-width="1.29" stroke-miterlimit="10"/>
<path d="M1349.49 168.778C1367.02 196.777 1358.51 233.667 1330.49 251.18C1302.47 268.693 1265.55 260.191 1248.02 232.185C1230.5 204.186 1239.01 167.296 1267.03 149.783C1295.05 132.269 1331.97 140.779 1349.49 168.778Z" fill="currentColor"/>
<path d="M1349.49 168.778C1367.02 196.777 1358.51 233.667 1330.49 251.18C1302.47 268.693 1265.55 260.191 1248.02 232.185C1230.5 204.186 1239.01 167.296 1267.03 149.783C1295.05 132.269 1331.97 140.779 1349.49 168.778Z" stroke="#21412C" stroke-width="1.29" stroke-miterlimit="10"/>
<path d="M1345.46 150.606C1362.61 178.006 1354.28 214.118 1326.86 231.257C1299.44 248.396 1263.3 240.073 1246.15 212.666C1229 185.266 1237.33 149.154 1264.75 132.022C1292.17 114.883 1328.31 123.206 1345.46 150.613" fill="currentColor"/>
<path d="M1345.46 150.606C1362.61 178.006 1354.28 214.118 1326.86 231.257C1299.44 248.396 1263.3 240.073 1246.15 212.666C1229 185.266 1237.33 149.154 1264.75 132.022C1292.17 114.883 1328.31 123.206 1345.46 150.613V150.606Z" stroke="#21412C" stroke-width="1.29" stroke-miterlimit="10"/>
<path d="M1341.42 132.427C1358.2 159.235 1350.05 194.554 1323.22 211.319C1296.39 228.084 1261.05 219.941 1244.27 193.139C1227.5 166.331 1235.64 131.012 1262.46 114.247C1289.29 97.4823 1324.64 105.625 1341.41 132.427" fill="currentColor"/>
<path d="M1341.42 132.427C1358.2 159.235 1350.05 194.554 1323.22 211.319C1296.39 228.084 1261.05 219.941 1244.27 193.139C1227.5 166.331 1235.64 131.012 1262.46 114.247C1289.29 97.4823 1324.64 105.625 1341.41 132.427H1341.42Z" stroke="#21412C" stroke-width="1.29" stroke-miterlimit="10"/>
<path d="M1337.39 114.255C1353.79 140.465 1345.83 174.997 1319.6 191.396C1293.37 207.786 1258.81 199.83 1242.41 173.613C1226.01 147.403 1233.97 112.87 1260.2 96.472C1286.42 80.0813 1320.99 88.0372 1337.39 114.247" fill="currentColor"/>
<path d="M1337.39 114.255C1353.79 140.465 1345.83 174.997 1319.6 191.396C1293.37 207.786 1258.81 199.83 1242.41 173.613C1226.01 147.403 1233.97 112.87 1260.2 96.472C1286.42 80.0813 1320.99 88.0372 1337.39 114.247V114.255Z" stroke="#21412C" stroke-width="1.29" stroke-miterlimit="10"/>
<path d="M1333.35 96.0828C1349.38 121.694 1341.6 155.448 1315.97 171.465C1290.34 187.481 1256.56 179.705 1240.53 154.094C1224.51 128.482 1232.29 94.7281 1257.92 78.7117C1283.55 62.6953 1317.33 70.4715 1333.35 96.0828Z" fill="currentColor"/>
<path d="M1333.35 96.0828C1349.38 121.694 1341.6 155.448 1315.97 171.465C1290.34 187.481 1256.56 179.705 1240.53 154.094C1224.51 128.482 1232.29 94.7281 1257.92 78.7117C1283.55 62.6953 1317.33 70.4715 1333.35 96.0828Z" stroke="#21412C" stroke-width="1.29" stroke-miterlimit="10"/>
<path d="M1329.32 77.9109C1344.98 102.931 1337.37 135.892 1312.34 151.542C1287.3 167.184 1254.32 159.587 1238.65 134.575C1222.99 109.555 1230.6 76.5936 1255.63 60.9439C1280.67 45.3017 1313.66 52.8983 1329.32 77.9109Z" fill="currentColor"/>
<path d="M1329.32 77.9109C1344.98 102.931 1337.37 135.892 1312.34 151.542C1287.3 167.184 1254.32 159.587 1238.65 134.575C1222.99 109.555 1230.6 76.5936 1255.63 60.9439C1280.67 45.3017 1313.66 52.8983 1329.32 77.9109Z" stroke="#21412C" stroke-width="1.29" stroke-miterlimit="10"/>
<path d="M1304.79 77.9408C1319.57 101.644 1313.18 133.422 1290.52 148.922C1267.86 164.422 1237.52 157.776 1222.75 134.081C1207.97 110.385 1214.37 78.5994 1237.02 63.0994C1259.68 47.5994 1290.02 54.2455 1304.8 77.9408" fill="currentColor"/>
<path d="M1304.79 77.9408C1319.57 101.644 1313.18 133.422 1290.52 148.922C1267.86 164.422 1237.52 157.776 1222.75 134.081C1207.97 110.385 1214.37 78.5994 1237.02 63.0994C1259.68 47.5994 1290.02 54.2455 1304.8 77.9408H1304.79Z" stroke="#21412C" stroke-width="1.29" stroke-miterlimit="10"/>
<path d="M1280.26 77.9708C1294.15 100.349 1288.98 130.945 1268.7 146.303C1248.42 161.66 1220.72 155.965 1206.83 133.587C1192.94 111.209 1198.11 80.6127 1218.4 65.2549C1238.67 49.8971 1266.37 55.5927 1280.26 77.9708Z" fill="currentColor"/>
<path d="M1280.26 77.9708C1294.15 100.349 1288.98 130.945 1268.7 146.303C1248.42 161.66 1220.72 155.965 1206.83 133.587C1192.94 111.209 1198.11 80.6127 1218.4 65.2549C1238.67 49.8971 1266.37 55.5927 1280.26 77.9708Z" stroke="#21412C" stroke-width="1.29" stroke-miterlimit="10"/>
<path d="M1255.73 78.0007C1268.74 99.0616 1264.78 128.467 1246.88 143.683C1228.98 158.899 1203.92 154.154 1190.92 133.093C1177.91 112.032 1181.87 82.6185 1199.77 67.4104C1217.67 52.1948 1242.72 56.9398 1255.73 78.0007Z" fill="currentColor"/>
<path d="M1255.73 78.0007C1268.74 99.0616 1264.78 128.467 1246.88 143.683C1228.98 158.899 1203.92 154.154 1190.92 133.093C1177.91 112.032 1181.87 82.6185 1199.77 67.4104C1217.67 52.1948 1242.72 56.9398 1255.73 78.0007Z" stroke="#21412C" stroke-width="1.29" stroke-miterlimit="10"/>
<path d="M1231.21 78.0306C1243.34 97.7742 1240.59 125.998 1225.07 141.063C1209.55 156.137 1187.14 152.342 1175.01 132.599C1162.89 112.855 1165.64 84.6318 1181.16 69.5584C1196.68 54.4924 1219.08 58.2795 1231.21 78.0231" fill="currentColor"/>
<path d="M1231.21 78.0306C1243.34 97.7742 1240.59 125.998 1225.07 141.063C1209.55 156.137 1187.14 152.342 1175.01 132.599C1162.89 112.855 1165.64 84.6318 1181.16 69.5584C1196.68 54.4924 1219.08 58.2795 1231.21 78.0231V78.0306Z" stroke="#21412C" stroke-width="1.29" stroke-miterlimit="10"/>
<path d="M1206.68 78.0605C1217.92 96.4869 1216.39 123.52 1203.25 138.451C1190.11 153.375 1170.35 150.539 1159.11 132.112C1147.87 113.686 1149.4 86.6525 1162.54 71.7213C1175.67 56.7976 1195.44 59.6342 1206.68 78.0605Z" fill="currentColor"/>
<path d="M1206.68 78.0605C1217.92 96.4869 1216.39 123.52 1203.25 138.451C1190.11 153.375 1170.35 150.539 1159.11 132.112C1147.87 113.686 1149.4 86.6525 1162.54 71.7213C1175.67 56.7976 1195.44 59.6342 1206.68 78.0605Z" stroke="#21412C" stroke-width="1.29" stroke-miterlimit="10"/>
<path d="M1182.15 78.0905C1192.51 95.1996 1192.2 121.05 1181.43 135.832C1170.68 150.613 1153.56 148.727 1143.19 131.618C1132.83 114.509 1133.15 88.6583 1143.91 73.8768C1154.67 59.0953 1171.79 60.9813 1182.15 78.0905Z" fill="currentColor"/>
<path d="M1182.15 78.0905C1192.51 95.1996 1192.2 121.05 1181.43 135.832C1170.68 150.613 1153.56 148.727 1143.19 131.618C1132.83 114.509 1133.15 88.6583 1143.91 73.8768C1154.67 59.0953 1171.79 60.9813 1182.15 78.0905Z" stroke="#21412C" stroke-width="1.29" stroke-miterlimit="10"/>
<path d="M1157.62 78.1279C1167.11 93.9198 1168 118.581 1159.62 133.22C1151.24 147.859 1136.77 146.924 1127.28 131.139C1117.8 115.347 1116.91 90.6866 1125.29 76.0473C1133.67 61.408 1148.14 62.3435 1157.62 78.1279Z" fill="currentColor"/>
<path d="M1157.62 78.1279C1167.11 93.9198 1168 118.581 1159.62 133.22C1151.24 147.859 1136.77 146.924 1127.28 131.139C1117.8 115.347 1116.91 90.6866 1125.29 76.0473C1133.67 61.408 1148.14 62.3435 1157.62 78.1279Z" stroke="#21412C" stroke-width="1.29" stroke-miterlimit="10"/>
<path d="M1133.1 78.1578C1141.69 92.625 1143.8 116.111 1137.8 130.6C1131.8 145.098 1119.97 145.112 1111.38 130.645C1102.78 116.178 1100.67 92.6924 1106.67 78.2027C1112.67 63.7056 1124.5 63.6907 1133.1 78.1578Z" fill="currentColor"/>
<path d="M1133.1 78.1578C1141.69 92.625 1143.8 116.111 1137.8 130.6C1131.8 145.098 1119.97 145.112 1111.38 130.645C1102.78 116.178 1100.67 92.6924 1106.67 78.2027C1112.67 63.7056 1124.5 63.6907 1133.1 78.1578Z" stroke="#21412C" stroke-width="1.29" stroke-miterlimit="10"/>
<path d="M1088.05 80.3583C1091.66 66.0108 1100.85 65.0379 1108.57 78.1878C1116.28 91.3377 1119.6 113.634 1115.98 127.981C1112.36 142.328 1103.17 143.301 1095.46 130.151C1087.75 117.001 1084.43 94.7057 1088.05 80.3583Z" fill="currentColor"/>
<path d="M1088.05 80.3583C1091.66 66.0108 1100.85 65.0379 1108.57 78.1878C1116.28 91.3377 1119.6 113.634 1115.98 127.981C1112.36 142.328 1103.17 143.301 1095.46 130.151C1087.75 117.001 1084.43 94.7057 1088.05 80.3583Z" stroke="#21412C" stroke-width="1.29" stroke-miterlimit="10"/>
<path d="M1096.35 505.729C1106.04 521.207 1101.33 541.601 1085.84 551.286C1070.36 560.963 1049.95 556.263 1040.25 540.786C1030.57 525.308 1035.27 504.913 1050.76 495.229C1066.25 485.551 1086.67 490.252 1096.35 505.729Z" fill="currentColor"/>
<path d="M1096.35 505.729C1106.04 521.207 1101.33 541.601 1085.84 551.286C1070.36 560.963 1049.95 556.263 1040.25 540.786C1030.57 525.308 1035.27 504.913 1050.76 495.229C1066.25 485.551 1086.67 490.252 1096.35 505.729Z" stroke="#21412C" stroke-width="1.29" stroke-miterlimit="10"/>
<path d="M1091.48 491.472C1100.67 506.148 1096.21 525.488 1081.52 534.671C1066.83 543.847 1047.47 539.394 1038.29 524.717C1029.1 510.04 1033.57 490.701 1048.25 481.517C1062.94 472.334 1082.29 476.795 1091.48 491.472Z" fill="currentColor"/>
<path d="M1091.48 491.472C1100.67 506.148 1096.21 525.488 1081.52 534.671C1066.83 543.847 1047.47 539.394 1038.29 524.717C1029.1 510.04 1033.57 490.701 1048.25 481.517C1062.94 472.334 1082.29 476.795 1091.48 491.472Z" stroke="#21412C" stroke-width="1.29" stroke-miterlimit="10"/>
<path d="M1086.61 477.206C1095.3 491.082 1091.08 509.374 1077.19 518.048C1063.31 526.73 1045.01 522.516 1036.32 508.633C1027.63 494.757 1031.86 476.473 1045.74 467.791C1059.63 459.109 1077.93 463.323 1086.61 477.206Z" fill="currentColor"/>
<path d="M1086.61 477.206C1095.3 491.082 1091.08 509.374 1077.19 518.048C1063.31 526.73 1045.01 522.516 1036.32 508.633C1027.63 494.757 1031.86 476.473 1045.74 467.791C1059.63 459.109 1077.93 463.323 1086.61 477.206Z" stroke="#21412C" stroke-width="1.29" stroke-miterlimit="10"/>
<path d="M1081.74 462.941C1089.93 476.016 1085.95 493.245 1072.86 501.426C1059.78 509.606 1042.54 505.632 1034.35 492.557C1026.17 479.482 1030.14 462.245 1043.23 454.072C1056.31 445.892 1073.55 449.866 1081.74 462.941Z" fill="currentColor"/>
<path d="M1081.74 462.941C1089.93 476.016 1085.95 493.245 1072.86 501.426C1059.78 509.606 1042.54 505.632 1034.35 492.557C1026.17 479.482 1030.14 462.245 1043.23 454.072C1056.31 445.892 1073.55 449.866 1081.74 462.941Z" stroke="#21412C" stroke-width="1.29" stroke-miterlimit="10"/>
<path d="M1076.87 448.684C1084.55 460.958 1080.83 477.132 1068.53 484.81C1056.25 492.489 1040.06 488.762 1032.38 476.48C1024.7 464.206 1028.43 448.025 1040.72 440.354C1053 432.675 1069.19 436.402 1076.87 448.684Z" fill="currentColor"/>
<path d="M1076.87 448.684C1084.55 460.958 1080.83 477.132 1068.53 484.81C1056.25 492.489 1040.06 488.762 1032.38 476.48C1024.7 464.206 1028.43 448.025 1040.72 440.354C1053 432.675 1069.19 436.402 1076.87 448.684Z" stroke="#21412C" stroke-width="1.29" stroke-miterlimit="10"/>
<path d="M1072 434.419C1079.19 445.892 1075.7 461.018 1064.21 468.188C1052.73 475.365 1037.6 471.878 1030.42 460.404C1023.24 448.931 1026.73 433.805 1038.21 426.635C1049.69 419.458 1064.83 422.945 1072 434.419Z" fill="currentColor"/>
<path d="M1072 434.419C1079.19 445.892 1075.7 461.018 1064.21 468.188C1052.73 475.365 1037.6 471.878 1030.42 460.404C1023.24 448.931 1026.73 433.805 1038.21 426.635C1049.69 419.458 1064.83 422.945 1072 434.419Z" stroke="#21412C" stroke-width="1.29" stroke-miterlimit="10"/>
<path d="M1067.13 420.153C1073.81 430.826 1070.57 444.897 1059.88 451.573C1049.2 458.249 1035.12 455.008 1028.44 444.328C1021.76 433.655 1025.01 419.585 1035.69 412.909C1046.37 406.233 1060.45 409.473 1067.13 420.146" fill="currentColor"/>
<path d="M1067.13 420.153C1073.81 430.826 1070.57 444.897 1059.88 451.573C1049.2 458.249 1035.12 455.008 1028.44 444.328C1021.76 433.655 1025.01 419.585 1035.69 412.909C1046.37 406.233 1060.45 409.473 1067.13 420.146V420.153Z" stroke="#21412C" stroke-width="1.29" stroke-miterlimit="10"/>
<path d="M1062.26 405.896C1068.44 415.768 1065.43 428.783 1055.56 434.957C1045.68 441.132 1032.65 438.131 1026.47 428.259C1020.29 418.387 1023.3 405.372 1033.18 399.197C1043.06 393.023 1056.08 396.024 1062.26 405.896Z" fill="currentColor"/>
<path d="M1062.26 405.896C1068.44 415.768 1065.43 428.783 1055.56 434.957C1045.68 441.132 1032.65 438.131 1026.47 428.259C1020.29 418.387 1023.3 405.372 1033.18 399.197C1043.06 393.023 1056.08 396.024 1062.26 405.896Z" stroke="#21412C" stroke-width="1.29" stroke-miterlimit="10"/>
<path d="M1057.38 391.631C1063.06 400.702 1060.3 412.662 1051.23 418.335C1042.15 424.008 1030.18 421.254 1024.5 412.183C1018.83 403.112 1021.58 391.152 1030.66 385.479C1039.74 379.806 1051.71 382.56 1057.38 391.631Z" fill="currentColor"/>
<path d="M1057.38 391.631C1063.06 400.702 1060.3 412.662 1051.23 418.335C1042.15 424.008 1030.18 421.254 1024.5 412.183C1018.83 403.112 1021.58 391.152 1030.66 385.479C1039.74 379.806 1051.71 382.56 1057.38 391.631Z" stroke="#21412C" stroke-width="1.29" stroke-miterlimit="10"/>
<path d="M1052.51 377.366C1057.69 385.636 1055.18 396.54 1046.9 401.712C1038.62 406.884 1027.71 404.377 1022.53 396.099C1017.36 387.829 1019.87 376.924 1028.15 371.752C1036.43 366.581 1047.34 369.088 1052.51 377.366Z" fill="currentColor"/>
<path d="M1052.51 377.366C1057.69 385.636 1055.18 396.54 1046.9 401.712C1038.62 406.884 1027.71 404.377 1022.53 396.099C1017.36 387.829 1019.87 376.924 1028.15 371.752C1036.43 366.581 1047.34 369.088 1052.51 377.366Z" stroke="#21412C" stroke-width="1.29" stroke-miterlimit="10"/>
<path d="M1065.61 364.695C1072.11 375.068 1068.95 388.727 1058.57 395.216C1048.19 401.697 1034.52 398.554 1028.03 388.181C1021.54 377.807 1024.69 364.148 1035.07 357.659C1045.45 351.178 1059.12 354.322 1065.61 364.695Z" fill="currentColor"/>
<path d="M1065.61 364.695C1072.11 375.068 1068.95 388.727 1058.57 395.216C1048.19 401.697 1034.52 398.554 1028.03 388.181C1021.54 377.807 1024.69 364.148 1035.07 357.659C1045.45 351.178 1059.12 354.322 1065.61 364.695Z" stroke="#21412C" stroke-width="1.29" stroke-miterlimit="10"/>
<path d="M1078.71 352.024C1086.52 364.493 1082.73 380.921 1070.25 388.712C1057.77 396.51 1041.33 392.723 1033.54 380.255C1025.73 367.786 1029.52 351.358 1042 343.566C1054.48 335.768 1070.92 339.555 1078.71 352.024Z" fill="currentColor"/>
<path d="M1078.71 352.024C1086.52 364.493 1082.73 380.921 1070.25 388.712C1057.77 396.51 1041.33 392.723 1033.54 380.255C1025.73 367.786 1029.52 351.358 1042 343.566C1054.48 335.768 1070.92 339.555 1078.71 352.024Z" stroke="#21412C" stroke-width="1.29" stroke-miterlimit="10"/>
<path d="M1091.81 339.345C1100.93 353.91 1096.5 373.1 1081.93 382.208C1067.35 391.316 1048.15 386.893 1039.03 372.329C1029.92 357.764 1034.34 338.575 1048.92 329.466C1063.49 320.358 1082.7 324.781 1091.81 339.345Z" fill="currentColor"/>
<path d="M1091.81 339.345C1100.93 353.91 1096.5 373.1 1081.93 382.208C1067.35 391.316 1048.15 386.893 1039.03 372.329C1029.92 357.764 1034.34 338.575 1048.92 329.466C1063.49 320.358 1082.7 324.781 1091.81 339.345Z" stroke="#21412C" stroke-width="1.29" stroke-miterlimit="10"/>
<path d="M1104.91 326.674C1115.34 343.335 1110.27 365.294 1093.6 375.712C1076.93 386.13 1054.96 381.07 1044.53 364.41C1034.11 347.75 1039.17 325.791 1055.84 315.373C1072.51 304.955 1094.49 310.014 1104.91 326.674Z" fill="currentColor"/>
<path d="M1104.91 326.674C1115.34 343.335 1110.27 365.294 1093.6 375.712C1076.93 386.13 1054.96 381.07 1044.53 364.41C1034.11 347.75 1039.17 325.791 1055.84 315.373C1072.51 304.955 1094.49 310.014 1104.91 326.674Z" stroke="#21412C" stroke-width="1.29" stroke-miterlimit="10"/>
<path d="M1118.01 314.003C1129.76 332.767 1124.05 357.48 1105.28 369.215C1086.5 380.951 1061.77 375.248 1050.03 356.492C1038.28 337.729 1043.99 313.016 1062.76 301.28C1081.53 289.545 1106.27 295.248 1118.01 314.003Z" fill="currentColor"/>
<path d="M1118.01 314.003C1129.76 332.767 1124.05 357.48 1105.28 369.215C1086.5 380.951 1061.77 375.248 1050.03 356.492C1038.28 337.729 1043.99 313.016 1062.76 301.28C1081.53 289.545 1106.27 295.248 1118.01 314.003Z" stroke="#21412C" stroke-width="1.29" stroke-miterlimit="10"/>
<path d="M1131.11 301.325C1144.17 322.184 1137.82 349.666 1116.96 362.704C1096.08 375.749 1068.58 369.41 1055.53 348.559C1042.48 327.7 1048.82 300.217 1069.69 287.18C1090.56 274.135 1118.06 280.466 1131.11 301.325Z" fill="currentColor"/>
<path d="M1131.11 301.325C1144.17 322.184 1137.82 349.666 1116.96 362.704C1096.08 375.749 1068.58 369.41 1055.53 348.559C1042.48 327.7 1048.82 300.217 1069.69 287.18C1090.56 274.135 1118.06 280.466 1131.11 301.325Z" stroke="#21412C" stroke-width="1.29" stroke-miterlimit="10"/>
<path d="M1144.21 288.654C1158.58 311.608 1151.6 341.853 1128.63 356.207C1105.66 370.562 1075.4 363.594 1061.03 340.64C1046.67 317.686 1053.64 287.442 1076.61 273.087C1099.58 258.732 1129.85 265.7 1144.21 288.654Z" fill="currentColor"/>
<path d="M1144.21 288.654C1158.58 311.608 1151.6 341.853 1128.63 356.207C1105.66 370.562 1075.4 363.594 1061.03 340.64C1046.67 317.686 1053.64 287.442 1076.61 273.087C1099.58 258.732 1129.85 265.7 1144.21 288.654Z" stroke="#21412C" stroke-width="1.29" stroke-miterlimit="10"/>
<path d="M1157.3 275.983C1172.98 301.033 1165.37 334.046 1140.3 349.711C1115.23 365.376 1082.2 357.772 1066.52 332.722C1050.84 307.672 1058.45 274.658 1083.52 258.994C1108.59 243.329 1141.63 250.933 1157.3 275.983Z" fill="currentColor"/>
<path d="M1157.3 275.983C1172.98 301.033 1165.37 334.046 1140.3 349.711C1115.23 365.376 1082.2 357.772 1066.52 332.722C1050.84 307.672 1058.45 274.658 1083.52 258.994C1108.59 243.329 1141.63 250.933 1157.3 275.983Z" stroke="#21412C" stroke-width="1.29" stroke-miterlimit="10"/>
<path d="M1170.4 263.305C1187.4 290.45 1179.14 326.225 1151.98 343.207C1124.81 360.182 1089.01 351.941 1072.02 324.796C1055.02 297.65 1063.28 261.875 1090.44 244.893C1117.61 227.919 1153.41 236.159 1170.4 263.305Z" fill="currentColor"/>
<path d="M1170.4 263.305C1187.4 290.45 1179.14 326.225 1151.98 343.207C1124.81 360.182 1089.01 351.941 1072.02 324.796C1055.02 297.65 1063.28 261.875 1090.44 244.893C1117.61 227.919 1153.41 236.159 1170.4 263.305Z" stroke="#21412C" stroke-width="1.29" stroke-miterlimit="10"/>
<path d="M1173.58 243.007C1192.42 269.764 1184.41 304.304 1155.7 320.156C1126.98 336.007 1088.44 327.161 1069.59 300.404C1050.75 273.648 1058.75 239.108 1087.47 223.256C1116.18 207.404 1154.73 216.243 1173.58 243.007Z" fill="currentColor"/>
<path d="M1173.58 243.007C1192.42 269.764 1184.41 304.304 1155.7 320.156C1126.98 336.007 1088.44 327.161 1069.59 300.404C1050.75 273.648 1058.75 239.108 1087.47 223.256C1116.18 207.404 1154.73 216.243 1173.58 243.007Z" stroke="#21412C" stroke-width="1.29" stroke-miterlimit="10"/>
<path d="M1176.75 222.71C1197.45 249.077 1189.69 282.382 1159.42 297.104C1129.16 311.826 1087.85 302.388 1067.16 276.028C1046.48 249.668 1054.23 216.356 1084.5 201.634C1114.75 186.912 1156.07 196.35 1176.75 222.71Z" fill="currentColor"/>
<path d="M1176.75 222.71C1197.45 249.077 1189.69 282.382 1159.42 297.104C1129.16 311.826 1087.85 302.388 1067.16 276.028C1046.48 249.668 1054.23 216.356 1084.5 201.634C1114.75 186.912 1156.07 196.35 1176.75 222.71Z" stroke="#21412C" stroke-width="1.29" stroke-miterlimit="10"/>
<path d="M1179.93 202.405C1202.47 228.375 1194.96 260.453 1163.15 274.052C1131.34 287.644 1087.28 277.615 1064.74 251.637C1042.19 225.666 1049.71 193.588 1081.51 179.989C1113.32 166.398 1157.38 176.427 1179.93 202.405Z" fill="currentColor"/>
<path d="M1179.93 202.405C1202.47 228.375 1194.96 260.453 1163.15 274.052C1131.34 287.644 1087.28 277.615 1064.74 251.637C1042.19 225.666 1049.71 193.588 1081.51 179.989C1113.32 166.398 1157.38 176.427 1179.93 202.405Z" stroke="#21412C" stroke-width="1.29" stroke-miterlimit="10"/>
<path d="M1183.1 182.107C1207.5 207.689 1200.23 238.532 1166.87 251.001C1133.52 263.469 1086.71 252.834 1062.31 227.253C1037.92 201.671 1045.18 170.829 1078.54 158.36C1111.9 145.891 1158.71 156.526 1183.1 182.107Z" fill="currentColor"/>
<path d="M1183.1 182.107C1207.5 207.689 1200.23 238.532 1166.87 251.001C1133.52 263.469 1086.71 252.834 1062.31 227.253C1037.92 201.671 1045.18 170.829 1078.54 158.36C1111.9 145.891 1158.71 156.526 1183.1 182.107Z" stroke="#21412C" stroke-width="1.29" stroke-miterlimit="10"/>
<path d="M1186.28 161.81C1212.52 187.002 1205.51 216.61 1170.6 227.949C1135.7 239.288 1086.14 228.061 1059.89 202.869C1033.65 177.677 1040.67 148.069 1075.57 136.73C1110.47 125.391 1160.04 136.618 1186.28 161.81Z" fill="currentColor"/>
<path d="M1186.28 161.81C1212.52 187.002 1205.51 216.61 1170.6 227.949C1135.7 239.288 1086.14 228.061 1059.89 202.869C1033.65 177.677 1040.67 148.069 1075.57 136.73C1110.47 125.391 1160.04 136.618 1186.28 161.81Z" stroke="#21412C" stroke-width="1.29" stroke-miterlimit="10"/>
<path d="M1189.46 141.513C1217.55 166.308 1210.78 194.689 1174.33 204.905C1137.88 215.113 1085.55 203.296 1057.46 178.492C1029.36 153.697 1036.13 125.316 1072.59 115.1C1109.04 104.892 1161.36 116.71 1189.46 141.513Z" fill="currentColor"/>
<path d="M1189.46 141.513C1217.55 166.308 1210.78 194.689 1174.33 204.905C1137.88 215.113 1085.55 203.295 1057.46 178.492C1029.36 153.697 1036.13 125.316 1072.59 115.1C1109.04 104.892 1161.36 116.71 1189.46 141.513Z" stroke="#21412C" stroke-width="1.29" stroke-miterlimit="10"/>
<path d="M1192.63 121.215C1222.57 145.621 1216.05 172.767 1178.06 181.853C1140.06 190.939 1084.98 178.515 1055.04 154.109C1025.1 129.702 1031.62 102.557 1069.61 93.4707C1107.61 84.3848 1162.69 96.8088 1192.63 121.215Z" fill="currentColor"/>
<path d="M1192.63 121.215C1222.57 145.621 1216.05 172.767 1178.06 181.853C1140.06 190.939 1084.98 178.515 1055.04 154.109C1025.1 129.702 1031.62 102.557 1069.61 93.4707C1107.61 84.3848 1162.69 96.8088 1192.63 121.215Z" stroke="#21412C" stroke-width="1.29" stroke-miterlimit="10"/>
<path d="M1195.81 100.91C1227.6 124.927 1221.32 150.838 1181.78 158.794C1142.23 166.75 1084.41 153.734 1052.61 129.717C1020.82 105.7 1027.09 79.7894 1066.64 71.8336C1106.19 63.8778 1164.01 76.893 1195.81 100.91Z" fill="currentColor"/>
<path d="M1195.81 100.91C1227.6 124.927 1221.32 150.838 1181.78 158.794C1142.23 166.75 1084.41 153.734 1052.61 129.717C1020.82 105.7 1027.09 79.7894 1066.64 71.8336C1106.19 63.8778 1164.01 76.893 1195.81 100.91Z" stroke="#21412C" stroke-width="1.29" stroke-miterlimit="10"/>
<path d="M1198.98 80.6127C1232.63 104.233 1226.6 128.916 1185.51 135.742C1144.42 142.568 1083.84 128.954 1050.19 105.333C1016.55 81.7129 1022.58 57.0296 1063.67 50.1964C1104.76 43.3708 1165.34 56.9847 1198.99 80.6052" fill="currentColor"/>
<path d="M1198.98 80.6127C1232.63 104.233 1226.6 128.916 1185.51 135.742C1144.42 142.568 1083.84 128.954 1050.19 105.333C1016.55 81.7129 1022.58 57.0296 1063.67 50.1964C1104.76 43.3708 1165.34 56.9847 1198.99 80.6052L1198.98 80.6127Z" stroke="#21412C" stroke-width="1.29" stroke-miterlimit="10"/>
</g>
<defs>
<clipPath id="clip0_2494_202">
<rect width="1375.42" height="583.335" fill="white" transform="translate(0.578613 0.665283)"/>
</clipPath>
</defs>
</svg>
