<svg xmlns="http://www.w3.org/2000/svg" width="1024" height="1024" viewBox="0 0 1024 1024">
  <g fill="currentColor">
    <path d="M780.8 339.2c-44.8 0-83.2 19.2-115.2 51.2l-12.8-12.8c44.8-44.8 102.4-70.4 166.4-70.4 57.6 0 112 22.4 153.6 64s64 96 64 153.6c0 64-25.6 121.6-70.4 166.4s-102.4 70.4-166.4 70.4c-57.6 0-112-22.4-153.6-64s-64-96-64-153.6c0-25.6 6.4-51.2 12.8-76.8l12.8 12.8c-6.4 19.2-6.4 44.8-6.4 64 0 51.2 19.2 96 57.6 134.4s83.2 57.6 134.4 57.6 96-19.2 134.4-57.6 57.6-83.2 57.6-134.4-19.2-96-57.6-134.4-83.2-57.6-134.4-57.6z"/>
    <path d="M729.6 441.6c-32 32-44.8 76.8-32 121.6l-12.8-12.8c-12.8-38.4-6.4-83.2 25.6-115.2s76.8-38.4 115.2-25.6l12.8 12.8c-44.8-12.8-89.6 0-121.6 32z"/>
    <path d="M812.8 467.2c-19.2 0-38.4 6.4-51.2 19.2s-19.2 32-19.2 51.2 6.4 38.4 19.2 51.2 32 19.2 51.2 19.2 38.4-6.4 51.2-19.2 19.2-32 19.2-51.2-6.4-38.4-19.2-51.2-32-19.2-51.2-19.2z"/>
    <path d="M0 275.2h198.4c32 0 57.6 6.4 83.2 25.6s32 51.2 32 83.2-12.8 64-38.4 83.2c32 12.8 51.2 38.4 51.2 76.8s-12.8 64-38.4 89.6-57.6 32-96 32H0V275.2zm192 147.2c19.2 0 32-6.4 44.8-19.2s12.8-25.6 12.8-38.4-6.4-25.6-12.8-38.4-25.6-12.8-38.4-12.8H96v108.8h96zm6.4 153.6c19.2 0 32-6.4 44.8-19.2s19.2-25.6 19.2-44.8-6.4-32-19.2-44.8-25.6-19.2-44.8-19.2H96v128h102.4z"/>
    <path d="M652.8 748.8c-64 0-121.6-25.6-166.4-70.4l12.8-12.8c38.4 38.4 83.2 57.6 134.4 57.6 51.2 0 96-19.2 134.4-57.6s57.6-83.2 57.6-134.4c0-51.2-19.2-96-57.6-134.4s-83.2-57.6-134.4-57.6c-19.2 0-44.8 6.4-64 12.8l-12.8-12.8c25.6-6.4 51.2-12.8 76.8-12.8 57.6 0 112 22.4 153.6 64s64 96 64 153.6c0 64-25.6 121.6-70.4 166.4s-102.4 70.4-166.4 70.4z"/>
  </g>
</svg>
