<svg xmlns="http://www.w3.org/2000/svg" width="1410" height="598" viewBox="0 0 1410 598" fill="none">
<g clip-path="url(#clip0_4432_1318)">
<path d="M756.515 476.315C750.127 483.588 750.856 494.66 758.135 501.035C765.414 507.419 776.493 506.69 782.873 499.416C789.261 492.143 788.532 481.072 781.253 474.696C773.975 468.32 762.895 469.041 756.515 476.315Z" fill="#EFCCA9"/>
<path d="M756.515 476.315C750.127 483.588 750.856 494.66 758.135 501.035C765.414 507.419 776.493 506.69 782.873 499.416C789.261 492.143 788.532 481.072 781.253 474.696C773.975 468.32 762.895 469.041 756.515 476.315Z" stroke="#495654" stroke-width="1.29" stroke-miterlimit="10"/>
<path d="M729.144 479.184C721.143 488.299 722.049 502.179 731.171 510.173C740.292 518.168 754.181 517.263 762.182 508.148C770.19 499.033 769.276 485.153 760.155 477.159C751.034 469.164 737.144 470.069 729.144 479.184Z" fill="#EFCCA9"/>
<path d="M729.144 479.184C721.143 488.299 722.049 502.179 731.171 510.173C740.292 518.168 754.181 517.263 762.182 508.148C770.19 499.033 769.276 485.153 760.155 477.159C751.034 469.164 737.144 470.069 729.144 479.184Z" stroke="#495654" stroke-width="1.29" stroke-miterlimit="10"/>
<path d="M701.771 482.046C692.15 493.01 693.241 509.69 704.212 519.303C715.184 528.917 731.876 527.828 741.497 516.864C751.117 505.9 750.027 489.22 739.055 479.606C728.083 469.992 711.391 471.082 701.771 482.046Z" fill="#EFCCA9"/>
<path d="M701.771 482.046C692.15 493.01 693.241 509.69 704.212 519.303C715.184 528.917 731.876 527.828 741.497 516.864C751.117 505.9 750.027 489.22 739.055 479.606C728.083 469.992 711.391 471.082 701.771 482.046Z" stroke="#495654" stroke-width="1.29" stroke-miterlimit="10"/>
<path d="M674.4 484.908C663.159 497.713 664.434 517.201 677.248 528.434C690.063 539.666 709.565 538.393 720.805 525.587C732.046 512.782 730.771 493.294 717.957 482.061C705.142 470.829 685.64 472.103 674.4 484.908Z" fill="#EFCCA9"/>
<path d="M674.4 484.908C663.159 497.713 664.434 517.201 677.248 528.434C690.063 539.666 709.565 538.393 720.805 525.587C732.046 512.782 730.771 493.294 717.957 482.061C705.142 470.829 685.64 472.103 674.4 484.908Z" stroke="#495654" stroke-width="1.29" stroke-miterlimit="10"/>
<path d="M647.028 487.777C634.167 502.432 635.626 524.72 650.291 537.572C664.948 550.423 687.26 548.965 700.121 534.311C712.982 519.656 711.523 497.368 696.858 484.516C682.201 471.665 659.889 473.123 647.028 487.777Z" fill="#EFCCA9"/>
<path d="M647.028 487.777C634.167 502.432 635.626 524.72 650.291 537.572C664.948 550.423 687.26 548.965 700.121 534.311C712.982 519.656 711.523 497.368 696.858 484.516C682.201 471.665 659.889 473.123 647.028 487.777Z" stroke="#495654" stroke-width="1.29" stroke-miterlimit="10"/>
<path d="M619.656 490.639C605.175 507.135 606.818 532.232 623.326 546.702C639.834 561.172 664.948 559.53 679.429 543.034C693.909 526.539 692.266 501.442 675.759 486.972C659.251 472.501 634.137 474.143 619.656 490.639Z" fill="#EFCCA9"/>
<path d="M619.656 490.639C605.175 507.135 606.818 532.232 623.326 546.702C639.834 561.172 664.948 559.53 679.429 543.034C693.909 526.539 692.266 501.442 675.759 486.972C659.251 472.501 634.137 474.143 619.656 490.639Z" stroke="#495654" stroke-width="1.29" stroke-miterlimit="10"/>
<path d="M592.284 493.501C576.184 511.838 578.011 539.743 596.369 555.832C614.719 571.921 642.651 570.095 658.744 551.75C674.845 533.413 673.018 505.508 654.667 489.419C636.317 473.33 608.385 475.156 592.292 493.501" fill="#EFCCA9"/>
<path d="M592.284 493.501C576.184 511.838 578.011 539.743 596.369 555.832C614.719 571.921 642.651 570.095 658.744 551.75C674.845 533.413 673.018 505.508 654.667 489.419C636.317 473.33 608.385 475.156 592.292 493.501H592.284Z" stroke="#495654" stroke-width="1.29" stroke-miterlimit="10"/>
<path d="M564.92 496.371C547.199 516.549 549.211 547.27 569.412 564.97C589.612 582.67 620.347 580.668 638.06 560.482C655.781 540.295 653.769 509.583 633.568 491.882C613.368 474.182 582.633 476.184 564.92 496.371Z" fill="#EFCCA9"/>
<path d="M564.92 496.371C547.199 516.549 549.211 547.27 569.412 564.97C589.612 582.67 620.347 580.668 638.06 560.482C655.781 540.295 653.769 509.583 633.568 491.882C613.368 474.182 582.633 476.184 564.92 496.371Z" stroke="#495654" stroke-width="1.29" stroke-miterlimit="10"/>
<path d="M537.548 499.232C518.215 521.26 520.403 554.781 542.446 574.1C564.49 593.419 598.035 591.233 617.368 569.205C636.701 547.177 634.512 513.656 612.469 494.337C590.426 475.018 556.881 477.205 537.548 499.232Z" fill="#EFCCA9"/>
<path d="M537.548 499.232C518.215 521.26 520.403 554.781 542.446 574.1C564.49 593.419 598.035 591.233 617.368 569.205C636.701 547.177 634.512 513.656 612.469 494.337C590.426 475.018 556.881 477.205 537.548 499.232Z" stroke="#495654" stroke-width="1.29" stroke-miterlimit="10"/>
<path d="M510.176 502.094C489.223 525.963 491.603 562.292 515.489 583.231C539.375 604.169 575.731 601.798 596.684 577.921C617.637 554.052 615.257 517.723 591.37 496.785C567.484 475.847 531.129 478.218 510.176 502.094Z" fill="#EFCCA9"/>
<path d="M510.176 502.094C489.223 525.963 491.603 562.292 515.489 583.231C539.375 604.169 575.731 601.798 596.684 577.921C617.637 554.052 615.257 517.723 591.37 496.785C567.484 475.847 531.129 478.218 510.176 502.094Z" stroke="#495654" stroke-width="1.29" stroke-miterlimit="10"/>
<path d="M509.055 474.634C486.612 500.199 489.161 539.114 514.744 561.541C540.327 583.967 579.27 581.42 601.712 555.855C624.155 530.291 621.606 491.376 596.023 468.949C570.44 446.523 531.505 449.07 509.055 474.634Z" fill="#EFCCA9"/>
<path d="M509.055 474.634C486.612 500.199 489.161 539.114 514.744 561.541C540.327 583.967 579.27 581.42 601.712 555.855C624.155 530.291 621.606 491.376 596.023 468.949C570.44 446.523 531.505 449.07 509.055 474.634Z" stroke="#495654" stroke-width="1.29" stroke-miterlimit="10"/>
<path d="M507.934 447.167C484.002 474.435 486.72 515.92 514 539.835C541.287 563.75 582.802 561.034 606.734 533.774C630.666 506.506 627.948 465.021 600.668 441.106C573.381 417.191 531.866 419.907 507.934 447.167Z" fill="#EFCCA9"/>
<path d="M507.934 447.167C484.002 474.435 486.72 515.92 514 539.835C541.287 563.75 582.802 561.034 606.734 533.774C630.666 506.506 627.948 465.021 600.668 441.106C573.381 417.191 531.866 419.907 507.934 447.167Z" stroke="#495654" stroke-width="1.29" stroke-miterlimit="10"/>
<path d="M506.805 419.707C481.384 448.671 484.271 492.741 513.247 518.145C542.231 543.549 586.333 540.664 611.755 511.708C637.177 482.744 634.29 438.674 605.313 413.27C576.329 387.866 532.227 390.751 506.805 419.707Z" fill="#EFCCA9"/>
<path d="M506.805 419.707C481.384 448.671 484.271 492.741 513.247 518.145C542.231 543.549 586.333 540.664 611.755 511.708C637.177 482.744 634.29 438.674 605.313 413.27C576.329 387.866 532.227 390.751 506.805 419.707Z" stroke="#495654" stroke-width="1.29" stroke-miterlimit="10"/>
<path d="M505.684 392.247C478.773 422.907 481.829 469.555 512.51 496.455C543.191 523.347 589.881 520.293 616.792 489.634C643.703 458.975 640.647 412.319 609.966 385.427C579.285 358.535 532.603 361.588 505.684 392.247Z" fill="#EFCCA9"/>
<path d="M613.483 493.15C642.34 464.314 642.34 417.561 613.483 388.725C584.626 359.888 537.84 359.888 508.983 388.725C480.126 417.561 480.126 464.314 508.983 493.15C537.84 521.986 584.626 521.986 613.483 493.15Z" stroke="#495654" stroke-width="1.29" stroke-miterlimit="10"/>
<path d="M504.564 364.78C476.163 397.135 479.388 446.369 511.765 474.75C544.143 503.13 593.413 499.908 621.813 467.553C650.214 435.198 646.989 385.964 614.612 357.583C582.234 329.203 532.964 332.425 504.564 364.78Z" fill="#EFCCA9"/>
<path d="M572.168 493.611C614.951 488.649 645.608 449.969 640.643 407.217C635.678 364.465 596.97 333.83 554.188 338.791C511.405 343.753 480.748 382.433 485.713 425.185C490.678 467.937 529.386 498.573 572.168 493.611Z" stroke="#495654" stroke-width="1.29" stroke-miterlimit="10"/>
<path d="M503.442 337.32C473.552 371.371 476.946 423.19 511.02 453.059C545.095 482.928 596.952 479.537 626.842 445.487C656.732 411.436 653.339 359.616 619.264 329.747C585.189 299.879 533.333 303.27 503.442 337.32Z" fill="#EFCCA9"/>
<path d="M503.442 337.32C473.552 371.371 476.946 423.19 511.02 453.059C545.095 482.928 596.952 479.537 626.842 445.487C656.732 411.436 653.339 359.616 619.264 329.747C585.189 299.879 533.333 303.27 503.442 337.32Z" stroke="#495654" stroke-width="1.29" stroke-miterlimit="10"/>
<path d="M502.322 309.853C470.942 345.599 474.504 399.997 510.276 431.362C546.048 462.719 600.492 459.159 631.872 423.413C663.251 387.667 659.689 333.269 623.917 301.912C588.146 270.554 533.701 274.115 502.322 309.861" fill="#EFCCA9"/>
<path d="M502.322 309.853C470.942 345.599 474.504 399.997 510.276 431.362C546.048 462.719 600.492 459.159 631.872 423.413C663.251 387.667 659.689 333.269 623.917 301.912C588.146 270.554 533.701 274.115 502.322 309.861V309.853Z" stroke="#495654" stroke-width="1.29" stroke-miterlimit="10"/>
<path d="M501.2 282.393C468.331 319.835 472.063 376.818 509.531 409.664C546.999 442.51 604.023 438.781 636.893 401.339C669.762 363.898 666.03 306.914 628.562 274.068C591.094 241.222 534.07 244.951 501.2 282.393Z" fill="#EFCCA9"/>
<path d="M501.2 282.393C468.331 319.835 472.063 376.818 509.531 409.664C546.999 442.51 604.023 438.781 636.893 401.339C669.762 363.898 666.03 306.914 628.562 274.068C591.094 241.222 534.07 244.951 501.2 282.393Z" stroke="#495654" stroke-width="1.29" stroke-miterlimit="10"/>
<path d="M500.08 254.925C465.721 294.07 469.621 353.632 508.786 387.966C547.952 422.3 607.563 418.403 641.922 379.265C676.281 340.121 672.38 280.559 633.215 246.225C594.05 211.891 534.438 215.788 500.08 254.925Z" fill="#EFCCA9"/>
<path d="M571.001 411.367C623.103 411.367 665.34 369.16 665.34 317.096C665.34 265.031 623.103 222.824 571.001 222.824C518.899 222.824 476.662 265.031 476.662 317.096C476.662 369.16 518.899 411.367 571.001 411.367Z" stroke="#495654" stroke-width="1.29" stroke-miterlimit="10"/>
<path d="M504.341 233.934C471.495 269.856 475.088 324.4 512.364 355.765C549.633 387.13 606.473 383.432 639.319 347.509C672.165 311.587 668.572 257.043 631.296 225.678C594.027 194.313 537.187 198.011 504.341 233.934Z" fill="#EFCCA9"/>
<path d="M504.341 233.934C471.495 269.856 475.088 324.4 512.364 355.765C549.633 387.13 606.473 383.432 639.319 347.509C672.165 311.587 668.572 257.043 631.296 225.678C594.027 194.313 537.187 198.011 504.341 233.934Z" stroke="#495654" stroke-width="1.29" stroke-miterlimit="10"/>
<path d="M508.61 212.934C477.284 245.634 480.57 295.168 515.942 323.556C551.315 351.952 605.39 348.453 636.716 315.753C668.042 283.053 664.756 233.519 629.384 205.131C594.012 176.735 539.936 180.234 508.61 212.934Z" fill="#EFCCA9"/>
<path d="M508.61 212.934C477.284 245.634 480.57 295.168 515.942 323.556C551.315 351.952 605.39 348.453 636.716 315.753C668.042 283.053 664.756 233.519 629.384 205.131C594.012 176.735 539.936 180.234 508.61 212.934Z" stroke="#495654" stroke-width="1.29" stroke-miterlimit="10"/>
<path d="M512.879 191.942C483.073 221.428 486.045 265.936 519.528 291.362C553.004 316.789 604.316 313.49 634.121 284.004C663.927 254.519 660.956 210.011 627.472 184.584C593.989 159.158 542.685 162.457 512.879 191.942Z" fill="#EFCCA9"/>
<path d="M512.879 191.942C483.073 221.428 486.045 265.936 519.528 291.362C553.004 316.789 604.316 313.49 634.121 284.004C663.927 254.519 660.956 210.011 627.472 184.584C593.989 159.158 542.685 162.457 512.879 191.942Z" stroke="#495654" stroke-width="1.29" stroke-miterlimit="10"/>
<path d="M517.14 170.95C488.847 197.213 491.511 236.711 523.098 259.161C554.678 281.61 603.218 278.518 631.511 252.256C659.804 225.993 657.132 186.495 625.553 164.045C593.973 141.596 545.433 144.688 517.14 170.95Z" fill="#EFCCA9"/>
<path d="M517.14 170.95C488.847 197.213 491.511 236.711 523.098 259.161C554.678 281.61 603.218 278.518 631.511 252.256C659.804 225.993 657.132 186.495 625.553 164.045C593.973 141.596 545.433 144.688 517.14 170.95Z" stroke="#495654" stroke-width="1.29" stroke-miterlimit="10"/>
<path d="M521.409 149.951C494.636 172.999 496.993 207.471 526.676 226.952C556.359 246.432 602.135 243.539 628.908 220.499C655.681 197.451 653.323 162.979 623.641 143.498C593.958 124.018 548.182 126.91 521.409 149.951Z" fill="#EFCCA9"/>
<path d="M521.409 149.951C494.636 172.999 496.993 207.471 526.676 226.952C556.359 246.432 602.135 243.539 628.908 220.499C655.681 197.451 653.323 162.979 623.641 143.498C593.958 124.018 548.182 126.91 521.409 149.951Z" stroke="#495654" stroke-width="1.29" stroke-miterlimit="10"/>
<path d="M525.67 128.959C500.41 148.784 502.46 178.247 530.254 194.758C558.04 211.269 601.044 208.584 626.305 188.75C651.565 168.917 649.515 139.462 621.721 122.951C593.935 106.44 550.931 109.125 525.67 128.959Z" fill="#EFCCA9"/>
<path d="M525.67 128.959C500.41 148.784 502.46 178.247 530.254 194.758C558.04 211.269 601.044 208.584 626.305 188.75C651.565 168.917 649.515 139.462 621.721 122.951C593.935 106.44 550.931 109.125 525.67 128.959Z" stroke="#495654" stroke-width="1.29" stroke-miterlimit="10"/>
<path d="M529.939 107.959C506.199 124.57 507.942 149.007 533.832 162.549C559.722 176.091 599.962 173.605 623.702 156.994C647.442 140.383 645.7 115.946 619.81 102.404C593.92 88.8625 553.679 91.3484 529.939 107.959Z" fill="#EFCCA9"/>
<path d="M529.939 107.959C506.199 124.57 507.942 149.007 533.832 162.549C559.722 176.091 599.962 173.605 623.702 156.994C647.442 140.383 645.7 115.946 619.81 102.404C593.92 88.8625 553.679 91.3484 529.939 107.959Z" stroke="#495654" stroke-width="1.29" stroke-miterlimit="10"/>
<path d="M534.208 86.9673C511.98 100.356 513.416 119.782 537.41 130.347C561.403 140.912 598.871 138.634 621.099 125.238C643.327 111.849 641.891 92.4225 617.897 81.8575C593.904 71.2848 556.435 73.5712 534.208 86.9673Z" fill="#EFCCA9"/>
<path d="M534.208 86.9673C511.98 100.356 513.416 119.782 537.41 130.347C561.403 140.912 598.871 138.634 621.099 125.238C643.327 111.849 641.891 92.4225 617.897 81.8575C593.904 71.2848 556.435 73.5712 534.208 86.9673Z" stroke="#495654" stroke-width="1.29" stroke-miterlimit="10"/>
<path d="M538.469 65.9679C517.762 76.1416 518.89 90.5428 540.987 98.1462C563.085 105.742 597.789 103.663 618.496 93.489C639.204 83.3153 638.075 68.9141 615.978 61.3107C593.881 53.7073 559.177 55.7942 538.469 65.9679Z" fill="#EFCCA9"/>
<path d="M538.469 65.9679C517.762 76.1416 518.89 90.5428 540.987 98.1462C563.085 105.742 597.789 103.663 618.496 93.489C639.204 83.3153 638.075 68.9141 615.978 61.3107C593.881 53.7073 559.177 55.7942 538.469 65.9679Z" stroke="#495654" stroke-width="1.29" stroke-miterlimit="10"/>
<path d="M307.248 354.399C307.609 360.836 302.687 366.345 296.246 366.706C289.804 367.066 284.291 362.148 283.93 355.711C283.569 349.274 288.491 343.765 294.933 343.404C301.375 343.044 306.887 347.962 307.248 354.399Z" fill="#EFCCA9"/>
<path d="M307.248 354.399C307.609 360.836 302.687 366.345 296.246 366.706C289.804 367.066 284.291 362.148 283.93 355.711C283.569 349.274 288.491 343.765 294.933 343.404C301.375 343.044 306.887 347.962 307.248 354.399Z" stroke="#495654" stroke-width="1.29" stroke-miterlimit="10"/>
<path d="M300.346 375.637C300.852 384.675 293.935 392.416 284.89 392.923C275.845 393.429 268.098 386.516 267.592 377.478C267.085 368.44 274.003 360.698 283.047 360.192C292.092 359.686 299.839 366.598 300.346 375.637Z" fill="#EFCCA9"/>
<path d="M300.346 375.637C300.852 384.675 293.935 392.416 284.89 392.923C275.845 393.429 268.098 386.516 267.592 377.478C267.085 368.44 274.003 360.698 283.047 360.192C292.092 359.686 299.839 366.598 300.346 375.637Z" stroke="#495654" stroke-width="1.29" stroke-miterlimit="10"/>
<path d="M293.451 396.866C294.111 408.505 285.197 418.472 273.55 419.132C261.902 419.784 251.929 410.884 251.276 399.245C250.616 387.606 259.53 377.639 271.177 376.979C282.825 376.327 292.798 385.227 293.459 396.866" fill="#EFCCA9"/>
<path d="M293.451 396.866C294.111 408.505 285.197 418.472 273.55 419.132C261.902 419.784 251.929 410.884 251.276 399.245C250.616 387.606 259.53 377.639 271.177 376.979C282.825 376.327 292.798 385.227 293.459 396.866H293.451Z" stroke="#495654" stroke-width="1.29" stroke-miterlimit="10"/>
<path d="M286.548 418.104C287.354 432.344 276.452 444.535 262.201 445.341C247.951 446.146 235.751 435.251 234.945 421.011C234.139 406.771 245.041 394.58 259.292 393.774C273.542 392.969 285.742 403.863 286.548 418.104Z" fill="#EFCCA9"/>
<path d="M286.548 418.104C287.354 432.344 276.452 444.535 262.201 445.341C247.951 446.146 235.751 435.251 234.945 421.011C234.139 406.771 245.041 394.58 259.292 393.774C273.542 392.969 285.742 403.863 286.548 418.104Z" stroke="#495654" stroke-width="1.29" stroke-miterlimit="10"/>
<path d="M279.654 439.341C280.606 456.182 267.714 470.606 250.854 471.558C234.001 472.509 219.566 459.619 218.614 442.778C217.662 425.937 230.561 411.513 247.414 410.562C264.267 409.61 278.701 422.5 279.646 439.341" fill="#EFCCA9"/>
<path d="M279.654 439.341C280.606 456.182 267.714 470.606 250.854 471.558C234.001 472.509 219.566 459.619 218.614 442.778C217.662 425.937 230.561 411.513 247.414 410.562C264.267 409.61 278.701 422.5 279.646 439.341H279.654Z" stroke="#495654" stroke-width="1.29" stroke-miterlimit="10"/>
<path d="M272.751 460.571C273.849 480.013 258.962 496.662 239.506 497.759C220.05 498.856 203.389 483.98 202.291 464.537C201.193 445.095 216.08 428.446 235.536 427.349C254.992 426.252 271.653 441.129 272.751 460.571Z" fill="#EFCCA9"/>
<path d="M272.751 460.571C273.849 480.013 258.962 496.662 239.506 497.759C220.05 498.856 203.389 483.98 202.291 464.537C201.193 445.095 216.08 428.446 235.536 427.349C254.992 426.252 271.653 441.129 272.751 460.571Z" stroke="#495654" stroke-width="1.29" stroke-miterlimit="10"/>
<path d="M265.856 481.808C267.1 503.851 250.224 522.733 228.165 523.976C206.107 525.219 187.211 508.355 185.967 486.312C184.724 464.269 201.6 445.387 223.658 444.144C245.717 442.901 264.613 459.765 265.856 481.808Z" fill="#EFCCA9"/>
<path d="M246.121 518.562C265.187 507.401 271.59 482.909 260.422 463.856C249.253 444.803 224.743 438.404 205.676 449.565C186.61 460.725 180.207 485.218 191.376 504.271C202.544 523.324 227.054 529.722 246.121 518.562Z" stroke="#495654" stroke-width="1.29" stroke-miterlimit="10"/>
<path d="M269.68 370.35C270.463 384.314 282.433 394.994 296.407 394.211C310.381 393.421 321.069 381.467 320.285 367.504C319.502 353.54 307.532 342.86 293.558 343.642C279.585 344.425 268.897 356.386 269.68 370.35Z" fill="#EFCCA9"/>
<path d="M269.68 370.35C270.463 384.314 282.433 394.994 296.407 394.211C310.381 393.421 321.069 381.467 320.285 367.504C319.502 353.54 307.532 342.86 293.558 343.642C279.585 344.425 268.897 356.386 269.68 370.35Z" stroke="#495654" stroke-width="1.29" stroke-miterlimit="10"/>
<path d="M279.73 391.027C280.652 407.377 294.664 419.884 311.018 418.963C327.38 418.042 339.895 404.04 338.973 387.698C338.052 371.348 324.04 358.841 307.686 359.762C291.324 360.683 278.809 374.685 279.73 391.027Z" fill="#EFCCA9"/>
<path d="M279.73 391.027C280.652 407.377 294.664 419.884 311.018 418.963C327.38 418.042 339.895 404.04 338.973 387.698C338.052 371.348 324.04 358.841 307.686 359.762C291.324 360.683 278.809 374.685 279.73 391.027Z" stroke="#495654" stroke-width="1.29" stroke-miterlimit="10"/>
<path d="M289.781 411.705C290.84 430.441 306.887 444.766 325.637 443.714C344.379 442.656 358.721 426.62 357.669 407.884C356.61 389.148 340.563 374.823 321.813 375.874C303.064 376.933 288.729 392.969 289.781 411.705Z" fill="#EFCCA9"/>
<path d="M289.781 411.705C290.84 430.441 306.887 444.766 325.637 443.714C344.379 442.656 358.721 426.62 357.669 407.884C356.61 389.148 340.563 374.823 321.813 375.874C303.064 376.933 288.729 392.969 289.781 411.705Z" stroke="#495654" stroke-width="1.29" stroke-miterlimit="10"/>
<path d="M299.831 432.374C301.021 453.489 319.118 469.647 340.248 468.458C361.378 467.269 377.547 449.185 376.357 428.07C375.167 406.955 357.07 390.797 335.941 391.986C314.811 393.176 298.641 411.26 299.831 432.374Z" fill="#EFCCA9"/>
<path d="M299.831 432.374C301.021 453.489 319.118 469.647 340.248 468.458C361.378 467.269 377.547 449.185 376.357 428.07C375.167 406.955 357.07 390.797 335.941 391.986C314.811 393.176 298.641 411.26 299.831 432.374Z" stroke="#495654" stroke-width="1.29" stroke-miterlimit="10"/>
<path d="M309.882 453.052C311.21 476.553 331.349 494.529 354.867 493.209C378.384 491.882 396.374 471.757 395.053 448.256C393.725 424.756 373.586 406.779 350.068 408.099C326.551 409.426 308.561 429.551 309.882 453.052Z" fill="#EFCCA9"/>
<path d="M309.882 453.052C311.21 476.553 331.349 494.529 354.867 493.209C378.384 491.882 396.374 471.757 395.053 448.256C393.725 424.756 373.586 406.779 350.068 408.099C326.551 409.426 308.561 429.551 309.882 453.052Z" stroke="#495654" stroke-width="1.29" stroke-miterlimit="10"/>
<path d="M319.932 473.721C321.391 499.608 343.572 519.411 369.478 517.953C395.383 516.495 415.2 494.33 413.741 468.443C412.282 442.556 390.101 422.753 364.195 424.211C338.29 425.669 318.473 447.834 319.932 473.721Z" fill="#EFCCA9"/>
<path d="M319.932 473.721C321.391 499.608 343.572 519.411 369.478 517.953C395.383 516.495 415.2 494.33 413.741 468.443C412.282 442.556 390.101 422.753 364.195 424.211C338.29 425.669 318.473 447.834 319.932 473.721Z" stroke="#495654" stroke-width="1.29" stroke-miterlimit="10"/>
<path d="M329.983 494.399C331.58 522.672 355.804 544.3 384.097 542.705C412.39 541.109 434.026 516.902 432.437 488.629C430.84 460.356 406.616 438.735 378.323 440.323C350.03 441.919 328.393 466.126 329.983 494.399Z" fill="#EFCCA9"/>
<path d="M329.983 494.399C331.58 522.672 355.804 544.3 384.097 542.705C412.39 541.109 434.026 516.902 432.437 488.629C430.84 460.356 406.616 438.735 378.323 440.323C350.03 441.919 328.393 466.126 329.983 494.399Z" stroke="#495654" stroke-width="1.29" stroke-miterlimit="10"/>
<path d="M367.965 480.795C361.04 488.683 361.823 500.69 369.723 507.611C377.616 514.531 389.632 513.749 396.558 505.854C403.483 497.959 402.7 485.959 394.8 479.038C386.907 472.118 374.891 472.9 367.965 480.795Z" fill="#EFCCA9"/>
<path d="M367.965 480.795C361.04 488.683 361.823 500.69 369.723 507.611C377.616 514.531 389.632 513.749 396.558 505.854C403.483 497.959 402.7 485.959 394.8 479.038C386.907 472.118 374.891 472.9 367.965 480.795Z" stroke="#495654" stroke-width="1.29" stroke-miterlimit="10"/>
<path d="M377.325 454.724C368.641 464.614 369.631 479.667 379.528 488.337C389.425 497.015 404.481 496.025 413.165 486.135C421.849 476.246 420.859 461.2 410.962 452.522C401.065 443.845 386.001 444.834 377.325 454.724Z" fill="#EFCCA9"/>
<path d="M377.325 454.724C368.641 464.614 369.631 479.667 379.528 488.337C389.425 497.015 404.481 496.025 413.165 486.135C421.849 476.246 420.859 461.2 410.962 452.522C401.065 443.845 386.001 444.834 377.325 454.724Z" stroke="#495654" stroke-width="1.29" stroke-miterlimit="10"/>
<path d="M386.684 428.646C376.25 440.538 377.432 458.63 389.333 469.056C401.234 479.483 419.338 478.302 429.773 466.41C440.207 454.517 439.025 436.425 427.124 425.999C415.223 415.572 397.118 416.753 386.684 428.646Z" fill="#EFCCA9"/>
<path d="M386.684 428.646C376.25 440.538 377.432 458.63 389.333 469.056C401.234 479.483 419.338 478.302 429.773 466.41C440.207 454.517 439.025 436.425 427.124 425.999C415.223 415.572 397.118 416.753 386.684 428.646Z" stroke="#495654" stroke-width="1.29" stroke-miterlimit="10"/>
<path d="M396.051 402.575C383.858 416.462 385.24 437.599 399.145 449.783C413.042 461.967 434.195 460.586 446.388 446.691C458.58 432.804 457.198 411.666 443.293 399.483C429.396 387.299 408.244 388.68 396.051 402.575Z" fill="#EFCCA9"/>
<path d="M396.051 402.575C383.858 416.462 385.24 437.599 399.145 449.783C413.042 461.967 434.195 460.586 446.388 446.691C458.58 432.804 457.198 411.666 443.293 399.483C429.396 387.299 408.244 388.68 396.051 402.575Z" stroke="#495654" stroke-width="1.29" stroke-miterlimit="10"/>
<path d="M405.41 376.503C391.46 392.393 393.041 416.577 408.942 430.51C424.843 444.451 449.044 442.87 462.995 426.981C476.946 411.091 475.364 386.907 459.455 372.966C443.554 359.026 419.354 360.606 405.403 376.503" fill="#EFCCA9"/>
<path d="M405.41 376.503C391.46 392.393 393.041 416.577 408.942 430.51C424.843 444.451 449.044 442.87 462.995 426.981C476.946 411.091 475.364 386.907 459.455 372.966C443.554 359.026 419.354 360.606 405.403 376.503H405.41Z" stroke="#495654" stroke-width="1.29" stroke-miterlimit="10"/>
<path d="M414.77 350.432C399.069 368.324 400.85 395.546 418.747 411.244C436.652 426.934 463.894 425.154 479.603 407.27C495.304 389.378 493.523 362.156 475.626 346.458C457.721 330.768 430.479 332.548 414.77 350.432Z" fill="#EFCCA9"/>
<path d="M414.77 350.432C399.069 368.324 400.85 395.546 418.747 411.244C436.652 426.934 463.894 425.154 479.603 407.27C495.304 389.378 493.523 362.156 475.626 346.458C457.721 330.768 430.479 332.548 414.77 350.432Z" stroke="#495654" stroke-width="1.29" stroke-miterlimit="10"/>
<path d="M424.13 324.361C406.67 344.248 408.651 374.524 428.56 391.971C448.461 409.418 478.758 407.439 496.218 387.552C513.677 367.665 511.697 337.389 491.788 319.942C471.886 302.495 441.589 304.474 424.13 324.369" fill="#EFCCA9"/>
<path d="M424.13 324.361C406.67 344.248 408.651 374.524 428.56 391.971C448.461 409.418 478.758 407.439 496.218 387.552C513.677 367.665 511.697 337.389 491.788 319.942C471.886 302.495 441.589 304.474 424.13 324.369V324.361Z" stroke="#495654" stroke-width="1.29" stroke-miterlimit="10"/>
<path d="M433.496 298.29C414.278 320.18 416.459 353.494 438.364 372.698C460.269 391.902 493.607 389.723 512.825 367.834C532.043 345.944 529.862 312.63 507.957 293.426C486.052 274.222 452.714 276.401 433.496 298.29Z" fill="#EFCCA9"/>
<path d="M433.496 298.29C414.278 320.18 416.459 353.494 438.364 372.698C460.269 391.902 493.607 389.723 512.825 367.834C532.043 345.944 529.862 312.63 507.957 293.426C486.052 274.222 452.714 276.401 433.496 298.29Z" stroke="#495654" stroke-width="1.29" stroke-miterlimit="10"/>
<path d="M442.856 272.219C421.88 296.111 424.26 332.471 448.169 353.425C472.078 374.386 508.456 372 529.432 348.115C550.409 324.223 548.028 287.863 524.119 266.91C500.21 245.949 463.824 248.335 442.856 272.219Z" fill="#EFCCA9"/>
<path d="M490.746 367.509C522.448 364.977 546.093 337.243 543.559 305.564C541.025 273.884 513.271 250.256 481.569 252.788C449.867 255.32 426.222 283.054 428.756 314.734C431.29 346.413 459.044 370.041 490.746 367.509Z" stroke="#495654" stroke-width="1.29" stroke-miterlimit="10"/>
<path d="M452.215 246.148C429.489 272.043 432.068 311.441 457.974 334.152C483.887 356.862 523.313 354.284 546.04 328.397C568.766 302.503 566.187 263.104 540.281 240.394C514.368 217.683 474.942 220.261 452.215 246.148Z" fill="#EFCCA9"/>
<path d="M452.215 246.148C429.489 272.043 432.068 311.441 457.974 334.152C483.887 356.862 523.313 354.284 546.04 328.397C568.766 302.503 566.187 263.104 540.281 240.394C514.368 217.683 474.942 220.261 452.215 246.148Z" stroke="#495654" stroke-width="1.29" stroke-miterlimit="10"/>
<path d="M429.466 232.169C408.029 260.542 413.595 298.52 441.911 316.988C470.228 335.456 510.56 327.423 532.004 299.05C553.441 270.677 547.875 232.698 519.558 214.231C491.242 195.763 450.91 203.796 429.466 232.169Z" fill="#EFCCA9"/>
<path d="M429.466 232.169C408.029 260.542 413.595 298.52 441.911 316.988C470.228 335.456 510.56 327.423 532.004 299.05C553.441 270.677 547.875 232.698 519.558 214.231C491.242 195.763 450.91 203.796 429.466 232.169Z" stroke="#495654" stroke-width="1.29" stroke-miterlimit="10"/>
<path d="M406.716 218.182C386.561 249.041 395.13 285.592 425.849 299.817C456.569 314.042 497.807 300.554 517.961 269.695C538.116 238.836 529.547 202.285 498.828 188.06C468.109 173.835 426.87 187.323 406.716 218.182Z" fill="#EFCCA9"/>
<path d="M406.716 218.182C386.561 249.041 395.13 285.592 425.849 299.817C456.569 314.042 497.807 300.554 517.961 269.695C538.116 238.836 529.547 202.285 498.828 188.06C468.109 173.835 426.87 187.323 406.716 218.182Z" stroke="#495654" stroke-width="1.29" stroke-miterlimit="10"/>
<path d="M383.974 204.195C365.109 237.54 376.672 272.664 409.795 282.646C442.917 292.628 485.069 273.692 503.926 240.348C522.791 207.003 511.228 171.879 478.105 161.897C444.983 151.915 402.831 170.851 383.974 204.195Z" fill="#EFCCA9"/>
<path d="M383.974 204.195C365.109 237.54 376.672 272.664 409.795 282.646C442.917 292.628 485.069 273.692 503.926 240.348C522.791 207.003 511.228 171.879 478.105 161.897C444.983 151.915 402.831 170.851 383.974 204.195Z" stroke="#495654" stroke-width="1.29" stroke-miterlimit="10"/>
<path d="M361.224 190.216C343.649 226.046 358.199 259.736 393.733 265.475C429.266 271.214 472.316 246.823 489.891 210.993C507.466 175.162 492.916 141.465 457.383 135.726C421.849 129.987 378.799 154.378 361.224 190.208" fill="#EFCCA9"/>
<path d="M361.224 190.216C343.649 226.046 358.199 259.736 393.733 265.475C429.266 271.214 472.316 246.823 489.891 210.993C507.466 175.162 492.916 141.465 457.383 135.726C421.849 129.987 378.799 154.378 361.224 190.208V190.216Z" stroke="#495654" stroke-width="1.29" stroke-miterlimit="10"/>
<path d="M338.474 176.229C322.189 214.538 339.734 246.808 377.67 248.304C415.607 249.8 459.563 219.954 475.856 181.638C492.141 143.329 474.597 111.059 436.66 109.563C398.723 108.067 354.767 137.913 338.482 176.229" fill="#EFCCA9"/>
<path d="M338.474 176.229C322.189 214.538 339.734 246.808 377.67 248.304C415.607 249.8 459.563 219.954 475.856 181.638C492.141 143.329 474.597 111.059 436.66 109.563C398.723 108.067 354.767 137.913 338.482 176.229H338.474Z" stroke="#495654" stroke-width="1.29" stroke-miterlimit="10"/>
<path d="M315.725 162.25C300.722 203.044 321.268 233.888 361.608 231.141C401.948 228.394 446.81 193.093 461.813 152.299C476.815 111.504 456.269 80.6607 415.929 83.4074C375.59 86.1542 330.727 121.455 315.725 162.25Z" fill="#EFCCA9"/>
<path d="M315.725 162.25C300.722 203.044 321.268 233.888 361.608 231.141C401.948 228.394 446.81 193.093 461.813 152.299C476.815 111.504 456.269 80.6607 415.929 83.4074C375.59 86.1542 330.727 121.455 315.725 162.25Z" stroke="#495654" stroke-width="1.29" stroke-miterlimit="10"/>
<path d="M292.975 148.263C279.262 191.543 302.795 220.959 345.545 213.97C388.289 206.98 434.057 166.224 447.77 122.944C461.482 79.6632 437.949 50.247 395.199 57.2366C352.456 64.2262 306.687 104.982 292.975 148.263Z" fill="#EFCCA9"/>
<path d="M292.975 148.263C279.262 191.543 302.795 220.959 345.545 213.97C388.289 206.98 434.057 166.224 447.77 122.944C461.482 79.6632 437.949 50.247 395.199 57.2366C352.456 64.2262 306.687 104.982 292.975 148.263Z" stroke="#495654" stroke-width="1.29" stroke-miterlimit="10"/>
<path d="M270.225 134.276C257.802 180.042 284.33 208.031 329.484 196.799C374.638 185.566 421.312 139.355 433.735 93.5887C446.158 47.8224 419.63 19.8333 374.476 31.0658C329.322 42.2983 282.648 88.5095 270.225 134.276Z" fill="#EFCCA9"/>
<path d="M270.225 134.276C257.802 180.042 284.33 208.031 329.484 196.799C374.638 185.566 421.312 139.355 433.735 93.5887C446.158 47.8224 419.63 19.8333 374.476 31.0658C329.322 42.2983 282.648 88.5095 270.225 134.276Z" stroke="#495654" stroke-width="1.29" stroke-miterlimit="10"/>
<path d="M247.476 120.297C236.335 168.549 265.864 195.111 313.421 179.636C360.979 164.16 408.559 112.494 419.692 64.2493C430.832 15.9971 401.303 -10.5649 353.746 4.91042C306.189 20.3858 258.609 72.0522 247.476 120.297Z" fill="#EFCCA9"/>
<path d="M247.476 120.297C236.335 168.549 265.864 195.111 313.421 179.636C360.979 164.16 408.559 112.494 419.692 64.2493C430.832 15.9971 401.303 -10.5649 353.746 4.91042C306.189 20.3858 258.609 72.0522 247.476 120.297Z" stroke="#495654" stroke-width="1.29" stroke-miterlimit="10"/>
<path d="M231.736 470.23C238.561 476.43 239.061 486.987 232.849 493.808C226.645 500.629 216.08 501.127 209.255 494.92C202.429 488.721 201.93 478.164 208.141 471.343C214.345 464.522 224.91 464.023 231.736 470.23Z" fill="#EFCCA9"/>
<path d="M231.736 470.23C238.561 476.43 239.061 486.987 232.849 493.808C226.645 500.629 216.08 501.127 209.255 494.92C202.429 488.721 201.93 478.164 208.141 471.343C214.345 464.522 224.91 464.023 231.736 470.23Z" stroke="#495654" stroke-width="1.29" stroke-miterlimit="10"/>
<path d="M220.986 448.395C229.54 456.167 230.161 469.402 222.384 477.949C214.606 486.496 201.361 487.117 192.808 479.345C184.255 471.573 183.625 458.338 191.411 449.791C199.189 441.244 212.433 440.615 220.986 448.395Z" fill="#EFCCA9"/>
<path d="M220.986 448.395C229.54 456.167 230.161 469.402 222.384 477.949C214.606 486.496 201.361 487.117 192.808 479.345C184.255 471.573 183.625 458.338 191.411 449.791C199.189 441.244 212.433 440.615 220.986 448.395Z" stroke="#495654" stroke-width="1.29" stroke-miterlimit="10"/>
<path d="M210.245 426.566C220.526 435.911 221.278 451.824 211.926 462.098C202.575 472.371 186.651 473.123 176.37 463.778C166.089 454.433 165.337 438.52 174.688 428.247C184.04 417.973 199.964 417.221 210.245 426.566Z" fill="#EFCCA9"/>
<path d="M210.245 426.566C220.526 435.911 221.278 451.824 211.926 462.098C202.575 472.371 186.651 473.123 176.37 463.778C166.089 454.433 165.337 438.52 174.688 428.247C184.04 417.973 199.964 417.221 210.245 426.566Z" stroke="#495654" stroke-width="1.29" stroke-miterlimit="10"/>
<path d="M199.503 404.738C211.519 415.656 212.395 434.239 201.469 446.246C190.543 458.246 171.947 459.128 159.931 448.21C147.915 437.292 147.04 418.71 157.966 406.702C168.892 394.695 187.487 393.82 199.503 404.738Z" fill="#EFCCA9"/>
<path d="M199.503 404.738C211.519 415.656 212.395 434.239 201.469 446.246C190.543 458.246 171.947 459.128 159.931 448.21C147.915 437.292 147.04 418.71 157.966 406.702C168.892 394.695 187.487 393.82 199.503 404.738Z" stroke="#495654" stroke-width="1.29" stroke-miterlimit="10"/>
<path d="M188.754 382.91C202.498 395.401 203.504 416.661 191.004 430.395C178.504 444.129 157.229 445.134 143.485 432.643C129.742 420.152 128.736 398.892 141.236 385.158C153.735 371.424 175.011 370.419 188.754 382.91Z" fill="#EFCCA9"/>
<path d="M188.754 382.91C202.498 395.401 203.504 416.661 191.004 430.395C178.504 444.129 157.229 445.134 143.485 432.643C129.742 420.152 128.736 398.892 141.236 385.158C153.735 371.424 175.011 370.419 188.754 382.91Z" stroke="#495654" stroke-width="1.29" stroke-miterlimit="10"/>
<path d="M178.013 361.074C193.484 375.138 194.62 399.076 180.547 414.536C166.473 429.996 142.518 431.131 127.047 417.06C111.576 402.996 110.439 379.058 124.521 363.598C138.594 348.138 162.55 347.003 178.021 361.066" fill="#EFCCA9"/>
<path d="M178.013 361.074C193.484 375.138 194.62 399.076 180.547 414.536C166.473 429.996 142.518 431.131 127.047 417.06C111.576 402.996 110.439 379.058 124.521 363.598C138.594 348.138 162.55 347.003 178.021 361.066L178.013 361.074Z" stroke="#495654" stroke-width="1.29" stroke-miterlimit="10"/>
<path d="M167.272 339.246C184.47 354.883 185.737 381.498 170.082 398.685C154.434 415.871 127.799 417.129 110.601 401.493C93.4021 385.856 92.1429 359.24 107.791 342.054C123.438 324.86 150.073 323.602 167.272 339.246Z" fill="#EFCCA9"/>
<path d="M167.272 339.246C184.47 354.883 185.737 381.498 170.082 398.685C154.434 415.871 127.799 417.129 110.601 401.493C93.4021 385.856 92.1429 359.24 107.791 342.054C123.438 324.86 150.073 323.602 167.272 339.246Z" stroke="#495654" stroke-width="1.29" stroke-miterlimit="10"/>
<path d="M156.523 317.418C175.456 334.627 176.838 363.913 159.617 382.833C142.395 401.754 113.081 403.135 94.1546 385.925C75.2285 368.716 73.8388 339.43 91.0604 320.51C108.282 301.589 137.589 300.208 156.523 317.418Z" fill="#EFCCA9"/>
<path d="M156.523 317.418C175.456 334.627 176.838 363.913 159.617 382.833C142.395 401.754 113.081 403.135 94.1546 385.925C75.2285 368.716 73.8388 339.43 91.0604 320.51C108.282 301.589 137.589 300.208 156.523 317.418Z" stroke="#495654" stroke-width="1.29" stroke-miterlimit="10"/>
<path d="M145.781 295.582C166.442 314.364 167.955 346.328 149.159 366.974C130.364 387.621 98.3775 389.132 77.7161 370.35C57.0548 351.568 55.5422 319.604 74.3378 298.958C93.1334 278.311 125.12 276.8 145.781 295.582Z" fill="#EFCCA9"/>
<path d="M115.427 383.367C143.285 381.342 164.226 357.133 162.2 329.295C160.174 301.457 135.948 280.531 108.09 282.556C80.2318 284.581 59.291 308.789 61.3172 336.628C63.3434 364.466 87.5693 385.392 115.427 383.367Z" stroke="#495654" stroke-width="1.29" stroke-miterlimit="10"/>
<path d="M135.04 273.754C157.429 294.109 159.072 328.75 138.702 351.123C118.333 373.496 83.6667 375.138 61.2779 354.783C38.889 334.428 37.2459 299.786 57.6155 277.414C77.9851 255.041 112.651 253.399 135.04 273.754Z" fill="#EFCCA9"/>
<path d="M135.04 273.754C157.429 294.109 159.072 328.75 138.702 351.123C118.333 373.496 83.6667 375.138 61.2779 354.783C38.889 334.428 37.2459 299.786 57.6155 277.414C77.9851 255.041 112.651 253.399 135.04 273.754Z" stroke="#495654" stroke-width="1.29" stroke-miterlimit="10"/>
<path d="M137.535 249.493C161.513 269.02 163.056 302.48 140.99 324.223C118.924 345.967 81.6011 347.77 57.6306 328.244C33.6524 308.717 32.1091 275.258 54.1755 253.514C76.2419 231.77 113.564 229.975 137.535 249.501" fill="#EFCCA9"/>
<path d="M137.535 249.493C161.513 269.02 163.056 302.48 140.99 324.223C118.924 345.967 81.6011 347.77 57.6306 328.244C33.6524 308.717 32.1091 275.258 54.1755 253.514C76.2419 231.77 113.564 229.975 137.535 249.501V249.493Z" stroke="#495654" stroke-width="1.29" stroke-miterlimit="10"/>
<path d="M140.038 225.233C165.598 243.931 167.057 276.201 143.294 297.316C119.53 318.431 79.5513 320.387 53.9991 301.689C28.4393 282.991 26.9804 250.721 50.7437 229.606C74.4992 208.492 114.486 206.535 140.038 225.233Z" fill="#EFCCA9"/>
<path d="M140.038 225.233C165.598 243.931 167.057 276.201 143.294 297.316C119.53 318.431 79.5513 320.387 53.9991 301.689C28.4393 282.991 26.9804 250.721 50.7437 229.606C74.4992 208.492 114.486 206.535 140.038 225.233Z" stroke="#495654" stroke-width="1.29" stroke-miterlimit="10"/>
<path d="M142.533 200.973C169.675 218.842 171.042 249.931 145.589 270.416C120.137 290.902 77.4935 293.019 50.3597 275.15C23.2182 257.281 21.8515 226.192 47.3039 205.707C72.7562 185.221 115.4 183.104 142.541 200.973" fill="#EFCCA9"/>
<path d="M142.533 200.973C169.675 218.842 171.042 249.931 145.589 270.416C120.137 290.902 77.4935 293.019 50.3597 275.15C23.2182 257.281 21.8515 226.192 47.3039 205.707C72.7562 185.221 115.4 183.104 142.541 200.973H142.533Z" stroke="#495654" stroke-width="1.29" stroke-miterlimit="10"/>
<path d="M145.036 176.705C173.76 193.745 175.034 223.653 147.885 243.501C120.736 263.358 75.4435 265.636 46.7203 248.596C17.9972 231.555 16.7226 201.648 43.8718 181.799C71.021 161.951 116.313 159.672 145.036 176.705Z" fill="#EFCCA9"/>
<path d="M145.036 176.705C173.76 193.745 175.034 223.653 147.885 243.501C120.736 263.358 75.4435 265.636 46.7203 248.596C17.9972 231.555 16.7226 201.648 43.8718 181.799C71.021 161.951 116.313 159.672 145.036 176.705Z" stroke="#495654" stroke-width="1.29" stroke-miterlimit="10"/>
<path d="M147.532 152.444C177.836 168.656 179.027 197.382 150.181 216.602C121.335 235.821 73.3858 238.261 43.0733 222.049C12.7685 205.837 11.5784 177.111 40.4244 157.892C69.2704 138.672 117.219 136.232 147.524 152.444" fill="#EFCCA9"/>
<path d="M147.532 152.444C177.836 168.656 179.027 197.382 150.181 216.602C121.335 235.821 73.3858 238.261 43.0733 222.049C12.7685 205.837 11.5784 177.111 40.4244 157.892C69.2704 138.672 117.219 136.232 147.524 152.444H147.532Z" stroke="#495654" stroke-width="1.29" stroke-miterlimit="10"/>
<path d="M150.035 128.184C181.921 143.567 183.019 171.104 152.476 189.694C121.933 208.285 71.328 210.886 39.4338 195.502C7.54732 180.119 6.44937 152.583 36.9922 133.992C67.5351 115.402 118.14 112.801 150.035 128.184Z" fill="#EFCCA9"/>
<path d="M150.035 128.184C181.921 143.567 183.019 171.104 152.476 189.694C121.933 208.285 71.328 210.886 39.4338 195.502C7.54732 180.119 6.44937 152.583 36.9922 133.992C67.5351 115.402 118.14 112.801 150.035 128.184Z" stroke="#495654" stroke-width="1.29" stroke-miterlimit="10"/>
<path d="M152.53 103.924C186.006 118.478 187.004 144.833 154.772 162.794C122.54 180.756 69.2703 183.518 35.7945 168.963C2.31863 154.408 1.3205 128.054 33.5525 110.092C65.7845 92.131 119.054 89.3689 152.53 103.924Z" fill="#EFCCA9"/>
<path d="M152.53 103.924C186.006 118.478 187.004 144.833 154.772 162.794C122.54 180.756 69.2703 183.518 35.7945 168.963C2.31863 154.408 1.3205 128.054 33.5525 110.092C65.7845 92.131 119.054 89.3689 152.53 103.924Z" stroke="#495654" stroke-width="1.29" stroke-miterlimit="10"/>
<path d="M155.033 79.6632C190.091 93.3893 191.004 118.563 157.068 135.887C123.139 153.212 67.2128 156.135 32.1553 142.409C-2.90218 128.683 -3.81586 103.509 30.1206 86.1848C64.0495 68.8604 119.976 65.9372 155.033 79.6632Z" fill="#EFCCA9"/>
<path d="M155.033 79.6632C190.091 93.3893 191.004 118.563 157.068 135.887C123.139 153.212 67.2128 156.135 32.1553 142.409C-2.90218 128.683 -3.81586 103.509 30.1206 86.1848C64.0495 68.8604 119.976 65.9372 155.033 79.6632Z" stroke="#495654" stroke-width="1.29" stroke-miterlimit="10"/>
<path d="M157.536 55.3952C194.175 68.2927 194.997 92.2845 159.371 108.98C123.745 125.675 65.1627 128.759 28.5235 115.862C-8.11561 102.965 -8.93715 78.9727 26.6885 62.2774C62.3141 45.5821 120.897 42.4978 157.536 55.3952Z" fill="#EFCCA9"/>
<path d="M157.536 55.3952C194.175 68.2927 194.997 92.2845 159.371 108.98C123.745 125.675 65.1627 128.759 28.5235 115.862C-8.11561 102.965 -8.93715 78.9727 26.6885 62.2774C62.3141 45.5821 120.897 42.4978 157.536 55.3952Z" stroke="#495654" stroke-width="1.29" stroke-miterlimit="10"/>
<path d="M813.869 333.561C818.652 341.21 816.334 351.284 808.679 356.064C801.031 360.844 790.943 358.527 786.159 350.877C781.376 343.228 783.695 333.154 791.35 328.374C798.997 323.594 809.086 325.911 813.869 333.561Z" fill="#EFCCA9"/>
<path d="M813.869 333.561C818.652 341.21 816.334 351.284 808.679 356.064C801.031 360.844 790.943 358.527 786.159 350.877C781.376 343.228 783.695 333.154 791.35 328.374C798.997 323.594 809.086 325.911 813.869 333.561Z" stroke="#495654" stroke-width="1.29" stroke-miterlimit="10"/>
<path d="M840.888 322.65C846.885 332.233 843.975 344.862 834.385 350.854C824.795 356.846 812.157 353.939 806.161 344.356C800.164 334.773 803.074 322.144 812.664 316.152C822.254 310.16 834.892 313.067 840.888 322.65Z" fill="#EFCCA9"/>
<path d="M840.888 322.65C846.885 332.233 843.975 344.862 834.385 350.854C824.795 356.846 812.157 353.939 806.161 344.356C800.164 334.773 803.074 322.144 812.664 316.152C822.254 310.16 834.892 313.067 840.888 322.65Z" stroke="#495654" stroke-width="1.29" stroke-miterlimit="10"/>
<path d="M867.899 311.748C875.108 323.272 871.607 338.456 860.075 345.66C848.543 352.865 833.348 349.366 826.139 337.842C818.929 326.318 822.43 311.134 833.962 303.93C845.495 296.725 860.689 300.224 867.899 311.748Z" fill="#EFCCA9"/>
<path d="M867.899 311.748C875.108 323.272 871.607 338.456 860.075 345.66C848.543 352.865 833.348 349.366 826.139 337.842C818.929 326.318 822.43 311.134 833.962 303.93C845.495 296.725 860.689 300.224 867.899 311.748Z" stroke="#495654" stroke-width="1.29" stroke-miterlimit="10"/>
<path d="M894.918 300.838C903.341 314.295 899.248 332.034 885.781 340.458C872.306 348.875 854.563 344.785 846.132 331.328C837.71 317.87 841.802 300.132 855.269 291.707C868.744 283.291 886.487 287.38 894.918 300.838Z" fill="#EFCCA9"/>
<path d="M894.918 300.838C903.341 314.295 899.248 332.034 885.781 340.458C872.306 348.875 854.563 344.785 846.132 331.328C837.71 317.87 841.802 300.132 855.269 291.707C868.744 283.291 886.487 287.38 894.918 300.838Z" stroke="#495654" stroke-width="1.29" stroke-miterlimit="10"/>
<path d="M921.928 289.927C931.564 305.326 926.888 325.62 911.479 335.249C896.069 344.878 875.761 340.205 866.125 324.806C856.489 309.408 861.165 289.114 876.575 279.485C891.984 269.856 912.292 274.529 921.928 289.927Z" fill="#EFCCA9"/>
<path d="M921.928 289.927C931.564 305.326 926.888 325.62 911.479 335.249C896.069 344.878 875.761 340.205 866.125 324.806C856.489 309.408 861.165 289.114 876.575 279.485C891.984 269.856 912.292 274.529 921.928 289.927Z" stroke="#495654" stroke-width="1.29" stroke-miterlimit="10"/>
<path d="M948.948 279.017C959.797 296.357 954.53 319.205 937.177 330.047C919.825 340.888 896.96 335.625 886.111 318.285C875.263 300.945 880.53 278.096 897.882 267.255C915.234 256.414 938.091 261.677 948.948 279.017Z" fill="#EFCCA9"/>
<path d="M948.948 279.017C959.797 296.357 954.53 319.205 937.177 330.047C919.825 340.888 896.96 335.625 886.111 318.285C875.263 300.945 880.53 278.096 897.882 267.255C915.234 256.414 938.091 261.677 948.948 279.017Z" stroke="#495654" stroke-width="1.29" stroke-miterlimit="10"/>
<path d="M975.966 268.107C988.028 287.38 982.17 312.784 962.883 324.837C943.596 336.89 918.174 331.036 906.112 311.763C894.05 292.49 899.908 267.086 919.195 255.033C938.482 242.979 963.904 248.834 975.966 268.107Z" fill="#EFCCA9"/>
<path d="M975.966 268.107C988.028 287.38 982.17 312.784 962.883 324.837C943.596 336.89 918.174 331.036 906.112 311.763C894.05 292.49 899.908 267.086 919.195 255.033C938.482 242.979 963.904 248.834 975.966 268.107Z" stroke="#495654" stroke-width="1.29" stroke-miterlimit="10"/>
<path d="M1002.98 257.204C1016.25 278.419 1009.81 306.377 988.573 319.643C967.343 332.908 939.365 326.471 926.09 305.249C912.815 284.035 919.256 256.076 940.494 242.811C961.723 229.545 989.701 235.982 1002.98 257.204Z" fill="#EFCCA9"/>
<path d="M1002.98 257.204C1016.25 278.419 1009.81 306.377 988.573 319.643C967.343 332.908 939.365 326.471 926.09 305.249C912.815 284.035 919.256 256.076 940.494 242.811C961.723 229.545 989.701 235.982 1002.98 257.204Z" stroke="#495654" stroke-width="1.29" stroke-miterlimit="10"/>
<path d="M1030 246.294C1044.48 269.449 1037.45 299.955 1014.28 314.441C991.107 328.926 960.579 321.891 946.083 298.735C931.595 275.58 938.628 245.074 961.8 230.588C984.972 216.11 1015.5 223.138 1029.99 246.294" fill="#EFCCA9"/>
<path d="M1030 246.294C1044.48 269.449 1037.45 299.955 1014.28 314.441C991.107 328.926 960.579 321.891 946.083 298.735C931.595 275.58 938.628 245.074 961.8 230.588C984.972 216.11 1015.5 223.138 1029.99 246.294H1030Z" stroke="#495654" stroke-width="1.29" stroke-miterlimit="10"/>
<path d="M1057.01 235.384C1072.71 260.481 1065.08 293.541 1039.98 309.231C1014.87 324.922 981.779 317.303 966.077 292.214C950.376 267.117 958 234.057 983.107 218.366C1008.21 202.676 1041.31 210.295 1057.01 235.384Z" fill="#EFCCA9"/>
<path d="M1027.33 315.056C1055.64 306.345 1071.51 276.355 1062.8 248.072C1054.08 219.789 1024.07 203.924 995.764 212.636C967.461 221.347 951.585 251.337 960.303 279.62C969.021 307.903 999.032 323.768 1027.33 315.056Z" stroke="#495654" stroke-width="1.29" stroke-miterlimit="10"/>
<path d="M1054.12 217.752C1069.82 242.849 1062.2 275.91 1037.09 291.6C1011.98 307.29 978.891 299.671 963.19 274.582C947.488 249.486 955.112 216.425 980.219 200.735C1005.33 185.045 1038.42 192.663 1054.12 217.752Z" fill="#EFCCA9"/>
<path d="M1024.44 297.431C1052.74 288.719 1068.62 258.729 1059.9 230.447C1051.18 202.164 1021.17 186.299 992.866 195.01C964.563 203.722 948.686 233.712 957.404 261.994C966.122 290.277 996.133 306.142 1024.44 297.431Z" stroke="#495654" stroke-width="1.29" stroke-miterlimit="10"/>
<path d="M1051.22 200.121C1066.93 225.218 1059.3 258.278 1034.2 273.969C1009.09 289.659 975.996 282.04 960.295 256.951C944.594 231.855 952.218 198.794 977.325 183.104C1002.43 167.413 1035.52 175.032 1051.22 200.121Z" fill="#EFCCA9"/>
<path d="M1021.54 279.798C1049.85 271.086 1065.72 241.096 1057.01 212.814C1048.29 184.531 1018.28 168.666 989.973 177.377C961.671 186.089 945.794 216.079 954.512 244.362C963.23 272.644 993.241 288.51 1021.54 279.798Z" stroke="#495654" stroke-width="1.29" stroke-miterlimit="10"/>
<path d="M1048.34 182.497C1064.04 207.594 1056.42 240.655 1031.31 256.345C1006.19 272.035 973.11 264.416 957.408 239.327C941.707 214.231 949.331 181.17 974.438 165.48C999.545 149.79 1032.64 157.408 1048.34 182.497Z" fill="#EFCCA9"/>
<path d="M1048.34 182.497C1064.04 207.594 1056.42 240.655 1031.31 256.345C1006.19 272.035 973.11 264.416 957.408 239.327C941.707 214.231 949.331 181.17 974.438 165.48C999.545 149.79 1032.64 157.408 1048.34 182.497Z" stroke="#495654" stroke-width="1.29" stroke-miterlimit="10"/>
<path d="M1045.44 164.866C1061.14 189.963 1053.52 223.023 1028.41 238.714C1003.3 254.404 970.215 246.785 954.514 221.696C938.812 196.607 946.437 163.539 971.543 147.848C996.65 132.158 1029.74 139.777 1045.44 164.866Z" fill="#EFCCA9"/>
<path d="M1045.44 164.866C1061.14 189.963 1053.52 223.023 1028.41 238.714C1003.3 254.404 970.215 246.785 954.514 221.696C938.812 196.607 946.437 163.539 971.543 147.848C996.65 132.158 1029.74 139.777 1045.44 164.866Z" stroke="#495654" stroke-width="1.29" stroke-miterlimit="10"/>
<path d="M1042.56 147.235C1058.26 172.331 1050.63 205.392 1025.53 221.082C1000.41 236.772 967.328 229.154 951.627 204.065C935.926 178.976 943.55 145.907 968.657 130.217C993.764 114.527 1026.86 122.146 1042.56 147.235Z" fill="#EFCCA9"/>
<path d="M1042.56 147.235C1058.26 172.331 1050.63 205.392 1025.53 221.082C1000.41 236.772 967.328 229.154 951.627 204.065C935.926 178.976 943.55 145.907 968.657 130.217C993.764 114.527 1026.86 122.146 1042.56 147.235Z" stroke="#495654" stroke-width="1.29" stroke-miterlimit="10"/>
<path d="M1039.66 129.603C1055.36 154.7 1047.74 187.761 1022.63 203.451C997.518 219.141 964.434 211.522 948.732 186.433C933.031 161.344 940.655 128.276 965.762 112.586C990.869 96.8956 1023.96 104.514 1039.66 129.603Z" fill="#EFCCA9"/>
<path d="M1009.99 209.277C1038.29 200.565 1054.17 170.575 1045.45 142.293C1036.73 114.01 1006.72 98.1448 978.419 106.856C950.116 115.568 934.239 145.558 942.957 173.841C951.675 202.123 981.686 217.989 1009.99 209.277Z" stroke="#495654" stroke-width="1.29" stroke-miterlimit="10"/>
<path d="M1036.78 111.98C1052.48 137.076 1044.85 170.137 1019.75 185.827C994.639 201.518 961.547 193.899 945.846 168.81C930.144 143.713 937.769 110.652 962.875 94.9623C987.982 79.2721 1021.07 86.8908 1036.78 111.98Z" fill="#EFCCA9"/>
<path d="M1007.1 191.649C1035.4 182.938 1051.28 152.948 1042.56 124.665C1033.84 96.3828 1003.83 80.5174 975.526 89.229C947.223 97.9407 931.347 127.931 940.064 156.213C948.782 184.496 978.793 200.361 1007.1 191.649Z" stroke="#495654" stroke-width="1.29" stroke-miterlimit="10"/>
<path d="M1033.88 94.3485C1049.58 119.445 1041.96 152.506 1016.85 168.196C991.745 183.886 958.653 176.267 942.951 151.178C927.25 126.082 934.874 93.0211 959.981 77.3309C985.088 61.6407 1018.18 69.2595 1033.88 94.3485Z" fill="#EFCCA9"/>
<path d="M1004.2 174.017C1032.51 165.305 1048.38 135.315 1039.67 107.033C1030.95 78.7499 1000.94 62.8846 972.633 71.5962C944.331 80.3079 928.454 110.298 937.172 138.58C945.89 166.863 975.901 182.728 1004.2 174.017Z" stroke="#495654" stroke-width="1.29" stroke-miterlimit="10"/>
<path d="M1030.99 76.7171C1046.69 101.814 1039.06 134.874 1013.96 150.565C988.849 166.255 955.757 158.636 940.056 133.547C924.354 108.45 931.979 75.3898 957.085 59.6996C982.192 44.0094 1015.28 51.6281 1030.99 76.7171Z" fill="#EFCCA9"/>
<path d="M1001.32 156.381C1029.62 147.67 1045.5 117.68 1036.78 89.3973C1028.06 61.1147 998.05 45.2493 969.748 53.961C941.445 62.6727 925.568 92.6625 934.286 120.945C943.004 149.228 973.015 165.093 1001.32 156.381Z" stroke="#495654" stroke-width="1.29" stroke-miterlimit="10"/>
<path d="M1006.39 76.7478C1021.2 100.517 1014.79 132.389 992.075 147.941C969.348 163.493 938.92 156.825 924.102 133.056C909.283 109.287 915.694 77.4153 938.413 61.8632C961.14 46.3111 991.568 52.9784 1006.39 76.7478" fill="#EFCCA9"/>
<path d="M1006.39 76.7478C1021.2 100.517 1014.79 132.389 992.075 147.941C969.348 163.493 938.92 156.825 924.102 133.056C909.283 109.287 915.694 77.4153 938.413 61.8632C961.14 46.3111 991.568 52.9784 1006.39 76.7478H1006.39Z" stroke="#495654" stroke-width="1.29" stroke-miterlimit="10"/>
<path d="M981.786 76.7785C995.721 99.2281 990.531 129.91 970.192 145.317C949.853 160.723 922.074 155.007 908.139 132.565C894.203 110.115 899.394 79.4331 919.732 64.0268C940.071 48.6205 967.85 54.3365 981.786 76.7785Z" fill="#EFCCA9"/>
<path d="M981.786 76.7785C995.721 99.2281 990.531 129.91 970.192 145.317C949.853 160.723 922.074 155.007 908.139 132.565C894.203 110.115 899.394 79.4331 919.732 64.0268C940.071 48.6205 967.85 54.3365 981.786 76.7785Z" stroke="#495654" stroke-width="1.29" stroke-miterlimit="10"/>
<path d="M957.186 76.8091C970.231 97.9314 966.261 127.432 948.31 142.693C930.359 157.953 905.229 153.196 892.184 132.074C879.139 110.952 883.109 81.4509 901.06 66.1904C919.011 50.9298 944.141 55.6868 957.186 76.8091Z" fill="#EFCCA9"/>
<path d="M957.186 76.8091C970.231 97.9314 966.261 127.432 948.31 142.693C930.359 157.953 905.229 153.196 892.184 132.074C879.139 110.952 883.109 81.4509 901.06 66.1904C919.011 50.9298 944.141 55.6868 957.186 76.8091Z" stroke="#495654" stroke-width="1.29" stroke-miterlimit="10"/>
<path d="M932.586 76.8397C944.748 96.6423 941.992 124.946 926.428 140.061C910.865 155.176 888.392 151.378 876.222 131.575C864.06 111.772 866.817 83.4687 882.38 68.3539C897.943 53.2392 920.424 57.037 932.586 76.8397Z" fill="#EFCCA9"/>
<path d="M932.586 76.8397C944.748 96.6423 941.992 124.946 926.428 140.061C910.865 155.176 888.392 151.378 876.222 131.575C864.06 111.772 866.817 83.4687 882.38 68.3539C897.943 53.2392 920.424 57.037 932.586 76.8397Z" stroke="#495654" stroke-width="1.29" stroke-miterlimit="10"/>
<path d="M907.986 76.8705C919.264 95.3535 917.721 122.468 904.546 137.437C891.371 152.406 871.546 149.56 860.267 131.084C848.988 112.601 850.532 85.4867 863.707 70.5177C876.882 55.5488 896.707 58.3952 907.986 76.8705Z" fill="#EFCCA9"/>
<path d="M907.986 76.8705C919.264 95.3535 917.721 122.468 904.546 137.437C891.371 152.406 871.546 149.56 860.267 131.084C848.988 112.601 850.532 85.4867 863.707 70.5177C876.882 55.5488 896.707 58.3952 907.986 76.8705Z" stroke="#495654" stroke-width="1.29" stroke-miterlimit="10"/>
<path d="M883.385 76.9013C893.781 94.0569 893.459 119.99 882.664 134.813C871.868 149.636 854.701 147.749 844.312 130.586C833.916 113.43 834.239 87.4969 845.034 72.6737C855.822 57.8505 872.997 59.7379 883.385 76.9013Z" fill="#EFCCA9"/>
<path d="M883.385 76.9013C893.781 94.0569 893.459 119.99 882.664 134.813C871.868 149.636 854.701 147.749 844.312 130.586C833.916 113.43 834.239 87.4969 845.034 72.6737C855.822 57.8505 872.997 59.7379 883.385 76.9013Z" stroke="#495654" stroke-width="1.29" stroke-miterlimit="10"/>
<path d="M858.785 76.932C868.291 92.7679 869.189 117.504 860.782 132.189C852.382 146.874 837.863 145.938 828.35 130.102C818.845 114.266 817.946 89.5302 826.354 74.8451C834.753 60.1599 849.272 61.096 858.785 76.932Z" fill="#EFCCA9"/>
<path d="M858.785 76.932C868.291 92.7679 869.189 117.504 860.782 132.189C852.382 146.874 837.863 145.938 828.35 130.102C818.845 114.266 817.946 89.5302 826.354 74.8451C834.753 60.1599 849.272 61.096 858.785 76.932Z" stroke="#495654" stroke-width="1.29" stroke-miterlimit="10"/>
<path d="M834.178 76.9626C842.8 91.4789 844.912 115.026 838.9 129.565C832.88 144.104 821.018 144.12 812.395 129.603C803.773 115.087 801.662 91.5403 807.673 77.001C813.693 62.4617 825.555 62.4463 834.178 76.9626Z" fill="#EFCCA9"/>
<path d="M834.178 76.9626C842.8 91.4789 844.912 115.026 838.9 129.565C832.88 144.104 821.018 144.12 812.395 129.603C803.773 115.087 801.662 91.5403 807.673 77.001C813.693 62.4617 825.555 62.4463 834.178 76.9626Z" stroke="#495654" stroke-width="1.29" stroke-miterlimit="10"/>
<path d="M789 79.1723C792.632 64.7787 801.846 63.8043 809.585 76.9933C817.324 90.1823 820.649 112.548 817.025 126.941C813.393 141.335 804.18 142.309 796.448 129.12C788.709 115.931 785.384 93.5658 789.008 79.1723" fill="#EFCCA9"/>
<path d="M789 79.1723C792.632 64.7787 801.846 63.8043 809.585 76.9933C817.324 90.1823 820.649 112.548 817.025 126.941C813.393 141.335 804.18 142.309 796.448 129.12C788.709 115.931 785.384 93.5658 789.008 79.1723H789Z" stroke="#495654" stroke-width="1.29" stroke-miterlimit="10"/>
<path d="M847.591 497.161C852.481 504.979 850.109 515.275 842.285 520.163C834.469 525.05 824.157 522.679 819.267 514.861C814.376 507.05 816.748 496.746 824.572 491.859C832.388 486.972 842.7 489.342 847.591 497.161Z" fill="#EFCCA9"/>
<path d="M847.591 497.161C852.481 504.979 850.109 515.275 842.285 520.163C834.469 525.05 824.157 522.679 819.267 514.861C814.376 507.05 816.748 496.746 824.572 491.859C832.388 486.972 842.7 489.342 847.591 497.161Z" stroke="#495654" stroke-width="1.29" stroke-miterlimit="10"/>
<path d="M843.153 473.238C849.28 483.036 846.308 495.941 836.503 502.071C826.699 508.201 813.785 505.224 807.65 495.427C801.523 485.629 804.494 472.724 814.299 466.594C824.104 460.471 837.018 463.44 843.153 473.238Z" fill="#EFCCA9"/>
<path d="M843.153 473.238C849.28 483.036 846.308 495.941 836.503 502.071C826.699 508.201 813.785 505.224 807.65 495.427C801.523 485.629 804.494 472.724 814.299 466.594C824.104 460.471 837.018 463.44 843.153 473.238Z" stroke="#495654" stroke-width="1.29" stroke-miterlimit="10"/>
<path d="M838.715 449.323C846.086 461.1 842.508 476.621 830.722 483.987C818.937 491.353 803.404 487.777 796.034 476C788.663 464.223 792.241 448.701 804.026 441.336C815.812 433.97 831.344 437.546 838.715 449.323Z" fill="#EFCCA9"/>
<path d="M838.715 449.323C846.086 461.1 842.508 476.621 830.722 483.987C818.937 491.353 803.404 487.777 796.034 476C788.663 464.223 792.241 448.701 804.026 441.336C815.812 433.97 831.344 437.546 838.715 449.323Z" stroke="#495654" stroke-width="1.29" stroke-miterlimit="10"/>
<path d="M834.277 425.4C842.884 439.157 838.708 457.287 824.941 465.895C811.174 474.496 793.031 470.322 784.417 456.566C775.81 442.809 779.987 424.679 793.753 416.07C807.52 407.47 825.663 411.643 834.277 425.4Z" fill="#EFCCA9"/>
<path d="M834.277 425.4C842.884 439.157 838.708 457.287 824.941 465.895C811.174 474.496 793.031 470.322 784.417 456.566C775.81 442.809 779.987 424.679 793.753 416.07C807.52 407.47 825.663 411.643 834.277 425.4Z" stroke="#495654" stroke-width="1.29" stroke-miterlimit="10"/>
<path d="M829.84 401.477C839.69 417.214 834.907 437.96 819.152 447.804C803.397 457.648 782.643 452.868 772.792 437.124C762.942 421.38 767.725 400.641 783.48 390.797C799.235 380.954 819.989 385.733 829.84 401.477Z" fill="#EFCCA9"/>
<path d="M829.84 401.477C839.69 417.214 834.907 437.96 819.152 447.804C803.397 457.648 782.643 452.868 772.792 437.124C762.942 421.38 767.725 400.641 783.48 390.797C799.235 380.954 819.989 385.733 829.84 401.477Z" stroke="#495654" stroke-width="1.29" stroke-miterlimit="10"/>
<path d="M825.402 377.562C836.489 395.286 831.106 418.633 813.37 429.72C795.634 440.806 772.27 435.42 761.176 417.697C750.089 399.973 755.471 376.626 773.207 365.539C790.943 354.453 814.307 359.839 825.402 377.562Z" fill="#EFCCA9"/>
<path d="M825.402 377.562C836.489 395.286 831.106 418.633 813.37 429.72C795.634 440.806 772.27 435.42 761.176 417.697C750.089 399.973 755.471 376.626 773.207 365.539C790.943 354.453 814.307 359.839 825.402 377.562Z" stroke="#495654" stroke-width="1.29" stroke-miterlimit="10"/>
<path d="M820.963 353.64C833.294 373.342 827.305 399.306 807.588 411.628C787.871 423.95 761.889 417.966 749.558 398.263C737.228 378.56 743.216 352.596 762.933 340.274C782.65 327.952 808.633 333.937 820.963 353.64Z" fill="#EFCCA9"/>
<path d="M820.963 353.64C833.294 373.342 827.305 399.306 807.588 411.628C787.871 423.95 761.889 417.966 749.558 398.263C737.228 378.56 743.216 352.596 762.933 340.274C782.65 327.952 808.633 333.937 820.963 353.64Z" stroke="#495654" stroke-width="1.29" stroke-miterlimit="10"/>
<path d="M816.525 329.724C830.1 351.407 823.505 379.979 801.807 393.544C780.109 407.101 751.516 400.518 737.942 378.836C724.375 357.153 730.962 328.581 752.66 315.016C774.358 301.451 802.951 308.042 816.525 329.724Z" fill="#EFCCA9"/>
<path d="M816.525 329.724C830.1 351.407 823.505 379.979 801.807 393.544C780.109 407.101 751.516 400.518 737.942 378.836C724.375 357.153 730.962 328.581 752.66 315.016C774.358 301.451 802.951 308.042 816.525 329.724Z" stroke="#495654" stroke-width="1.29" stroke-miterlimit="10"/>
<path d="M812.088 305.802C826.899 329.464 819.705 360.652 796.026 375.452C772.347 390.253 741.136 383.063 726.325 359.402C711.515 335.732 718.709 304.551 742.388 289.751C766.066 274.951 797.277 282.14 812.088 305.802Z" fill="#EFCCA9"/>
<path d="M804.968 368.34C824.718 348.604 824.718 316.604 804.968 296.868C785.217 277.131 753.195 277.131 733.444 296.868C713.694 316.604 713.694 348.604 733.444 368.34C753.195 388.077 785.217 388.077 804.968 368.34Z" stroke="#495654" stroke-width="1.29" stroke-miterlimit="10"/>
<path d="M807.65 281.879C823.705 307.528 815.904 341.318 790.244 357.361C764.577 373.396 730.763 365.609 714.709 339.967C698.662 314.318 706.455 280.529 732.115 264.485C757.782 248.45 791.596 256.238 807.65 281.879Z" fill="#EFCCA9"/>
<path d="M807.65 281.879C823.705 307.528 815.904 341.318 790.244 357.361C764.577 373.396 730.763 365.609 714.709 339.967C698.662 314.318 706.455 280.529 732.115 264.485C757.782 248.45 791.596 256.238 807.65 281.879Z" stroke="#495654" stroke-width="1.29" stroke-miterlimit="10"/>
<path d="M816.618 259.199C834.415 284.48 826.852 317.103 799.726 332.08C772.6 347.057 736.184 338.701 718.379 313.428C700.581 288.147 708.144 255.524 735.27 240.547C762.396 225.571 798.813 233.926 816.618 259.199Z" fill="#EFCCA9"/>
<path d="M816.618 259.199C834.415 284.48 826.852 317.103 799.726 332.08C772.6 347.057 736.184 338.701 718.379 313.428C700.581 288.147 708.144 255.524 735.27 240.547C762.396 225.571 798.813 233.926 816.618 259.199Z" stroke="#495654" stroke-width="1.29" stroke-miterlimit="10"/>
<path d="M825.593 236.512C845.141 261.416 837.809 292.881 809.224 306.791C780.639 320.702 741.612 311.786 722.072 286.874C702.531 261.961 709.856 230.504 738.441 216.594C767.026 202.684 806.045 211.599 825.593 236.512Z" fill="#EFCCA9"/>
<path d="M825.593 236.512C845.141 261.416 837.809 292.881 809.224 306.791C780.639 320.702 741.612 311.786 722.072 286.874C702.531 261.961 709.856 230.504 738.441 216.594C767.026 202.684 806.045 211.599 825.593 236.512Z" stroke="#495654" stroke-width="1.29" stroke-miterlimit="10"/>
<path d="M834.562 213.832C855.86 238.368 848.758 268.667 818.714 281.511C788.663 294.354 747.041 284.871 725.75 260.335C704.451 235.798 711.553 205.5 741.597 192.656C771.649 179.812 813.271 189.295 834.562 213.824" fill="#EFCCA9"/>
<path d="M834.562 213.832C855.86 238.368 848.758 268.667 818.714 281.511C788.663 294.354 747.041 284.871 725.75 260.335C704.451 235.798 711.553 205.5 741.597 192.656C771.649 179.812 813.271 189.295 834.562 213.824V213.832Z" stroke="#495654" stroke-width="1.29" stroke-miterlimit="10"/>
<path d="M843.529 191.152C866.571 215.32 859.707 244.453 828.197 256.23C796.686 268.007 752.461 257.964 729.42 233.796C706.378 209.627 713.242 180.495 744.753 168.718C776.263 156.94 820.488 166.984 843.529 191.152Z" fill="#EFCCA9"/>
<path d="M843.529 191.152C866.571 215.32 859.707 244.453 828.197 256.23C796.686 268.007 752.461 257.964 729.42 233.796C706.378 209.627 713.242 180.495 744.753 168.718C776.263 156.94 820.488 166.984 843.529 191.152Z" stroke="#495654" stroke-width="1.29" stroke-miterlimit="10"/>
<path d="M852.504 168.465C877.297 192.257 870.663 220.231 837.694 230.949C804.725 241.66 757.897 231.057 733.105 207.257C708.313 183.457 714.947 155.49 747.916 144.772C780.885 134.061 827.712 144.665 852.504 168.465Z" fill="#EFCCA9"/>
<path d="M852.504 168.465C877.297 192.257 870.663 220.231 837.694 230.949C804.725 241.66 757.897 231.057 733.105 207.257C708.313 183.457 714.947 155.49 747.916 144.772C780.885 134.061 827.712 144.665 852.504 168.465Z" stroke="#495654" stroke-width="1.29" stroke-miterlimit="10"/>
<path d="M861.473 145.785C888.016 169.209 881.612 196.016 847.184 205.668C812.756 215.312 763.326 204.149 736.783 180.717C710.241 157.286 716.644 130.478 751.072 120.834C785.507 111.189 834.93 122.36 861.473 145.785Z" fill="#EFCCA9"/>
<path d="M861.473 145.785C888.016 169.209 881.612 196.016 847.184 205.668C812.756 215.312 763.326 204.149 736.783 180.717C710.241 157.286 716.644 130.478 751.072 120.834C785.507 111.189 834.93 122.36 861.473 145.785Z" stroke="#495654" stroke-width="1.29" stroke-miterlimit="10"/>
<path d="M870.448 123.097C898.734 146.153 892.568 171.794 856.674 180.38C820.78 188.958 768.754 177.226 740.461 154.171C712.175 131.115 718.341 105.466 754.227 96.888C790.122 88.3102 842.147 100.041 870.44 123.097" fill="#EFCCA9"/>
<path d="M870.448 123.097C898.734 146.153 892.568 171.794 856.674 180.38C820.78 188.958 768.754 177.226 740.461 154.171C712.175 131.115 718.341 105.466 754.227 96.888C790.122 88.3102 842.147 100.041 870.44 123.097H870.448Z" stroke="#495654" stroke-width="1.29" stroke-miterlimit="10"/>
<path d="M879.416 100.417C909.452 123.105 903.517 147.588 866.163 155.099C828.81 162.61 774.182 150.319 744.138 127.632C714.102 104.944 720.037 80.4613 757.39 72.9499C794.743 65.4309 849.379 77.7299 879.416 100.417Z" fill="#EFCCA9"/>
<path d="M879.416 100.417C909.452 123.105 903.517 147.588 866.163 155.099C828.81 162.61 774.182 150.319 744.138 127.632C714.102 104.944 720.037 80.4613 757.39 72.9499C794.743 65.4309 849.379 77.7299 879.416 100.417Z" stroke="#495654" stroke-width="1.29" stroke-miterlimit="10"/>
<path d="M888.383 77.7375C920.17 100.049 914.465 123.373 875.653 129.818C836.841 136.271 779.602 123.412 747.823 101.092C716.037 78.7809 721.741 55.4566 760.553 49.0117C799.365 42.5592 856.604 55.4259 888.383 77.7375Z" fill="#EFCCA9"/>
<path d="M888.383 77.7375C920.17 100.049 914.465 123.373 875.653 129.818C836.841 136.271 779.602 123.412 747.823 101.092C716.037 78.7809 721.741 55.4566 760.553 49.0117C799.365 42.5592 856.604 55.4259 888.383 77.7375Z" stroke="#495654" stroke-width="1.29" stroke-miterlimit="10"/>
<path d="M1168.56 281.457C1173.45 289.267 1171.08 299.572 1163.25 304.459C1155.44 309.346 1145.13 306.975 1140.24 299.157C1135.34 291.347 1137.72 281.042 1145.54 276.155C1153.36 271.268 1163.67 273.639 1168.56 281.457Z" fill="#EFCCA9"/>
<path d="M1168.56 281.457C1173.45 289.267 1171.08 299.572 1163.25 304.459C1155.44 309.346 1145.13 306.975 1140.24 299.157C1135.34 291.347 1137.72 281.042 1145.54 276.155C1153.36 271.268 1163.67 273.639 1168.56 281.457Z" stroke="#495654" stroke-width="1.29" stroke-miterlimit="10"/>
<path d="M1194.2 277.613C1200.71 288.024 1197.55 301.735 1187.14 308.241C1176.73 314.748 1163 311.587 1156.49 301.183C1149.98 290.779 1153.14 277.061 1163.55 270.554C1173.97 264.048 1187.69 267.209 1194.2 277.613Z" fill="#EFCCA9"/>
<path d="M1194.2 277.613C1200.71 288.024 1197.55 301.735 1187.14 308.241C1176.73 314.748 1163 311.587 1156.49 301.183C1149.98 290.779 1153.14 277.061 1163.55 270.554C1173.97 264.048 1187.69 267.209 1194.2 277.613Z" stroke="#495654" stroke-width="1.29" stroke-miterlimit="10"/>
<path d="M1219.85 273.769C1227.99 286.766 1224.03 303.899 1211.03 312.024C1198.02 320.157 1180.87 316.206 1172.74 303.209C1164.61 290.211 1168.56 273.079 1181.57 264.954C1194.57 256.821 1211.72 260.772 1219.85 273.769Z" fill="#EFCCA9"/>
<path d="M1219.85 273.769C1227.99 286.766 1224.03 303.899 1211.03 312.024C1198.02 320.157 1180.87 316.206 1172.74 303.209C1164.61 290.211 1168.56 273.079 1181.57 264.954C1194.57 256.821 1211.72 260.772 1219.85 273.769Z" stroke="#495654" stroke-width="1.29" stroke-miterlimit="10"/>
<path d="M1245.49 269.925C1255.25 285.516 1250.51 306.063 1234.9 315.814C1219.3 325.566 1198.74 320.832 1188.98 305.242C1179.22 289.651 1183.96 269.104 1199.56 259.353C1215.16 249.601 1235.73 254.335 1245.48 269.925" fill="#EFCCA9"/>
<path d="M1245.49 269.925C1255.25 285.516 1250.51 306.063 1234.9 315.814C1219.3 325.566 1198.74 320.832 1188.98 305.242C1179.22 289.651 1183.96 269.104 1199.56 259.353C1215.16 249.601 1235.73 254.335 1245.48 269.925H1245.49Z" stroke="#495654" stroke-width="1.29" stroke-miterlimit="10"/>
<path d="M1271.14 266.081C1282.52 284.265 1276.99 308.226 1258.79 319.597C1240.59 330.967 1216.62 325.443 1205.24 307.259C1193.86 289.076 1199.39 265.114 1217.58 253.744C1235.78 242.373 1259.76 247.897 1271.14 266.081Z" fill="#EFCCA9"/>
<path d="M1271.14 266.081C1282.52 284.265 1276.99 308.226 1258.79 319.597C1240.59 330.967 1216.62 325.443 1205.24 307.259C1193.86 289.076 1199.39 265.114 1217.58 253.744C1235.78 242.373 1259.76 247.897 1271.14 266.081Z" stroke="#495654" stroke-width="1.29" stroke-miterlimit="10"/>
<path d="M1296.79 262.237C1309.8 283.014 1303.48 310.39 1282.68 323.387C1261.89 336.384 1234.5 330.07 1221.49 309.292C1208.49 288.515 1214.8 261.14 1235.6 248.143C1256.39 235.153 1283.78 241.46 1296.79 262.237Z" fill="#EFCCA9"/>
<path d="M1296.79 262.237C1309.8 283.014 1303.48 310.39 1282.68 323.387C1261.89 336.384 1234.5 330.07 1221.49 309.292C1208.49 288.515 1214.8 261.14 1235.6 248.143C1256.39 235.153 1283.78 241.46 1296.79 262.237Z" stroke="#495654" stroke-width="1.29" stroke-miterlimit="10"/>
<path d="M1322.43 258.394C1337.06 281.764 1329.96 312.554 1306.57 327.17C1283.18 341.786 1252.37 334.689 1237.74 311.318C1223.12 287.948 1230.22 257.158 1253.61 242.542C1276.99 227.926 1307.81 235.023 1322.43 258.394Z" fill="#EFCCA9"/>
<path d="M1322.43 258.394C1337.06 281.764 1329.96 312.554 1306.57 327.17C1283.18 341.786 1252.37 334.689 1237.74 311.318C1223.12 287.948 1230.22 257.158 1253.61 242.542C1276.99 227.926 1307.81 235.023 1322.43 258.394Z" stroke="#495654" stroke-width="1.29" stroke-miterlimit="10"/>
<path d="M1348.08 254.55C1364.32 280.513 1356.44 314.717 1330.46 330.96C1304.47 347.195 1270.24 339.315 1253.99 313.351C1237.74 287.388 1245.63 253.176 1271.61 236.941C1297.59 220.706 1331.83 228.586 1348.08 254.55Z" fill="#EFCCA9"/>
<path d="M1332.94 329.272C1358.01 311.659 1364.04 277.072 1346.41 252.02C1328.79 226.969 1294.18 220.939 1269.11 238.552C1244.04 256.165 1238 290.751 1255.63 315.803C1273.26 340.855 1307.87 346.885 1332.94 329.272Z" stroke="#495654" stroke-width="1.29" stroke-miterlimit="10"/>
<path d="M1373.72 250.706C1391.6 279.263 1382.91 316.888 1354.34 334.742C1325.76 352.604 1288.11 343.926 1270.25 315.377C1252.37 286.82 1261.05 249.194 1289.62 231.34C1318.2 213.479 1355.85 222.156 1373.72 250.706Z" fill="#EFCCA9"/>
<path d="M1373.72 250.706C1391.6 279.263 1382.91 316.888 1354.34 334.742C1325.76 352.604 1288.11 343.926 1270.25 315.377C1252.37 286.82 1261.05 249.194 1289.62 231.34C1318.2 213.479 1355.85 222.156 1373.72 250.706Z" stroke="#495654" stroke-width="1.29" stroke-miterlimit="10"/>
<path d="M1399.37 246.862C1418.86 278.012 1409.39 319.052 1378.22 338.532C1347.05 358.013 1305.98 348.553 1286.48 317.402C1266.99 286.252 1276.46 245.212 1307.63 225.732C1338.8 206.251 1379.87 215.712 1399.37 246.862Z" fill="#EFCCA9"/>
<path d="M1399.37 246.862C1418.86 278.012 1409.39 319.052 1378.22 338.532C1347.05 358.013 1305.98 348.553 1286.48 317.402C1266.99 286.252 1276.46 245.212 1307.63 225.732C1338.8 206.251 1379.87 215.712 1399.37 246.862Z" stroke="#495654" stroke-width="1.29" stroke-miterlimit="10"/>
<path d="M1395.23 228.225C1414.35 258.762 1405.06 298.996 1374.5 318.093C1343.95 337.19 1303.68 327.914 1284.57 297.377C1265.46 266.841 1274.74 226.607 1305.3 207.51C1335.86 188.413 1376.12 197.689 1395.23 228.225Z" fill="#EFCCA9"/>
<path d="M1395.23 228.225C1414.35 258.762 1405.06 298.996 1374.5 318.093C1343.95 337.19 1303.68 327.914 1284.57 297.377C1265.46 266.841 1274.74 226.607 1305.3 207.51C1335.86 188.413 1376.12 197.689 1395.23 228.225Z" stroke="#495654" stroke-width="1.29" stroke-miterlimit="10"/>
<path d="M1391.1 209.596C1409.82 239.519 1400.73 278.956 1370.78 297.669C1340.84 316.382 1301.38 307.298 1282.65 277.367C1263.92 247.445 1273.01 208.008 1302.96 189.295C1332.91 170.582 1372.37 179.666 1391.1 209.596Z" fill="#EFCCA9"/>
<path d="M1391.1 209.596C1409.82 239.519 1400.73 278.956 1370.78 297.669C1340.84 316.382 1301.38 307.298 1282.65 277.367C1263.92 247.445 1273.01 208.008 1302.96 189.295C1332.91 170.582 1372.37 179.666 1391.1 209.596Z" stroke="#495654" stroke-width="1.29" stroke-miterlimit="10"/>
<path d="M1386.96 190.968C1405.3 220.284 1396.39 258.907 1367.06 277.237C1337.72 295.566 1299.07 286.666 1280.73 257.35C1262.38 228.033 1271.29 189.41 1300.63 171.081C1329.97 152.751 1368.62 161.651 1386.96 190.968Z" fill="#EFCCA9"/>
<path d="M1386.96 190.968C1405.3 220.284 1396.39 258.907 1367.06 277.237C1337.72 295.566 1299.07 286.666 1280.73 257.35C1262.38 228.033 1271.29 189.41 1300.63 171.081C1329.97 152.751 1368.62 161.651 1386.96 190.968Z" stroke="#495654" stroke-width="1.29" stroke-miterlimit="10"/>
<path d="M1382.83 172.339C1400.79 201.042 1392.07 238.859 1363.34 256.813C1334.62 274.767 1296.77 266.051 1278.81 237.34C1260.84 208.638 1269.56 170.82 1298.29 152.866C1327.02 134.913 1364.86 143.636 1382.83 172.339Z" fill="#EFCCA9"/>
<path d="M1382.83 172.339C1400.79 201.042 1392.07 238.859 1363.34 256.813C1334.62 274.767 1296.77 266.051 1278.81 237.34C1260.84 208.638 1269.56 170.82 1298.29 152.866C1327.02 134.913 1364.86 143.636 1382.83 172.339Z" stroke="#495654" stroke-width="1.29" stroke-miterlimit="10"/>
<path d="M1378.69 153.71C1396.27 181.799 1387.73 218.819 1359.63 236.389C1331.52 253.959 1294.47 245.427 1276.89 217.33C1259.31 189.242 1267.84 152.222 1295.95 134.66C1324.06 117.09 1361.11 125.621 1378.69 153.718" fill="#EFCCA9"/>
<path d="M1378.69 153.71C1396.27 181.799 1387.73 218.819 1359.63 236.389C1331.52 253.959 1294.47 245.427 1276.89 217.33C1259.31 189.242 1267.84 152.222 1295.95 134.66C1324.06 117.09 1361.11 125.621 1378.69 153.718V153.71Z" stroke="#495654" stroke-width="1.29" stroke-miterlimit="10"/>
<path d="M1374.55 135.074C1391.75 162.557 1383.4 198.763 1355.89 215.949C1328.39 233.136 1292.16 224.788 1274.96 197.313C1257.76 169.83 1266.11 133.624 1293.61 116.437C1321.11 99.251 1357.34 107.599 1374.54 135.074" fill="#EFCCA9"/>
<path d="M1374.55 135.074C1391.75 162.557 1383.4 198.763 1355.89 215.949C1328.39 233.136 1292.16 224.788 1274.96 197.313C1257.76 169.83 1266.11 133.624 1293.61 116.437C1321.11 99.251 1357.34 107.599 1374.54 135.074H1374.55Z" stroke="#495654" stroke-width="1.29" stroke-miterlimit="10"/>
<path d="M1370.42 116.445C1387.23 143.314 1379.07 178.715 1352.18 195.525C1325.29 212.328 1289.86 204.172 1273.05 177.295C1256.23 150.426 1264.4 115.026 1291.28 98.2152C1318.17 81.4125 1353.61 89.5683 1370.42 116.437" fill="#EFCCA9"/>
<path d="M1370.42 116.445C1387.23 143.314 1379.07 178.715 1352.18 195.525C1325.29 212.328 1289.86 204.172 1273.05 177.295C1256.23 150.426 1264.4 115.026 1291.28 98.2152C1318.17 81.4125 1353.61 89.5683 1370.42 116.437V116.445Z" stroke="#495654" stroke-width="1.29" stroke-miterlimit="10"/>
<path d="M1366.28 97.8163C1382.71 124.072 1374.73 158.674 1348.46 175.093C1322.19 191.513 1287.56 183.541 1271.13 157.286C1254.7 131.03 1262.68 96.4276 1288.95 80.0085C1315.22 63.5895 1349.85 71.5612 1366.28 97.8163Z" fill="#EFCCA9"/>
<path d="M1366.28 97.8163C1382.71 124.072 1374.73 158.674 1348.46 175.093C1322.19 191.513 1287.56 183.541 1271.13 157.286C1254.7 131.03 1262.68 96.4276 1288.95 80.0085C1315.22 63.5895 1349.85 71.5612 1366.28 97.8163Z" stroke="#495654" stroke-width="1.29" stroke-miterlimit="10"/>
<path d="M1362.14 79.1875C1378.2 104.837 1370.4 138.626 1344.74 154.669C1319.07 170.705 1285.26 162.917 1269.2 137.276C1253.15 111.627 1260.95 77.8372 1286.61 61.7941C1312.28 45.7586 1346.09 53.5461 1362.14 79.1875Z" fill="#EFCCA9"/>
<path d="M1362.14 79.1875C1378.2 104.837 1370.4 138.626 1344.74 154.669C1319.07 170.705 1285.26 162.917 1269.2 137.276C1253.15 111.627 1260.95 77.8372 1286.61 61.7941C1312.28 45.7586 1346.09 53.5461 1362.14 79.1875Z" stroke="#495654" stroke-width="1.29" stroke-miterlimit="10"/>
<path d="M1337 79.2184C1352.15 103.517 1345.6 136.094 1322.37 151.984C1299.15 167.874 1268.04 161.061 1252.89 136.77C1237.75 112.479 1244.3 79.8935 1267.53 64.0038C1290.75 48.1142 1321.86 54.9273 1337.01 79.2184" fill="#EFCCA9"/>
<path d="M1337 79.2184C1352.15 103.517 1345.6 136.094 1322.37 151.984C1299.15 167.874 1268.04 161.061 1252.89 136.77C1237.75 112.479 1244.3 79.8935 1267.53 64.0038C1290.75 48.1142 1321.86 54.9273 1337.01 79.2184H1337Z" stroke="#495654" stroke-width="1.29" stroke-miterlimit="10"/>
<path d="M1311.85 79.249C1326.1 102.19 1320.79 133.555 1300 149.299C1279.21 165.043 1250.81 159.204 1236.58 136.263C1222.34 113.322 1227.64 81.9574 1248.43 66.2135C1269.22 50.4696 1297.62 56.3083 1311.85 79.249Z" fill="#EFCCA9"/>
<path d="M1311.85 79.249C1326.1 102.19 1320.79 133.555 1300 149.299C1279.21 165.043 1250.81 159.204 1236.58 136.263C1222.34 113.322 1227.64 81.9574 1248.43 66.2135C1269.22 50.4696 1297.62 56.3083 1311.85 79.249Z" stroke="#495654" stroke-width="1.29" stroke-miterlimit="10"/>
<path d="M1286.71 79.2798C1300.04 100.87 1295.98 131.015 1277.63 146.613C1259.28 162.211 1233.6 157.347 1220.26 135.757C1206.93 114.166 1210.99 84.0137 1229.34 68.4232C1247.69 52.8251 1273.37 57.6894 1286.71 79.2798Z" fill="#EFCCA9"/>
<path d="M1286.71 79.2798C1300.04 100.87 1295.98 131.015 1277.63 146.613C1259.28 162.211 1233.6 157.347 1220.26 135.757C1206.93 114.166 1210.99 84.0137 1229.34 68.4232C1247.69 52.8251 1273.37 57.6894 1286.71 79.2798Z" stroke="#495654" stroke-width="1.29" stroke-miterlimit="10"/>
<path d="M1261.57 79.3103C1274 99.5503 1271.18 128.483 1255.27 143.928C1239.36 159.38 1216.39 155.49 1203.96 135.25C1191.53 115.01 1194.35 86.0774 1210.26 70.6251C1226.17 55.1804 1249.14 59.0627 1261.57 79.3026" fill="#EFCCA9"/>
<path d="M1261.57 79.3103C1274 99.5503 1271.18 128.483 1255.27 143.928C1239.36 159.38 1216.39 155.49 1203.96 135.25C1191.53 115.01 1194.35 86.0774 1210.26 70.6251C1226.17 55.1804 1249.14 59.0627 1261.57 79.3026V79.3103Z" stroke="#495654" stroke-width="1.29" stroke-miterlimit="10"/>
<path d="M1236.42 79.341C1247.95 98.2306 1246.37 125.944 1232.91 141.25C1219.44 156.549 1199.18 153.641 1187.65 134.752C1176.13 115.862 1177.7 88.1489 1191.17 72.8424C1204.64 57.5435 1224.9 60.4513 1236.42 79.341Z" fill="#EFCCA9"/>
<path d="M1236.42 79.341C1247.95 98.2306 1246.37 125.944 1232.91 141.25C1219.44 156.549 1199.18 153.641 1187.65 134.752C1176.13 115.862 1177.7 88.1489 1191.17 72.8424C1204.64 57.5435 1224.9 60.4513 1236.42 79.341Z" stroke="#495654" stroke-width="1.29" stroke-miterlimit="10"/>
<path d="M1211.28 79.3717C1221.9 96.911 1221.58 123.412 1210.54 138.565C1199.52 153.718 1181.96 151.785 1171.34 134.245C1160.72 116.706 1161.04 90.2053 1172.08 75.0521C1183.1 59.899 1200.65 61.8325 1211.28 79.3717Z" fill="#EFCCA9"/>
<path d="M1211.28 79.3717C1221.9 96.911 1221.58 123.412 1210.54 138.565C1199.52 153.718 1181.96 151.785 1171.34 134.245C1160.72 116.706 1161.04 90.2053 1172.08 75.0521C1183.1 59.899 1200.65 61.8325 1211.28 79.3717Z" stroke="#495654" stroke-width="1.29" stroke-miterlimit="10"/>
<path d="M1186.13 79.4101C1195.85 95.599 1196.77 120.88 1188.18 135.887C1179.58 150.894 1164.75 149.935 1155.03 133.754C1145.31 117.565 1144.4 92.2845 1152.99 77.2771C1161.58 62.2698 1176.41 63.2288 1186.13 79.4101Z" fill="#EFCCA9"/>
<path d="M1186.13 79.4101C1195.85 95.599 1196.77 120.88 1188.18 135.887C1179.58 150.894 1164.75 149.935 1155.03 133.754C1145.31 117.565 1144.4 92.2845 1152.99 77.2771C1161.58 62.2698 1176.41 63.2288 1186.13 79.4101Z" stroke="#495654" stroke-width="1.29" stroke-miterlimit="10"/>
<path d="M1160.99 79.4408C1169.8 94.2717 1171.96 118.348 1165.81 133.202C1159.66 148.063 1147.53 148.079 1138.72 133.248C1129.91 118.417 1127.75 94.3407 1133.9 79.4868C1140.05 64.6252 1152.18 64.6099 1160.99 79.4408Z" fill="#EFCCA9"/>
<path d="M1160.99 79.4408C1169.8 94.2717 1171.96 118.348 1165.81 133.202C1159.66 148.063 1147.53 148.079 1138.72 133.248C1129.91 118.417 1127.75 94.3407 1133.9 79.4868C1140.05 64.6252 1152.18 64.6099 1160.99 79.4408Z" stroke="#495654" stroke-width="1.29" stroke-miterlimit="10"/>
<path d="M1114.81 81.6965C1118.51 66.9884 1127.94 65.991 1135.84 79.4715C1143.75 92.952 1147.15 115.808 1143.44 130.516C1139.74 145.225 1130.32 146.222 1122.41 132.741C1114.5 119.261 1111.1 96.4047 1114.81 81.6965Z" fill="#EFCCA9"/>
<path d="M1114.81 81.6965C1118.51 66.9884 1127.94 65.991 1135.84 79.4715C1143.75 92.952 1147.15 115.808 1143.44 130.516C1139.74 145.225 1130.32 146.222 1122.41 132.741C1114.5 119.261 1111.1 96.4047 1114.81 81.6965Z" stroke="#495654" stroke-width="1.29" stroke-miterlimit="10"/>
<path d="M1123.32 517.761C1133.26 533.628 1128.43 554.535 1112.55 564.464C1096.67 574.384 1075.75 569.566 1065.81 553.699C1055.89 537.832 1060.71 516.925 1076.59 506.997C1092.46 497.076 1113.39 501.895 1123.32 517.761Z" fill="#EFCCA9"/>
<path d="M1123.32 517.761C1133.26 533.628 1128.43 554.535 1112.55 564.464C1096.67 574.384 1075.75 569.566 1065.81 553.699C1055.89 537.832 1060.71 516.925 1076.59 506.997C1092.46 497.076 1113.39 501.895 1123.32 517.761Z" stroke="#495654" stroke-width="1.29" stroke-miterlimit="10"/>
<path d="M1118.33 503.145C1127.75 518.191 1123.17 538.017 1108.12 547.431C1093.06 556.837 1073.21 552.272 1063.8 537.226C1054.38 522.181 1058.96 502.355 1074.01 492.941C1089.07 483.527 1108.91 488.1 1118.33 503.145Z" fill="#EFCCA9"/>
<path d="M1118.33 503.145C1127.75 518.191 1123.17 538.017 1108.12 547.431C1093.06 556.837 1073.21 552.272 1063.8 537.226C1054.38 522.181 1058.96 502.355 1074.01 492.941C1089.07 483.527 1108.91 488.1 1118.33 503.145Z" stroke="#495654" stroke-width="1.29" stroke-miterlimit="10"/>
<path d="M1113.34 488.521C1122.25 502.746 1117.92 521.498 1103.68 530.39C1089.45 539.29 1070.69 534.971 1061.78 520.738C1052.88 506.513 1057.21 487.77 1071.44 478.87C1085.68 469.969 1104.44 474.289 1113.34 488.521Z" fill="#EFCCA9"/>
<path d="M1113.34 488.521C1122.25 502.746 1117.92 521.498 1103.68 530.39C1089.45 539.29 1070.69 534.971 1061.78 520.738C1052.88 506.513 1057.21 487.77 1071.44 478.87C1085.68 469.969 1104.44 474.289 1113.34 488.521Z" stroke="#495654" stroke-width="1.29" stroke-miterlimit="10"/>
<path d="M1108.34 473.898C1116.73 487.302 1112.66 504.964 1099.24 513.35C1085.83 521.736 1068.16 517.662 1059.76 504.258C1051.37 490.854 1055.45 473.184 1068.86 464.806C1082.27 456.42 1099.95 460.494 1108.34 473.898Z" fill="#EFCCA9"/>
<path d="M1108.34 473.898C1116.73 487.302 1112.66 504.964 1099.24 513.35C1085.83 521.736 1068.16 517.662 1059.76 504.258C1051.37 490.854 1055.45 473.184 1068.86 464.806C1082.27 456.42 1099.95 460.494 1108.34 473.898Z" stroke="#495654" stroke-width="1.29" stroke-miterlimit="10"/>
<path d="M1103.35 459.282C1111.23 471.865 1107.4 488.445 1094.8 496.317C1082.21 504.189 1065.61 500.368 1057.74 487.777C1049.87 475.195 1053.69 458.607 1066.29 450.742C1078.88 442.87 1095.47 446.691 1103.35 459.282Z" fill="#EFCCA9"/>
<path d="M1103.35 459.282C1111.23 471.865 1107.4 488.445 1094.8 496.317C1082.21 504.189 1065.61 500.368 1057.74 487.777C1049.87 475.195 1053.69 458.607 1066.29 450.742C1078.88 442.87 1095.47 446.691 1103.35 459.282Z" stroke="#495654" stroke-width="1.29" stroke-miterlimit="10"/>
<path d="M1098.36 444.658C1105.72 456.42 1102.14 471.926 1090.37 479.276C1078.6 486.634 1063.09 483.059 1055.73 471.297C1048.37 459.535 1051.95 444.029 1063.72 436.679C1075.49 429.321 1091 432.896 1098.36 444.658Z" fill="#EFCCA9"/>
<path d="M1098.36 444.658C1105.72 456.42 1102.14 471.926 1090.37 479.276C1078.6 486.634 1063.09 483.059 1055.73 471.297C1048.37 459.535 1051.95 444.029 1063.72 436.679C1075.49 429.321 1091 432.896 1098.36 444.658Z" stroke="#495654" stroke-width="1.29" stroke-miterlimit="10"/>
<path d="M1093.36 430.034C1100.21 440.975 1096.89 455.399 1085.93 462.243C1074.98 469.087 1060.55 465.765 1053.71 454.816C1046.86 443.875 1050.18 429.451 1061.13 422.607C1072.08 415.763 1086.51 419.086 1093.36 430.026" fill="#EFCCA9"/>
<path d="M1093.36 430.034C1100.21 440.975 1096.89 455.399 1085.93 462.243C1074.98 469.087 1060.55 465.765 1053.71 454.816C1046.86 443.875 1050.18 429.451 1061.13 422.607C1072.08 415.763 1086.51 419.086 1093.36 430.026V430.034Z" stroke="#495654" stroke-width="1.29" stroke-miterlimit="10"/>
<path d="M1088.37 415.418C1094.71 425.538 1091.63 438.881 1081.5 445.21C1071.37 451.54 1058.02 448.464 1051.69 438.344C1045.35 428.224 1048.43 414.881 1058.56 408.551C1068.68 402.222 1082.04 405.298 1088.37 415.418Z" fill="#EFCCA9"/>
<path d="M1088.37 415.418C1094.71 425.538 1091.63 438.881 1081.5 445.21C1071.37 451.54 1058.02 448.464 1051.69 438.344C1045.35 428.224 1048.43 414.881 1058.56 408.551C1068.68 402.222 1082.04 405.298 1088.37 415.418Z" stroke="#495654" stroke-width="1.29" stroke-miterlimit="10"/>
<path d="M1083.37 400.795C1089.19 410.094 1086.37 422.354 1077.06 428.17C1067.76 433.986 1055.49 431.162 1049.67 421.863C1043.85 412.564 1046.67 400.304 1055.98 394.488C1065.28 388.672 1077.55 391.496 1083.37 400.795Z" fill="#EFCCA9"/>
<path d="M1083.37 400.795C1089.19 410.094 1086.37 422.354 1077.06 428.17C1067.76 433.986 1055.49 431.162 1049.67 421.863C1043.85 412.564 1046.67 400.304 1055.98 394.488C1065.28 388.672 1077.55 391.496 1083.37 400.795Z" stroke="#495654" stroke-width="1.29" stroke-miterlimit="10"/>
<path d="M1078.38 386.171C1083.69 394.649 1081.12 405.828 1072.62 411.129C1064.14 416.431 1052.95 413.861 1047.65 405.375C1042.34 396.897 1044.91 385.718 1053.41 380.416C1061.89 375.115 1073.08 377.685 1078.38 386.171Z" fill="#EFCCA9"/>
<path d="M1078.38 386.171C1083.69 394.649 1081.12 405.828 1072.62 411.129C1064.14 416.431 1052.95 413.861 1047.65 405.375C1042.34 396.897 1044.91 385.718 1053.41 380.416C1061.89 375.115 1073.08 377.685 1078.38 386.171Z" stroke="#495654" stroke-width="1.29" stroke-miterlimit="10"/>
<path d="M1091.81 373.181C1098.47 383.815 1095.23 397.818 1084.59 404.47C1073.95 411.114 1059.94 407.891 1053.28 397.257C1046.63 386.623 1049.86 372.621 1060.5 365.969C1071.14 359.325 1085.15 362.547 1091.81 373.181Z" fill="#EFCCA9"/>
<path d="M1091.81 373.181C1098.47 383.815 1095.23 397.818 1084.59 404.47C1073.95 411.114 1059.94 407.891 1053.28 397.257C1046.63 386.623 1049.86 372.621 1060.5 365.969C1071.14 359.325 1085.15 362.547 1091.81 373.181Z" stroke="#495654" stroke-width="1.29" stroke-miterlimit="10"/>
<path d="M1105.24 360.192C1113.24 372.974 1109.35 389.815 1096.56 397.802C1083.77 405.797 1066.92 401.915 1058.93 389.132C1050.93 376.35 1054.81 359.509 1067.6 351.522C1080.39 343.527 1097.25 347.409 1105.24 360.192Z" fill="#EFCCA9"/>
<path d="M1105.24 360.192C1113.24 372.974 1109.35 389.815 1096.56 397.802C1083.77 405.797 1066.92 401.915 1058.93 389.132C1050.93 376.35 1054.81 359.509 1067.6 351.522C1080.39 343.527 1097.25 347.409 1105.24 360.192Z" stroke="#495654" stroke-width="1.29" stroke-miterlimit="10"/>
<path d="M1118.67 347.195C1128.01 362.125 1123.47 381.797 1108.53 391.135C1093.59 400.472 1073.91 395.938 1064.56 381.007C1055.22 366.077 1059.76 346.404 1074.7 337.067C1089.64 327.73 1109.32 332.264 1118.67 347.195Z" fill="#EFCCA9"/>
<path d="M1118.67 347.195C1128.01 362.125 1123.47 381.797 1108.53 391.135C1093.59 400.472 1073.91 395.938 1064.56 381.007C1055.22 366.077 1059.76 346.404 1074.7 337.067C1089.64 327.73 1109.32 332.264 1118.67 347.195Z" stroke="#495654" stroke-width="1.29" stroke-miterlimit="10"/>
<path d="M1132.1 334.205C1142.78 351.284 1137.59 373.795 1120.5 384.475C1103.41 395.155 1080.88 389.969 1070.2 372.89C1059.51 355.811 1064.7 333.3 1081.79 322.62C1098.88 311.94 1121.41 317.126 1132.1 334.205Z" fill="#EFCCA9"/>
<path d="M1132.1 334.205C1142.78 351.284 1137.59 373.795 1120.5 384.475C1103.41 395.155 1080.88 389.969 1070.2 372.89C1059.51 355.811 1064.7 333.3 1081.79 322.62C1098.88 311.94 1121.41 317.126 1132.1 334.205Z" stroke="#495654" stroke-width="1.29" stroke-miterlimit="10"/>
<path d="M1145.53 321.216C1157.56 340.451 1151.71 365.785 1132.47 377.815C1113.22 389.846 1087.87 383.999 1075.83 364.772C1063.79 345.537 1069.64 320.203 1088.89 308.172C1108.13 296.142 1133.49 301.988 1145.53 321.216Z" fill="#EFCCA9"/>
<path d="M1145.53 321.216C1157.56 340.451 1151.71 365.785 1132.47 377.815C1113.22 389.846 1087.87 383.999 1075.83 364.772C1063.79 345.537 1069.64 320.203 1088.89 308.172C1108.13 296.142 1133.49 301.988 1145.53 321.216Z" stroke="#495654" stroke-width="1.29" stroke-miterlimit="10"/>
<path d="M1158.95 308.219C1172.34 329.602 1165.83 357.775 1144.44 371.141C1123.04 384.514 1094.85 378.015 1081.48 356.64C1068.09 335.256 1074.6 307.083 1095.99 293.718C1117.39 280.344 1145.58 286.835 1158.95 308.219Z" fill="#EFCCA9"/>
<path d="M1158.95 308.219C1172.34 329.602 1165.83 357.775 1144.44 371.141C1123.04 384.514 1094.85 378.015 1081.48 356.64C1068.09 335.256 1074.6 307.083 1095.99 293.718C1117.39 280.344 1145.58 286.835 1158.95 308.219Z" stroke="#495654" stroke-width="1.29" stroke-miterlimit="10"/>
<path d="M1172.38 295.229C1187.11 318.76 1179.96 349.765 1156.41 364.481C1132.86 379.196 1101.84 372.053 1087.11 348.522C1072.39 324.99 1079.53 293.986 1103.08 279.27C1126.63 264.554 1157.66 271.697 1172.38 295.229Z" fill="#EFCCA9"/>
<path d="M1172.38 295.229C1187.11 318.76 1179.96 349.765 1156.41 364.481C1132.86 379.196 1101.84 372.053 1087.11 348.522C1072.39 324.99 1079.53 293.986 1103.08 279.27C1126.63 264.554 1157.66 271.697 1172.38 295.229Z" stroke="#495654" stroke-width="1.29" stroke-miterlimit="10"/>
<path d="M1185.8 282.24C1201.87 307.919 1194.07 341.763 1168.38 357.821C1142.68 373.88 1108.81 366.084 1092.74 340.405C1076.67 314.725 1084.47 280.882 1110.17 264.823C1135.87 248.765 1169.73 256.56 1185.8 282.24Z" fill="#EFCCA9"/>
<path d="M1185.8 282.24C1201.87 307.919 1194.07 341.763 1168.38 357.821C1142.68 373.88 1108.81 366.084 1092.74 340.405C1076.67 314.725 1084.47 280.882 1110.17 264.823C1135.87 248.765 1169.73 256.56 1185.8 282.24Z" stroke="#495654" stroke-width="1.29" stroke-miterlimit="10"/>
<path d="M1199.23 269.242C1216.65 297.07 1208.19 333.745 1180.35 351.154C1152.5 368.555 1115.8 360.107 1098.38 332.279C1080.95 304.451 1089.42 267.777 1117.26 250.368C1145.12 232.967 1181.81 241.414 1199.23 269.242Z" fill="#EFCCA9"/>
<path d="M1199.23 269.242C1216.65 297.07 1208.19 333.745 1180.35 351.154C1152.5 368.555 1115.8 360.107 1098.38 332.279C1080.95 304.451 1089.42 267.777 1117.26 250.368C1145.12 232.967 1181.81 241.414 1199.23 269.242Z" stroke="#495654" stroke-width="1.29" stroke-miterlimit="10"/>
<path d="M1202.49 248.435C1221.81 275.864 1213.6 311.272 1184.16 327.522C1154.72 343.773 1115.21 334.704 1095.89 307.275C1076.57 279.846 1084.78 244.437 1114.21 228.187C1143.65 211.937 1183.17 220.998 1202.49 248.435Z" fill="#EFCCA9"/>
<path d="M1202.49 248.435C1221.81 275.864 1213.6 311.272 1184.16 327.522C1154.72 343.773 1115.21 334.704 1095.89 307.275C1076.57 279.846 1084.78 244.437 1114.21 228.187C1143.65 211.937 1183.17 220.998 1202.49 248.435Z" stroke="#495654" stroke-width="1.29" stroke-miterlimit="10"/>
<path d="M1205.74 227.627C1226.96 254.657 1219 288.799 1187.98 303.891C1156.95 318.983 1114.61 309.308 1093.4 282.285C1072.19 255.263 1080.14 221.113 1111.17 206.021C1142.19 190.929 1184.54 200.604 1205.74 227.627Z" fill="#EFCCA9"/>
<path d="M1205.74 227.627C1226.96 254.657 1219 288.799 1187.98 303.891C1156.95 318.983 1114.61 309.308 1093.4 282.285C1072.19 255.263 1080.14 221.113 1111.17 206.021C1142.19 190.929 1184.54 200.604 1205.74 227.627Z" stroke="#495654" stroke-width="1.29" stroke-miterlimit="10"/>
<path d="M1209 206.812C1232.11 233.435 1224.41 266.319 1191.8 280.26C1159.19 294.193 1114.02 283.912 1090.91 257.281C1067.8 230.658 1075.5 197.773 1108.11 183.832C1140.72 169.899 1185.89 180.18 1209 206.812Z" fill="#EFCCA9"/>
<path d="M1209 206.812C1232.11 233.435 1224.41 266.319 1191.8 280.26C1159.19 294.193 1114.02 283.912 1090.91 257.281C1067.8 230.658 1075.5 197.773 1108.11 183.832C1140.72 169.899 1185.89 180.18 1209 206.812Z" stroke="#495654" stroke-width="1.29" stroke-miterlimit="10"/>
<path d="M1212.25 186.004C1237.26 212.228 1229.81 243.846 1195.62 256.629C1161.42 269.411 1113.43 258.509 1088.42 232.284C1063.42 206.06 1070.86 174.441 1105.06 161.659C1139.26 148.877 1187.25 159.779 1212.25 186.004Z" fill="#EFCCA9"/>
<path d="M1212.25 186.004C1237.26 212.228 1229.81 243.846 1195.62 256.629C1161.42 269.411 1113.43 258.509 1088.42 232.284C1063.42 206.06 1070.86 174.441 1105.06 161.659C1139.26 148.877 1187.25 159.779 1212.25 186.004Z" stroke="#495654" stroke-width="1.29" stroke-miterlimit="10"/>
<path d="M1215.51 165.196C1242.41 191.022 1235.22 221.374 1199.44 232.998C1163.66 244.622 1112.85 233.113 1085.95 207.287C1059.04 181.462 1066.24 151.109 1102.02 139.486C1137.79 127.862 1188.61 139.371 1215.51 165.196Z" fill="#EFCCA9"/>
<path d="M1215.51 165.196C1242.41 191.022 1235.22 221.374 1199.44 232.998C1163.66 244.622 1112.85 233.113 1085.95 207.287C1059.04 181.462 1066.24 151.109 1102.02 139.486C1137.79 127.862 1188.61 139.371 1215.51 165.196Z" stroke="#495654" stroke-width="1.29" stroke-miterlimit="10"/>
<path d="M1218.77 144.388C1247.57 169.807 1240.62 198.901 1203.26 209.374C1165.89 219.839 1112.25 207.724 1083.45 182.298C1054.65 156.879 1061.59 127.785 1098.96 117.312C1136.33 106.847 1189.97 118.962 1218.77 144.388Z" fill="#EFCCA9"/>
<path d="M1218.77 144.388C1247.57 169.807 1240.62 198.901 1203.26 209.374C1165.89 219.839 1112.25 207.724 1083.45 182.298C1054.65 156.879 1061.59 127.785 1098.96 117.312C1136.33 106.847 1189.97 118.962 1218.77 144.388Z" stroke="#495654" stroke-width="1.29" stroke-miterlimit="10"/>
<path d="M1222.02 123.58C1252.72 148.6 1246.03 176.428 1207.08 185.743C1168.13 195.057 1111.67 182.321 1080.97 157.301C1050.27 132.281 1056.96 104.453 1095.91 95.1386C1134.86 85.8242 1191.32 98.5606 1222.02 123.58Z" fill="#EFCCA9"/>
<path d="M1222.02 123.58C1252.72 148.6 1246.03 176.428 1207.08 185.743C1168.13 195.057 1111.67 182.321 1080.97 157.301C1050.27 132.281 1056.96 104.453 1095.91 95.1386C1134.86 85.8242 1191.32 98.5606 1222.02 123.58Z" stroke="#495654" stroke-width="1.29" stroke-miterlimit="10"/>
<path d="M1225.28 102.765C1257.87 127.386 1251.44 153.948 1210.9 162.104C1170.36 170.26 1111.08 156.917 1078.48 132.296C1045.89 107.675 1052.32 81.1134 1092.86 72.9575C1133.4 64.8017 1192.68 78.1441 1225.28 102.765Z" fill="#EFCCA9"/>
<path d="M1225.28 102.765C1257.87 127.386 1251.44 153.948 1210.9 162.104C1170.36 170.26 1111.08 156.917 1078.48 132.296C1045.89 107.675 1052.32 81.1134 1092.86 72.9575C1133.4 64.8017 1192.68 78.1441 1225.28 102.765Z" stroke="#495654" stroke-width="1.29" stroke-miterlimit="10"/>
<path d="M1228.53 81.9574C1263.02 106.172 1256.84 131.476 1214.72 138.473C1172.6 145.47 1110.49 131.514 1076 107.3C1041.51 83.0853 1047.69 57.7815 1089.81 50.7765C1131.94 43.7792 1194.04 57.7354 1228.54 81.9497" fill="#EFCCA9"/>
<path d="M1228.53 81.9574C1263.02 106.172 1256.84 131.476 1214.72 138.473C1172.6 145.47 1110.49 131.514 1076 107.3C1041.51 83.0853 1047.69 57.7815 1089.81 50.7765C1131.94 43.7792 1194.04 57.7354 1228.54 81.9497L1228.53 81.9574Z" stroke="#495654" stroke-width="1.29" stroke-miterlimit="10"/>
</g>
<defs>
<clipPath id="clip0_4432_1318">
<rect width="1410" height="598" fill="white"/>
</clipPath>
</defs>
</svg>
